<svg id="D21uT501" xmlns="http://www.w3.org/2000/svg" width="100" height="100" viewBox="0 0 100 100">
  <defs>
    <style>
      .cls-1 {
        fill: #fefefe;
      }

      .cls-2, .cls-5 {
        fill: none;
      }

      .cls-2 {
        stroke: #f97603;
        stroke-width: 3px;
      }

      .cls-3 {
        fill: #fff;
      }

      .cls-4 {
        stroke: none;
      }
    </style>
  </defs>
  <circle id="Ellipse_2" data-name="Ellipse 2" class="cls-1" cx="50" cy="50" r="50"/>
  <path id="Path_1" data-name="Path 1" d="M-155.02-1243.792a52.561,52.561,0,0,0-.572,14.179,50.734,50.734,0,0,0,5.176,17.545,55.879,55.879,0,0,0,6.406,9.465l1.25-2.451a4.038,4.038,0,0,0,.506-.727,12.38,12.38,0,0,1,2.213-2.287,1.048,1.048,0,0,0,.368-.245,1.626,1.626,0,0,1,.31-.245c.025,0,.515-.441,1.078-.98a13.788,13.788,0,0,1,1.1-.98,4.523,4.523,0,0,0,.694-.474c.572-.433,1.233-.9,1.8-1.258.123-.074.515-.286.874-.466s.792-.417.964-.531a1.6,1.6,0,0,1,.392-.212.887.887,0,0,0,.3-.114c.253-.122,1.25-.588,1.609-.743.139-.057.49-.213.792-.359a5.125,5.125,0,0,1,.613-.253,4.812,4.812,0,0,0,.6-.253c.653-.31.915-.425,1.388-.6.2-.074.482-.188.613-.245s.449-.188.694-.286.751-.327,1.127-.5a4.644,4.644,0,0,1,.776-.318,3.143,3.143,0,0,0,.588-.237c.27-.131.547-.261.613-.286a1.724,1.724,0,0,0,.245-.122,3.6,3.6,0,0,1,.49-.212c.2-.074.482-.188.613-.245a18.952,18.952,0,0,1,2.173-.858c.2,0,.294.163.351.653a6.271,6.271,0,0,0,.343,1.446,2.525,2.525,0,0,1,.114.817,1.4,1.4,0,0,0,.123.727.575.575,0,0,1,.123.286.361.361,0,0,0,.114.237.679.679,0,0,1,.147.392c.016.237.065.3.229.343.27.065.294.376.025.343-.253-.033-.237.041.074.335a2.708,2.708,0,0,1,.457.637,1.113,1.113,0,0,0,.613.6c.368.18.425.2.449.073.016-.073-.082-.245-.212-.392a1.225,1.225,0,0,1-.425-1.062c0-.278-.041-.474-.106-.515a1.542,1.542,0,0,1-.294-.376c-.147-.245-.221-.294-.351-.253a.245.245,0,0,1-.31-.261c0-.049.147-.155.335-.237a3.3,3.3,0,0,0,.694-.515c.278-.294.343-.408.31-.564a.485.485,0,0,1,.082-.384,1.855,1.855,0,0,0,.18-.661c.065-.555.31-.939,1.078-1.723a10.972,10.972,0,0,0,.784-.874,1.15,1.15,0,0,1,.417-.351,1.3,1.3,0,0,0,.678-.694,1.22,1.22,0,0,1,.4-.441.6.6,0,0,0,.27-.286,1.761,1.761,0,0,1,.351-.735c.033-.024.139.114.221.31.147.327.147.351.016.392-.3.1-.531.237-.572.359a1.049,1.049,0,0,1-.163.261c-.155.188-.065.392.18.392a.231.231,0,0,0,.245-.179c.033-.147.065-.163.147-.082s.041.155-.2.376l-.294.286.31.049a.637.637,0,0,0,.735-.286.3.3,0,0,1,.2-.163c.18,0,.539-.327.539-.49,0-.18.5-.49.784-.49.237,0,.253.106.033.327a.531.531,0,0,0,.008.686.522.522,0,0,1,.074.286c0,.188-.008.188-.147.065-.2-.18-.253-.172-.539.057l-.245.188.188.237.188.237-.2.024a2.365,2.365,0,0,0-.449.147c-.294.131-.564.147-.637.033-.09-.147-.662-.09-.89.09-.114.09-.212.2-.212.245,0,.122.245.082.294-.049.074-.2.229-.147.506.163.327.351.335.572.025.727a.7.7,0,0,0-.278.245,1.5,1.5,0,0,1-.98.457,1.114,1.114,0,0,0-.6.237,5.229,5.229,0,0,1-.67.408,1.127,1.127,0,0,0-.613,1,1.055,1.055,0,0,1-.18.482c-.082.065-.106.18-.065.376a.39.39,0,0,1-.123.441c-.155.147-.172.245-.172,1.184s.016,1.045.2,1.282c.261.359.3.506.172.678a.238.238,0,0,0,0,.319,3,3,0,0,1,.2.776,2.549,2.549,0,0,0,.278.874c.212.318.335.343.278.057-.033-.172-.008-.2.139-.18s.18.09.2.351a2.823,2.823,0,0,0,.4,1.143c.074.131.2.359.27.5s.286.482.474.768a2.67,2.67,0,0,1,.343.613.843.843,0,0,0,.2.343,3.074,3.074,0,0,1,.319.482,3.294,3.294,0,0,0,.645.678c.286.229.825.678,1.209,1a7.712,7.712,0,0,0,1.062.743c.433.2.547.327.988,1.07a6.767,6.767,0,0,0,.8,1.037,2.193,2.193,0,0,1,.694,1.209c.123.392.327.964.457,1.282a6.417,6.417,0,0,1,.278.776c.041.229.2.874.27,1.062.065.22.253-.147.319-.629a1.2,1.2,0,0,0-.049-.637c-.106-.2-.049-.613.082-.613.049,0,.082.147.082.327,0,.335.131.449.212.18a1.525,1.525,0,0,1,.123-.261c.041-.065.1-.18.131-.245a2.008,2.008,0,0,1,.286-.392,1.025,1.025,0,0,0,.229-.392,1.64,1.64,0,0,1,.245-.5,3.736,3.736,0,0,0,.359-.629,4.474,4.474,0,0,1,.49-.776,2.259,2.259,0,0,0,.376-.686,2.753,2.753,0,0,1,.637-.833,14.722,14.722,0,0,0,1.568-1.813,3.99,3.99,0,0,1,.5-.637,4.311,4.311,0,0,0,.972-1.389,15.8,15.8,0,0,1,.343-1.674,30.326,30.326,0,0,0,.229-3.316c0-.384.131-.531.417-.506.188.025.2-.008.221-.449s.016-.466-.188-.466a.309.309,0,0,0-.294.18,2.193,2.193,0,0,1-.523.515,1.736,1.736,0,0,0-.449.417c0,.147-.457.531-.866.727a4.424,4.424,0,0,0-.882.645,3.357,3.357,0,0,1-.531.457,1.9,1.9,0,0,0-.327.245.9.9,0,0,1-.457.245,1.416,1.416,0,0,0-.572.319,3.068,3.068,0,0,1-1.511.653,2.078,2.078,0,0,0-.572.171,2.677,2.677,0,0,1-1.021.123,2.912,2.912,0,0,0-1,.106,2.2,2.2,0,0,1-.711.1c-.547,0-.719.114-.31.212a1.228,1.228,0,0,1,.441.286c.221.237.392.3.392.155a.077.077,0,0,0-.082-.082c-.041,0-.082-.073-.082-.163,0-.2.212-.212.261-.016.065.237.572.286,1.013.09.433-.18.89-.212.686-.049a2.2,2.2,0,0,0-.49.7c0,.049-.1.147-.221.229a3.438,3.438,0,0,0-.474.359.916.916,0,0,1-1.021.229c-.245-.049-.613-.106-.817-.139-.4-.065-.506-.261-.188-.343.229-.057.547-.457.482-.613-.033-.1-.163-.122-.5-.106-.547.025-.694-.1-.751-.621-.057-.449-.188-.588-.433-.458-.139.074-.27.065-.6-.049a8.48,8.48,0,0,1-1.307-.49,1.094,1.094,0,0,0-.343-.114,5.368,5.368,0,0,1-1.552-.858c-.359-.253-.76-.523-.882-.6-.212-.131-.229-.163-.2-.588a2.813,2.813,0,0,1,.1-.629c.041-.131-.016-.245-.278-.523l-.335-.359.008-.76a2.939,2.939,0,0,1,.082-.8,1.3,1.3,0,0,0,.074-.563c0-.466.025-.547.253-.792a1.885,1.885,0,0,0,.327-.466c.065-.155.114-.18.3-.131a3.392,3.392,0,0,0,.588.074l.368.008-.024.384c-.016.3.008.4.139.49.188.131.155.474-.041.474-.065,0-.114.041-.114.082s-.1.123-.212.164c-.155.065-.2.13-.172.245.024.082.008.163-.041.18a1.167,1.167,0,0,0-.082.523c-.008.449-.025.506-.237.629-.245.139-.31.343-.131.4a.84.84,0,0,0,.751-.294c.114-.171.114-.253.016-.686l-.114-.5.229-.221a.753.753,0,0,0,.237-.368.27.27,0,0,1,.106-.212.637.637,0,0,0,.18-.3.969.969,0,0,1,.49-.466c.425-.237.76-.694.613-.841-.114-.114-.1-.212.041-.212a.118.118,0,0,1,.123.106.607.607,0,0,0,.2.3.606.606,0,0,1,.2.335c0,.155.286.294.858.392a5.814,5.814,0,0,1,.588.131c.155.049.188.016.229-.237a.72.72,0,0,1,.727-.572c.245-.008.253.008.294.351.049.408.188.515.327.253.09-.163.139-.172.523-.131a1.83,1.83,0,0,0,.653-.025l.221-.09-.221-.286c-.2-.27-.253-.294-.637-.286a12.718,12.718,0,0,1-2.769-.2,1.812,1.812,0,0,0-.645-.123c-.261,0-.392-.033-.392-.106.008-.131.523-.384.8-.384.261,0,.425-.131.425-.343a.224.224,0,0,1,.188-.188c.221-.057,3.381.033,4.035.106.057.008.131.163.155.343l.049.319.343-.041a.641.641,0,0,1,.49.073c.221.163.09.3-.278.3-.172,0-.343.033-.368.082a.488.488,0,0,1-.31.082.9.9,0,0,0-.384.082c-.106.065-.1.082.016.082a.342.342,0,0,1,.245.163c.057.09.147.163.2.163.2,0,.6.572.6.858a.5.5,0,0,0,.212.441c.286.229.319.22.515-.114l.172-.294-.163-.3a1.354,1.354,0,0,1-.163-.441c0-.18.31-.261.7-.188.3.057.6-.106.6-.327,0-.106.245-.2.523-.2a2.5,2.5,0,0,1,1.086.547c.147.131.449.359.67.515a1.281,1.281,0,0,1,.417.376.181.181,0,0,0,.131.147c.114.041.131.131.09.5a1.062,1.062,0,0,0,.016.482,2.257,2.257,0,0,0,.474.1c.384.049.417.041.474-.139.049-.147.016-.229-.172-.376a2.779,2.779,0,0,1-.956-1.1,3.985,3.985,0,0,0-.506-.776.864.864,0,0,1-.286-.555,1.636,1.636,0,0,0-.76-.98c-.31-.2-.278-.351.09-.384.245-.016.31-.057.327-.212.033-.245-.278-.5-.613-.507a.547.547,0,0,0-.457.237l-.2.237-1.217.016c-4.5.057-4.7.049-4.917-.114-.188-.147-.261-.155-1.111-.073-.784.082-.923.073-1.045-.033-.286-.261-.1-.31,1.119-.31a3.55,3.55,0,0,1,1.274.1c.172.172.359.123.547-.139.188-.245.188-.245.956-.253a2.457,2.457,0,0,1,.425.057c.212.041.27.016.351-.139.147-.278.147-.278.335-.114a1.454,1.454,0,0,0,.784.212c.539.057.645.041.735-.073.1-.131.1-.131.106,0,0,.082-.041.147-.09.147s-.073.1-.057.22c.016.188.057.22.229.2a2.871,2.871,0,0,1,.907.025c.351.057.392.041.441-.123a.64.64,0,0,1,.335-.294c.335-.139.351-.229.065-.417-.2-.131-.229-.131-.531.041-.768.441-1.258-.025-.776-.743l.2-.294-.2-.131c-.2-.131-.261-.4-.1-.5.057-.033.147.016.212.115.147.229.31.229.425.008.139-.253.041-.425-.2-.368-.114.025-.221.025-.237-.008-.082-.139.114-.449.392-.6.229-.139.286-.221.286-.433a1.722,1.722,0,0,0-.163-.6,3.782,3.782,0,0,1-.253-.743,1.265,1.265,0,0,0-.2-.506c-.131-.106-.155-.646-.033-.646.041,0,.106.1.131.221a1.758,1.758,0,0,0,.253.49,2.691,2.691,0,0,1,.515,1,.7.7,0,0,0,.114.294,2.072,2.072,0,0,1,.147.833c.016.531-.008.686-.123.808a.591.591,0,0,0-.139.245c0,.049-.082.147-.18.212l-.188.131h.229a1.226,1.226,0,0,0,.555-.2c.278-.172.327-.237.286-.4-.024-.106-.016-.221.033-.245.123-.073.466.212.58.482a2.1,2.1,0,0,0,.335.49,1.616,1.616,0,0,1,.319.58c.221.858.474,1.348.694,1.348.155,0,.506.515.67,1.013s.515.923.784.964c.2.032.351.31.474.915.09.4.082.466-.049.612-.114.131-.139.245-.1.555.025.212.057.482.065.6.033.27.27.31.4.065a.673.673,0,0,1,.2-.253,2.249,2.249,0,0,0,.172-1.829,3.705,3.705,0,0,1-.3-1.209c0-.343.3-.359.449-.016a.711.711,0,0,0,.27.27c.327.163.368.245.433.907.033.351.147,1.021.237,1.495s.2,1.078.221,1.348a2.115,2.115,0,0,0,.147.694,3.259,3.259,0,0,1,.172.735l.065.531.074-.408a3.051,3.051,0,0,0-.049-1.062c-.074-.359-.188-1.094-.253-1.633s-.172-1.217-.221-1.511-.114-.735-.155-.988a5.3,5.3,0,0,0-.155-.743,2.793,2.793,0,0,1,.033-1.682c.147-.319.188-.343.408-.319a3.319,3.319,0,0,1,.49.123,22.579,22.579,0,0,0,2.246.58,2.066,2.066,0,0,1,.449.147c.09.041.286.139.433.212a1.353,1.353,0,0,0,.417.139.608.608,0,0,1,.294.114,1.348,1.348,0,0,0,.368.155,3.841,3.841,0,0,1,.449.131c.327.122,2.14.735,2.45.825l.653.2c.229.065.613.2.858.294s.539.2.653.245.408.147.653.245.564.212.694.245.392.123.572.2c.474.18,1.584.588,1.919.71a23.088,23.088,0,0,1,2.556,1.045,4.388,4.388,0,0,0,.629.253,9.013,9.013,0,0,1,1.388.727c.155.09.343.2.408.229.106.049.645.408,1.429.956a21.5,21.5,0,0,1,3.5,3.218,1.287,1.287,0,0,0,.417.425c.155.1.286.2.286.245a2.839,2.839,0,0,0,.368.506,2.2,2.2,0,0,1,.368.539,2.467,2.467,0,0,0,.49.588,11.741,11.741,0,0,1,1.189,1.664l.66,1.21a46.348,46.348,0,0,0,7.8-13.369c2.9-7.861,2.948-8.392,3.335-17.7s-2.465-16.941-6.718-24.77a45.193,45.193,0,0,0-14.982-15.9,45.673,45.673,0,0,0-18.452-7.631c-7-1.03-10.513-1.208-18.2.178a48.109,48.109,0,0,0-18.7,8.064c-4.6,3.2-8.179,6.777-12.668,13.183S-154.334-1246.957-155.02-1243.792Zm44.6-23.171,1.1.073.686.457a5.475,5.475,0,0,0,.9.515,1.151,1.151,0,0,1,.433.253,1.774,1.774,0,0,0,1.045.417,4.215,4.215,0,0,0,1.143-.294,4.9,4.9,0,0,1,.678-.2,2.211,2.211,0,0,1,1.184.049,14.753,14.753,0,0,0,3.218.278,4.6,4.6,0,0,1,1.331.1.977.977,0,0,0,.229.163,2.645,2.645,0,0,1,.3.147,3.257,3.257,0,0,0,.874.335,4.692,4.692,0,0,1,.833.343,6.007,6.007,0,0,0,.988.4,3.024,3.024,0,0,1,2.026,1.046,8.443,8.443,0,0,0,1.111.874c.751.351,1.356.825,1.356,1.078a1.539,1.539,0,0,0,.425.433,8.885,8.885,0,0,1,2.271,2.352c0,.131.286.253.572.253a1.15,1.15,0,0,1,1.143,1.054,1.215,1.215,0,0,0,.245.6,1.191,1.191,0,0,1,.245.482.862.862,0,0,0,.253.408,2.229,2.229,0,0,1,.408.613,1.945,1.945,0,0,0,.359.531.676.676,0,0,1,.2.6,3.343,3.343,0,0,0,.555,1.87.958.958,0,0,1,.261.515,1.587,1.587,0,0,0,.212.58c.212.359.221.4.172,1.323-.033.841-.025.972.114,1.152.163.212.212.841.074.931s-.082.318.163.645a1.173,1.173,0,0,1,.245.474c0,.253-.155.474-.335.474a.962.962,0,0,0-.327.082c-.139.073-.155.18-.155.858a3.136,3.136,0,0,0,.131,1.094c.1.245.106.359.041.49a.5.5,0,0,0-.074.229,18.921,18.921,0,0,1-.433,2.344,2.658,2.658,0,0,0-.074.629,2.34,2.34,0,0,1-.58,1.478.8.8,0,0,0-.237.3,4.116,4.116,0,0,1-.368.71,5.972,5.972,0,0,0-.368.662,1.808,1.808,0,0,1-.245.351,1.335,1.335,0,0,0-.245.408,2.963,2.963,0,0,1-.6.89.4.4,0,0,0-.131.261,3.256,3.256,0,0,1-.368,1.013c-.057.13-.131.3-.155.367a7.176,7.176,0,0,1-.6.964,4.217,4.217,0,0,0-.343.572,3.789,3.789,0,0,1-.376.506l-.719.9c-1.078,1.348-2.254,2.369-2.736,2.369-.3,0-.482.237-.539.694a1.132,1.132,0,0,1-.172.539.309.309,0,0,0-.114.2,2.661,2.661,0,0,1-.588.948,2.323,2.323,0,0,1-1,.555.219.219,0,0,0-.163.122c-.057.155-.212.155-.212,0a.126.126,0,0,1,.123-.122c.065,0,.123-.033.123-.065a1.982,1.982,0,0,1,.368-.457,1.625,1.625,0,0,0,.368-.515.9.9,0,0,1,.114-.335c.057-.123.3-.6.531-1.078s.5-.972.58-1.1a4.828,4.828,0,0,0,.735-2.516c.074-.988.033-1.233-.3-1.683a3.029,3.029,0,0,0-.907-.825.35.35,0,0,1-.18-.123.373.373,0,0,0-.245-.123,1.357,1.357,0,0,1-.474-.245,1.567,1.567,0,0,0-.425-.245,6.373,6.373,0,0,1-1.633-1.927,1.184,1.184,0,0,0-.18-.425,2.167,2.167,0,0,1-.229-1,1.843,1.843,0,0,0-.188-.874.777.777,0,0,1-.139-.474,1.5,1.5,0,0,0-.123-.555,1.083,1.083,0,0,1-.123-.384.237.237,0,0,0-.074-.188A3.739,3.739,0,0,1-97.8-1241a7.1,7.1,0,0,0-.49-.849,16.19,16.19,0,0,0-3.226-2.115,5.642,5.642,0,0,0-1.4-.368,2.434,2.434,0,0,1-.564-.114,10.822,10.822,0,0,0-1.176-.245c-.449-.073-1-.171-1.225-.212s-.809-.123-1.3-.163a6.057,6.057,0,0,1-1.037-.163,1.121,1.121,0,0,0-.457-.082,2.32,2.32,0,0,1-.588-.082,1.291,1.291,0,0,0-.613,0c-.457.1-1.258.253-1.56.3a2.172,2.172,0,0,0-.531.163,21.707,21.707,0,0,1-2.573.964c-.743.212-.809.261-1.593,1.07a5.443,5.443,0,0,0-1.47,2.483c-.212.523-.531.98-.694.98a5.986,5.986,0,0,0-1.209,1.576,1.642,1.642,0,0,0-.139.466,7.35,7.35,0,0,1-1.83,3.21,2.558,2.558,0,0,1-.482.188.514.514,0,0,0-.27.123.244.244,0,0,1-.2.073.2.2,0,0,0-.188.114.343.343,0,0,1-.237.147,2.195,2.195,0,0,0-.327.106c-.114.041-.147.016-.147-.114,0-.2.327-.359.539-.278.1.033.123.016.1-.065-.016-.065-.155-.123-.3-.139-.212-.024-.278.008-.31.139-.025.1-.074.172-.106.172-.1,0-.163.6-.074.7.123.155-.057.441-.278.441a.92.92,0,0,0-.466.245,1.1,1.1,0,0,1-.49.245c-.212,0-.653.343-.653.5,0,.057-.114.065-.319.033-.18-.033-.343-.016-.368.025a.932.932,0,0,0,.229.474c.147.22.327.515.4.661.131.245.131.278-.008.506-.139.253-.384.335-.441.155a.086.086,0,0,0-.131-.033c-.139.082-.123.212.024.212.065,0,.139.114.172.294.041.221.2.449.637.882a7.991,7.991,0,0,1,1.356,1.674,1.713,1.713,0,0,0,.5.751c.2.106.2.237-.016.237a2.518,2.518,0,0,1-1.135-.613c-.245-.188-.555-.4-.694-.49a10.548,10.548,0,0,1-1.576-1.658,3.492,3.492,0,0,0-.368-.433,2.339,2.339,0,0,1-.376-.6c-.049-.09-.212-.384-.368-.653a5.135,5.135,0,0,1-.751-1.756,3.921,3.921,0,0,0-.351-.939,6.57,6.57,0,0,1-.368-.653c-.082-.18-.212-.441-.278-.572a4.771,4.771,0,0,0-.629-.776,5.348,5.348,0,0,1-.613-.735,3.617,3.617,0,0,0-.327-.49,2.863,2.863,0,0,1-.49-1.544,5.173,5.173,0,0,0-.131-.964,6.812,6.812,0,0,1,.033-2.4,4,4,0,0,1,1.527-2.148c.792-.572,1.266-1.192.9-1.192a3,3,0,0,0-1.348.931.665.665,0,0,1-.482.457c-.221,0-.286-.278-.221-.849a1.577,1.577,0,0,1,.506-.972c.425-.506.474-.547.784-.547a1.381,1.381,0,0,1,.784.3,2.5,2.5,0,0,1,.49.376.831.831,0,0,0,.261.18c.2.106.27.1.662-.033a1.708,1.708,0,0,0,.6-.368.546.546,0,0,1,.319-.212c.221,0,.621-.318.621-.5,0-.22-.188-.27-.506-.13a2.615,2.615,0,0,1-1.086.237,3.8,3.8,0,0,1-1.486-.237,1.332,1.332,0,0,0-1.045.041,4.088,4.088,0,0,1-.457.139,2.446,2.446,0,0,0-1.233,1.8c-.016.5.2.98.474,1.046.253.065.253.27-.008.392a.352.352,0,0,1-.408-.049.807.807,0,0,1-.261-.278,3.02,3.02,0,0,0-.286-.457c-.221-.3-.229-.359-.229-1.282a6.392,6.392,0,0,0-.082-1.184,6.647,6.647,0,0,1,.212-2.262,4.149,4.149,0,0,0,.114-1.184c.008-.482.041-1.135.082-1.446s.106-.76.131-.98a4.981,4.981,0,0,1,.653-1.756,3.237,3.237,0,0,0,.237-.531,7.5,7.5,0,0,1,.686-1.2c.294-.441.6-.939.686-1.1a1.848,1.848,0,0,1,.972-.939.993.993,0,0,0,.686-.849,2.355,2.355,0,0,1,.678-1.25,1.252,1.252,0,0,0,.335-.506,2.59,2.59,0,0,1,.539-1.184,2.409,2.409,0,0,1,1.535-.776c.751-.115.858-.147,1.021-.311.139-.139,1.446-1.151,2.124-1.658a4.806,4.806,0,0,1,1.6-.6,11.141,11.141,0,0,0,1.552-.6c.27-.131.645-.286.841-.359s.5-.188.694-.261.466-.18.613-.245a1.424,1.424,0,0,1,.466-.114,2.788,2.788,0,0,0,.939-.335,5.262,5.262,0,0,1,1.429-.515,10.244,10.244,0,0,0,1.225-.376,1.916,1.916,0,0,1,.98-.2C-111.7-1267.053-111.022-1267-110.417-1266.963Zm1.307,22.542a9.29,9.29,0,0,0,1.209.09c.719,0,.882.025,1.054.163.27.2.408.2.474,0,.09-.286.327-.351.964-.245,2.524.392,3.994.841,4.231,1.282.09.163.082.2-.057.3-.155.114-.155.122.016.351a5.973,5.973,0,0,0,1.307,1.086c.147,0,.506.318.637.555.31.572.376.776.286.882a3.718,3.718,0,0,0,.082,1.568,1.19,1.19,0,0,1,0,.891,1.232,1.232,0,0,0-.188.286c-.09.18-.139.188-.825.172a2.379,2.379,0,0,1-.809-.106.534.534,0,0,0-.3-.082.432.432,0,0,1-.31-.114c-.139-.163-1.315-.163-1.315,0,0,.09.139.114.555.106a1.779,1.779,0,0,1,.817.123,1.111,1.111,0,0,0,.368.131.357.357,0,0,1,.221.122.393.393,0,0,0,.253.123.141.141,0,0,1,.155.122c0,.163-1,.172-1.47,0-.3-.106-.368-.106-.588.008a.693.693,0,0,1-.506.073,6.3,6.3,0,0,0-.784-.082,2.221,2.221,0,0,1-1.127-.229,3.827,3.827,0,0,0-1.16-.269c-.253-.033-.327,0-.6.286-.286.3-.359.335-.711.335-.31,0-.417.033-.515.18a.692.692,0,0,0-.131.343c0,.245.327.7.5.7.237,0,.278.212.114.572a3.557,3.557,0,0,0-.147,1.446,4.357,4.357,0,0,0,.253,1.895,2.519,2.519,0,0,1,.139,1.805,6.265,6.265,0,0,0-.123,1.731c0,1.511.041,1.707.5,2.287a1.232,1.232,0,0,1,.082,1.454.654.654,0,0,0-.131.588c.057.31.041.343-.286.645l-.343.318h-.76a1.844,1.844,0,0,1-1.143-.212,2.792,2.792,0,0,1-.678-.612,1.2,1.2,0,0,0-.425-.408,1.126,1.126,0,0,0-.711.139c-.106.065-.2.082-.229.033-.082-.131.139-.384.425-.482.384-.139,1.143.025,1.217.27a1.858,1.858,0,0,0,1.511,1.013c.253-.024.278-.049.261-.269-.025-.335-.343-.572-1.045-.784a4.8,4.8,0,0,1-.694-.245,1.523,1.523,0,0,0-.261-.123c-.155-.057-.188-.139-.27-.653-.049-.335.008-.539.408-1.462a2.553,2.553,0,0,0,.294-1.356,3.742,3.742,0,0,1-.131-.506,1.079,1.079,0,0,0-.286-.547.7.7,0,0,1-.155-.874,4.927,4.927,0,0,0,.155-.8c.033-.319.131-.849.2-1.184a4.243,4.243,0,0,0,.139-.8c-.074-1.013-.057-1.152.147-1.364a2.378,2.378,0,0,1,.6-.417c.359-.188.384-.22.384-.506a.907.907,0,0,0-.286-.653l-.294-.335-.278.131c-.343.163-.457.09-.686-.425-.188-.417-.327-.531-.392-.294a1.274,1.274,0,0,1-.441.425c-.327.212-.425.237-.523.155a.459.459,0,0,1-.106-.335c.016-.245-.212-.563-.4-.563a1.532,1.532,0,0,0-.449.172.6.6,0,0,1-.694.033c-.376-.147-.441-.139-2.311.123-.6.082-.849.024-1.054-.253-.1-.131-.221-.237-.27-.237-.18,0-.392-.278-.392-.515a.952.952,0,0,1,.425-.76c.229-.065.515-.515.4-.629a1.558,1.558,0,0,1,.065-1.184,1.082,1.082,0,0,1,.809-.588.394.394,0,0,0,.261-.123.612.612,0,0,1,.425-.122,2.338,2.338,0,0,0,1.127-.327c0-.123-.229-.147-.384-.041a3.127,3.127,0,0,1-1.135.139l-.972.025-.024-.457c-.016-.335.008-.482.106-.564a.352.352,0,0,0,.123-.2,7.787,7.787,0,0,1,1.388-1.274,12.232,12.232,0,0,1,3.1-1.062A4.781,4.781,0,0,1-109.11-1244.421Zm8.8,1.944a.5.5,0,0,0,.139.2c.057.041.057.065-.016.065-.139,0-.506-.245-.506-.335C-100.7-1242.681-100.363-1242.616-100.314-1242.477Zm.809.49c.2.27.139.376-.131.212-.253-.147-.286-.2-.188-.294S-99.62-1242.134-99.505-1241.987Zm.931,1.568c0,.131.041.253.09.27s.123.2.155.392a10.024,10.024,0,0,0,.286,1.021c.123.359.327.964.457,1.348a3.671,3.671,0,0,1,.237,1.348,7.432,7.432,0,0,0,.123,1.184,5.185,5.185,0,0,1,.123.9,1.045,1.045,0,0,0,.123.523.617.617,0,0,1,.123.278,1.087,1.087,0,0,0,.212.384,2.481,2.481,0,0,1,.523,1.078.827.827,0,0,0,.131.392c.147.229.123.49-.049.49-.082,0-.163-.18-.261-.539a3.544,3.544,0,0,0-.343-.874,1.545,1.545,0,0,1-.212-.457.179.179,0,0,0-.065-.147,1.906,1.906,0,0,1-.425-1,2.336,2.336,0,0,0-.114-.629,5.7,5.7,0,0,1-.155-1.086,4.7,4.7,0,0,0-.335-1.617c-.074-.212-.18-.539-.245-.735a7.393,7.393,0,0,1-.376-1.879c0-.286-.033-.384-.123-.384-.123,0-.172-.327-.065-.433C-98.648-1240.721-98.574-1240.648-98.574-1240.419Zm-19.194,1.756c0,.123-.237.245-.319.163-.025-.024.024-.1.106-.163C-117.784-1238.8-117.768-1238.8-117.768-1238.663Zm-.408.515a2.552,2.552,0,0,1-.237.637,3.931,3.931,0,0,0-.5,1.47,8,8,0,0,1-.335,1.593,1.519,1.519,0,0,0-.123.261.25.25,0,0,1-.245.147c-.253,0-.245-.09.008-.327.172-.163.2-.261.2-.686a5.928,5.928,0,0,1,.931-3.055C-118.282-1238.32-118.176-1238.336-118.176-1238.148Zm13.125,1.862c.074.2-.033.237-.139.049-.057-.123-.057-.172,0-.172S-105.084-1236.352-105.051-1236.286Zm-1.4.115c.057.1-.1.2-.2.131-.09-.057-.033-.2.082-.2A.18.18,0,0,1-106.456-1236.172Zm7.171.155c.2.212.294.506.163.506a2.643,2.643,0,0,1-.678-.67C-99.8-1236.327-99.489-1236.229-99.285-1236.017Zm-12.978.229a.191.191,0,0,1,.131.155c0,.155-.4.449-.613.449-.31,0-.3-.212.024-.441.163-.114.31-.212.319-.212S-112.336-1235.812-112.263-1235.788Zm-1.258.645c0,.057.082.155.18.22.31.2.139.359-.482.425a8.984,8.984,0,0,1-2.418-.025c-.163-.163.1-.253.776-.253a1.641,1.641,0,0,0,1.25-.327C-113.945-1235.347-113.521-1235.372-113.521-1235.143Zm-3.43,0c0,.065-.033.123-.065.123a2.906,2.906,0,0,0-.539.457c-.261.245-.5.425-.531.392s0-.074.057-.09.1-.073.1-.106a3.27,3.27,0,0,1,.882-.89C-117-1235.265-116.951-1235.208-116.951-1235.143Zm4.786,1.331c.384.278.482.4.564.67a.672.672,0,0,0,.2.3c.1.073.106.123.041.188s-.163.016-.359-.237a1.318,1.318,0,0,0-.441-.384c-.457-.147-.792-.6-.515-.711C-112.516-1234.057-112.492-1234.048-112.165-1233.812Zm-1,.368c.425.4.482.67.2.923a2.729,2.729,0,0,1-.988.359c-.131,0-.057-.155.188-.392.335-.327.278-.506-.172-.506-.417,0-.425-.147-.016-.482a2.24,2.24,0,0,1,.351-.253A2.663,2.663,0,0,1-113.161-1233.444Zm12.423.172c.155.114.155.122.008.286a.51.51,0,0,1-.294.172.374.374,0,0,0-.245.123c-.131.155-.408.163-.408.008a.216.216,0,0,1,.163-.172c.09-.024.163-.09.163-.131a.847.847,0,0,1,.392-.4A.511.511,0,0,1-100.739-1233.272Zm-3.952.384c.163.319.478.323.29.323-.155,0-.871-.2-.871-.314a.816.816,0,0,1,.441-.517C-104.773-1233.4-104.821-1233.067-104.691-1232.889Zm-11,.294c.27.384.253.506-.049.335-.351-.2-.474-.335-.474-.531C-116.216-1233.093-115.979-1233-115.693-1232.595Zm22.51-.057a1.136,1.136,0,0,0,.237.343,1.23,1.23,0,0,1,.286,1c-.082.213-.188.147-.245-.155a.891.891,0,0,0-.286-.482.623.623,0,0,1-.253-.645C-93.429-1232.733-93.184-1232.8-93.184-1232.652Zm-26.953.147c0,.106-.1.18-.18.131s-.008-.2.106-.2A.072.072,0,0,1-120.136-1232.5Zm9.335.057c.008.041-.049.09-.123.106-.09.016-.147-.025-.147-.106C-111.071-1232.586-110.826-1232.595-110.8-1232.448Zm6.052.237a2.586,2.586,0,0,0,.547.131c.074,0,.4.082.783.135s.27.01.761.078a2.512,2.512,0,0,0,.711,0c.19,0,.024-.008,1.037-.008.711,0,1.054-.033,1.119-.106a.974.974,0,0,1,.474-.1.8.8,0,0,1,.653.245c.253.22.327.245.866.245h.6l.172.351a1.847,1.847,0,0,1,.172.7,7.643,7.643,0,0,1-.376,1.8,1.386,1.386,0,0,0-.041.776,1.718,1.718,0,0,1-.564,1.658,10.773,10.773,0,0,0-.719.866,1.15,1.15,0,0,1-.49.433,4.318,4.318,0,0,0-.686.286,2.3,2.3,0,0,1-.751.229.574.574,0,0,0-.319.057,1.418,1.418,0,0,0,.114.515,2.923,2.923,0,0,1,.147.678,1.382,1.382,0,0,0,.147.49,2.294,2.294,0,0,1,.155.71,2.043,2.043,0,0,0,.506,1.4c.555.727.58.907.245,1.691l-.155.368-.188-.2a2.5,2.5,0,0,1-.343-.564,4.336,4.336,0,0,0-.368-.694,12.152,12.152,0,0,1-.817-1.666,2.082,2.082,0,0,0-.286-.49,2.738,2.738,0,0,1-.6-1.282.866.866,0,0,0-.229-.539,2.524,2.524,0,0,1-.384-.67,4.111,4.111,0,0,0-.368-.735c-.123-.188-.351-.539-.515-.784a6.946,6.946,0,0,0-.613-.776.951.951,0,0,0-.8-.367c-.449-.041-.482-.057-.727-.408a4.219,4.219,0,0,1-.531-1.527c0-.172.253-.351.482-.351a1.723,1.723,0,0,1,1.1.841,1.091,1.091,0,0,0,.564.506c.188.073.441.188.564.253.245.13.474.147.474.033a11.337,11.337,0,0,0-1.241-1.756,5.455,5.455,0,0,1-.482-.653,9.753,9.753,0,0,0-.653-1.037c-.4-.6-.433-.76-.18-.964.188-.147.229-.147.425-.049A3.629,3.629,0,0,0-104.749-1232.211Zm-6.444.343c.212.2.221.237.18.67a2.713,2.713,0,0,1-.441,1.184,5.929,5.929,0,0,0-.384.833,6.653,6.653,0,0,1-.384.808c-.131.147-.074.31.212.637.261.278.286.351.237.621a3.3,3.3,0,0,1-.368,1c-.041.065-.1.18-.131.245a.562.562,0,0,1-.106.163,2.281,2.281,0,0,0-.449.98,1.339,1.339,0,0,1-.147.474c-.057.073-.049.2.025.425a1.555,1.555,0,0,1-.27,1.3,11.934,11.934,0,0,1-1.576,1.642,2.206,2.206,0,0,0-.425.678c-.425.931-.923,1.168-.98.466-.09-1.037-.082-1.086.392-1.535l.433-.417-.049-.555c-.049-.6.025-.5-1.143-1.552a1.471,1.471,0,0,1-.417-.7,2.6,2.6,0,0,0-.294-.653.754.754,0,0,1-.163-.31.4.4,0,0,0-.114-.229,3.571,3.571,0,0,1-.335-1.4,1.276,1.276,0,0,0-.4-.939,2.477,2.477,0,0,1-.67-1.446c-.049-.425-.041-.441.261-.735.294-.278.31-.31.221-.539a.363.363,0,0,1,.033-.417c.163-.229.468.059.678.131s.065.094.327.065,0,.1.392-.025.09-.131.833.025a4.58,4.58,0,0,0,2.173.008.6.6,0,0,1,.3-.122,1.719,1.719,0,0,0,.89-.49,1.294,1.294,0,0,1,.474-.294c.114-.025.294-.082.408-.114A.643.643,0,0,1-111.193-1231.868Zm-2.867.188c.074.123-.131.237-.539.294a2.3,2.3,0,0,1-1.339-.294,2.6,2.6,0,0,1,.9-.073A3.615,3.615,0,0,1-114.06-1231.68Zm20.231.1a13.167,13.167,0,0,1-.106,2.973,6.093,6.093,0,0,1-.751,2.45,3.617,3.617,0,0,0-.359.588c-.147.286-.221.343-.506.392-.376.065-.408.18-.123.433.172.147.2.212.123.343-.3.563-.76-.049-.588-.792.041-.2.163-.335.466-.531a1.739,1.739,0,0,0,.5-.457,1.827,1.827,0,0,1,.31-.417c.212-.22.212-.22.425-1.813a.715.715,0,0,0-.082-.572,1.6,1.6,0,0,1,.131-1.331,1.522,1.522,0,0,0,.2-.735,5.034,5.034,0,0,1,.065-.6C-94.074-1231.8-93.935-1231.77-93.829-1231.582Zm-26.814.572c-.008.106-.057.188-.106.18-.106-.024-.147-.245-.09-.408C-120.757-1231.435-120.6-1231.247-120.643-1231.01Zm24.723.408c.074.106-.024.482-.114.482-.041,0-.09-.073-.114-.172C-96.23-1230.585-96.051-1230.822-95.92-1230.6Zm-27.4.212a.522.522,0,0,1-.082.27c-.065.1-.082.1-.131-.024-.057-.163.008-.384.131-.384C-123.363-1230.528-123.322-1230.463-123.322-1230.389Zm0,.776c0,.082-.041.147-.082.147-.123,0-.188-.221-.131-.384.049-.123.065-.123.131-.024A.516.516,0,0,1-123.322-1229.614Zm27.189.368c.008.188-.025.368-.074.392s-.082-.163-.074-.547C-96.271-1230.038-96.149-1229.907-96.132-1229.246Zm-26.953,1.291a2.911,2.911,0,0,0,.131,1.1c.139.237.163.735.041.735-.049,0-.106-.065-.131-.147s-.1-.253-.163-.4a8.865,8.865,0,0,1-.057-2.475l.057-.2.057.245A9.076,9.076,0,0,1-123.085-1227.955Zm26.471,1.511a1.75,1.75,0,0,1-.114.588,2.79,2.79,0,0,0-.392,1.544c.008.31-.016.563-.057.563a3.1,3.1,0,0,1-.31-.049l-.245-.049.188-.2c.163-.172.2-.3.2-.686a1.175,1.175,0,0,1,.074-.523.643.643,0,0,0,.139-.31,3.032,3.032,0,0,1,.163-.506,3.552,3.552,0,0,0,.155-.474C-96.753-1226.885-96.614-1226.82-96.614-1226.445Zm-25.107,1.274c.1.147.114.229.049.294-.1.1-.359-.114-.449-.368C-122.2-1225.473-121.876-1225.415-121.721-1225.17Zm16.792-.073a3.687,3.687,0,0,1,.547,1.225c.1.457-.041.6-.425.433a1.879,1.879,0,0,0-1.364-.041c-.1.082-.163.106-.2.049-.024-.049.033-.163.139-.253.662-.58.694-.621.751-1a.751.751,0,0,1,.2-.466C-105.1-1225.407-105.067-1225.407-104.929-1225.244Zm-6.019.449c-.016.474-.188.809-.441.89-.057.025-.123.212-.155.433-.082.547-.221.563-.253.033-.065-1.192-.049-1.446.139-1.642a.6.6,0,0,1,.457-.188h.27Zm-10.414.792c0,.278-.074.359-.212.245-.074-.065-.082-.147-.016-.327C-121.492-1224.37-121.362-1224.321-121.362-1224Zm2.205,1.176a.434.434,0,0,0,.074.261,3.8,3.8,0,0,1,.114.915c.033.662.016.858-.074.931-.065.057-.147.073-.18.041-.229-.229-.278-2.336-.049-2.336C-119.205-1223.014-119.156-1222.932-119.156-1222.826Zm21.595.441c-.147.237-.278.221-.278-.041,0-.3.082-.376.237-.221A.174.174,0,0,1-97.562-1222.385Zm-7.955.229c0,.155-.286.449-.4.417-.229-.074-.5.229-.5.555,0,.368.123.441.384.2l.2-.2.2.245a.949.949,0,0,1,.2.335.352.352,0,0,0,.123.2.351.351,0,0,1-.082.588c-.139.065-.229.065-.3,0s-.229-.065-.506,0c-.384.082-.392.082-.662-.212-.294-.319-.417-.359-.662-.172a.647.647,0,0,1-.343.122c-.155,0-.188-.041-.163-.18.033-.237.343-.392.809-.392s.564-.106.564-.547c0-.319.033-.367.433-.67C-105.86-1222.148-105.517-1222.287-105.517-1222.156Zm-3.733.563c.172.131.163.547,0,.6-.09.033-.351-.449-.351-.637C-109.6-1221.74-109.421-1221.716-109.249-1221.593Zm10.626.964c-.065.229-.114.27-.319.27-.351,0-.392-.359-.074-.6.2-.155.237-.163.343-.057S-98.566-1220.833-98.623-1220.629Zm-10.389.392c-.049.457-.172.539-.384.27-.172-.2-.172-.237-.057-.416a.313.313,0,0,1,.294-.163C-109.012-1220.523-109-1220.474-109.012-1220.237Zm-9.834.384c.229.082.506.367.506.531,0,.212-.237.18-.327-.049a.481.481,0,0,0-.237-.253c-.139-.041-.172-.114-.163-.392.016-.253.025-.286.049-.114A.376.376,0,0,0-118.846-1219.853Zm1.593-.408a.284.284,0,0,1-.016.212c-.049.123-.074.131-.2.033-.09-.065-.131-.155-.1-.2C-117.506-1220.327-117.3-1220.352-117.253-1220.262Zm18.369.776a1.134,1.134,0,0,1-.253.833c-.155.1-.188-.286-.041-.449a.738.738,0,0,0,.139-.4C-99.04-1219.829-98.926-1219.812-98.885-1219.486Zm-18.311.4c0,.253-.2.4-.335.261-.1-.1.147-.621.261-.555A.474.474,0,0,1-117.2-1219.086Zm.123,1c.2.147.123.735-.18,1.282-.2.359-.2.425-.106.6s.09.229-.024.343c-.335.343-.368-.261-.1-1.854C-117.384-1218.244-117.343-1218.285-117.074-1218.081Zm4.451,1.274c0,.041-.082.082-.18.082-.155,0-.163-.016-.065-.082C-112.712-1216.913-112.622-1216.913-112.622-1216.807Zm-.408.229c0,.106-.1.18-.18.131s-.008-.2.106-.2A.072.072,0,0,1-113.031-1216.578Zm9.719,8.339a.24.24,0,0,1-.417.123c-.074-.09-.049-.131.1-.188C-103.344-1208.419-103.311-1208.411-103.311-1208.239Zm-.947.817c.163.18.114.335-.106.335a.344.344,0,0,1-.335-.343C-104.7-1207.627-104.439-1207.619-104.259-1207.422Zm-5.1,1.315a.3.3,0,0,0,.147.237c.131.082.131.1-.016.212a.338.338,0,0,1-.539-.041c-.188-.188-.155-.335.106-.457C-109.4-1206.3-109.355-1206.287-109.355-1206.108Zm-.735.123c0,.131-.286.172-.359.049-.065-.1.033-.172.212-.172A.138.138,0,0,1-110.09-1205.985Zm5.146.082a1.488,1.488,0,0,1-.58.89c-.253.155-.261.155-.376,0-.1-.131-.09-.163.033-.253a.509.509,0,0,1,.261-.106.514.514,0,0,0,.417-.465c0-.115.049-.188.123-.188A.126.126,0,0,1-104.945-1205.9Zm-3.39.359a.1.1,0,0,1-.041.131c-.123.073-.351-.024-.286-.123A.213.213,0,0,1-108.334-1205.544Zm2.148,2.45c.016.4-.008.555-.114.67a.44.44,0,0,1-.2.155,1.344,1.344,0,0,1-.123-.539c-.049-.449-.033-.564.09-.694C-106.3-1203.755-106.211-1203.641-106.186-1203.094Zm.711-.049c0,.531-.155.523-.188-.016-.016-.318,0-.425.082-.4C-105.525-1203.535-105.484-1203.371-105.476-1203.143Zm-1.642.27c.033.237.016.367-.065.433-.139.122-.212-.041-.212-.474C-107.4-1203.469-107.207-1203.437-107.117-1202.873Zm-.768.122c0,.229-.033.319-.123.319s-.123-.09-.123-.31a.972.972,0,0,1,.049-.368C-107.967-1203.216-107.885-1203.061-107.885-1202.751Zm3.92,1.911c0,.073-.074.123-.2.123-.2,0-.261-.082-.147-.188C-104.218-1201.011-103.965-1200.962-103.965-1200.84Zm-.506.221c-.049.131-.27.179-.457.106-.114-.041-.114-.057-.016-.122C-104.765-1200.75-104.439-1200.733-104.471-1200.619Zm-.907.172c.114.122-.114.22-.515.22-.449,0-.555-.082-.294-.245A1.293,1.293,0,0,1-105.378-1200.447Z" transform="translate(157.135 1284.711)"/>
  <path id="Path_2" data-name="Path 2" d="M172.989-760.628a1.629,1.629,0,0,0-.18.466,3.336,3.336,0,0,1-.294.719c-.351.67-.417,1.985-.082,1.78a.244.244,0,0,0,.09-.188.506.506,0,0,1,.131-.278,1.125,1.125,0,0,0,.155-.621,3.606,3.606,0,0,1,.212-.923C173.332-760.456,173.316-761.126,172.989-760.628Z" transform="translate(-144.101 804.626)"/>
  <path id="Path_3" data-name="Path 3" d="M236.782-740.778a2.207,2.207,0,0,0-.049.588,3.444,3.444,0,0,1-.123.89c-.122.351-.1,1.16.041,1.16s.237-.515.286-1.519C236.986-740.647,236.945-740.941,236.782-740.778Z" transform="translate(-203.165 786.279)"/>
  <path id="Path_4" data-name="Path 4" d="M146.369-734.919a.568.568,0,0,0-.082.474c.025.139.057.433.074.662a1.992,1.992,0,0,0,.4,1.135,4.3,4.3,0,0,1,.457.751.486.486,0,0,0,.425.278c.041,0,.074-.114.074-.245,0-.237-.237-.572-.408-.572-.188,0-.376-.7-.392-1.478C146.9-735.066,146.7-735.425,146.369-734.919Z" transform="translate(-120.274 781.065)"/>
  <path id="Path_5" data-name="Path 5" d="M569.034-728.624c-.082.082-.057.351.024.351.041,0,.106.082.139.18a.576.576,0,0,0,.114.229,14.388,14.388,0,0,1,1.225,1.658,8.552,8.552,0,0,0,1.56,1.478c.106-.065.09-.245-.025-.376a13.693,13.693,0,0,1-1.127-1.339,5.216,5.216,0,0,0-.866-1.192c-.18-.2-.425-.482-.555-.653C569.3-728.591,569.124-728.714,569.034-728.624Z" transform="translate(-508.464 775.105)"/>
  <path id="Path_6" data-name="Path 6" d="M253.283-721.657a22.466,22.466,0,0,0-.907,2.859.47.47,0,0,1-.1.294c-.074.073-.065.1.065.1.212,0,.711-.449.882-.792a1.877,1.877,0,0,0,.131-.694,1.757,1.757,0,0,1,.123-.637c.139-.237.172-1.47.041-1.47C253.471-722,253.364-721.845,253.283-721.657Z" transform="translate(-217.583 768.995)"/>
  <path id="Path_7" data-name="Path 7" d="M239.092-690.495c-.082.31-.016.915.106.956.074.025.1-.1.1-.449C239.3-690.536,239.174-690.83,239.092-690.495Z" transform="translate(-205.483 740.194)"/>
  <path id="Path_8" data-name="Path 8" d="M629.329-652.566a.461.461,0,0,0,.106.327c.155.212.269.27.269.131a.077.077,0,0,0-.082-.082c-.041,0-.082-.09-.082-.2C629.541-652.623,629.394-652.746,629.329-652.566Z" transform="translate(-563.875 705.311)"/>
  <path id="Path_9" data-name="Path 9" d="M415.555-780.845c-.123.139-.123.155-.008.2a5.161,5.161,0,0,0,.841.049,4.372,4.372,0,0,1,1.037.122,2.618,2.618,0,0,0,.743.122,15.232,15.232,0,0,1,2.581.417.71.71,0,0,0,.294.073.351.351,0,0,1,.253.114.77.77,0,0,0,.4.155,5.112,5.112,0,0,1,.506.1c.188.049.188.041.041-.049a.726.726,0,0,1-.229-.212.471.471,0,0,0-.343-.106c-.155,0-.3-.041-.327-.09a.977.977,0,0,0-.229-.163,2.616,2.616,0,0,1-.3-.147,10.477,10.477,0,0,0-2.687-.555,2.033,2.033,0,0,1-.588-.114,4.444,4.444,0,0,0-1-.074C415.816-781,415.678-780.975,415.555-780.845Z" transform="translate(-367.481 823.177)"/>
  <path id="Path_10" data-name="Path 10" d="M365.389-757.7c-.31.114-.686.237-.833.286a.7.7,0,0,0-.31.155,1.334,1.334,0,0,1-.6.082c-.506,0-.572.025-.792.245a.812.812,0,0,1-.417.245c-.261,0-.433.082-.433.212s.629.082,1.258-.1a3.777,3.777,0,0,1,.882-.114,1.869,1.869,0,0,0,.645-.09,5.274,5.274,0,0,1,2.458-.3c.776,0,1.723-.016,2.107-.049a2.806,2.806,0,0,1,1.25.106,3.459,3.459,0,0,1,.653.237,3.781,3.781,0,0,0,1.348.343,1.9,1.9,0,0,1,.613.122c.368.155.9.163.858.016a.455.455,0,0,0-.3-.122,1.542,1.542,0,0,1-.539-.212,1.674,1.674,0,0,0-.849-.237,3.115,3.115,0,0,1-.882-.188c-.172-.073-.466-.2-.653-.294a5.377,5.377,0,0,0-1.944-.31,3.31,3.31,0,0,1-.9-.122,4.31,4.31,0,0,0-1.184-.114A3.417,3.417,0,0,0,365.389-757.7Z" transform="translate(-318.386 801.963)"/>
  <path id="Path_11" data-name="Path 11" d="M513.835-745.753c-.114.155-.261.286-.31.286a.52.52,0,0,0-.253.114c-.147.106-.147.114.008.278a1.3,1.3,0,0,0,1.021.343c.367,0,.408-.025.49-.229a1.108,1.108,0,0,0,.041-.5C514.734-746.088,514.211-746.243,513.835-745.753Z" transform="translate(-457.202 791.074)"/>
  <path id="Path_12" data-name="Path 12" d="M509.16-496.869c.033.172.18.188.212.008a.1.1,0,0,0-.106-.139A.1.1,0,0,0,509.16-496.869Z" transform="translate(-453.523 562.372)"/>
  <path id="Path_13" data-name="Path 13" d="M362.1-492.348c-.065.18-.057.523.016.523s.457-.408.417-.441a1.8,1.8,0,0,0-.212-.114C362.184-492.454,362.143-492.454,362.1-492.348Z" transform="translate(-318.439 558.177)"/>
  <path id="Path_14" data-name="Path 14" d="M510-486.981a.805.805,0,0,0,.163.27c.139.18.155.188.2.057a.276.276,0,0,0-.041-.261C510.221-487.046,510-487.087,510-486.981Z" transform="translate(-454.298 553.227)"/>
  <path id="Path_15" data-name="Path 15" d="M519.5-461.593a1.226,1.226,0,0,0,.866,1.111.55.55,0,0,1,.31.163.549.549,0,0,0,.286.163c.065,0,.122-.073.122-.163,0-.123-.057-.163-.229-.163s-.319-.1-.58-.408a2.321,2.321,0,0,1-.408-.637C519.781-461.821,519.561-461.854,519.5-461.593Z" transform="translate(-463.009 530.02)"/>
  <path id="Path_16" data-name="Path 16" d="M329.162-460.713c-.188.123.008.261.27.188.114-.033.221-.1.221-.139C329.66-460.778,329.317-460.8,329.162-460.713Z" transform="translate(-288.162 529.099)"/>
  <path id="Path_17" data-name="Path 17" d="M444.588-454.749c-.114.212.057.58.261.58.221,0,.261-.188.106-.482S444.71-454.97,444.588-454.749Z" transform="translate(-394.195 523.707)"/>
  <path id="Path_18" data-name="Path 18" d="M490.44-450.869c-.09.237.27.49.4.278.057-.1-.131-.408-.253-.408A.181.181,0,0,0,490.44-450.869Z" transform="translate(-436.322 520.129)"/>
  <path id="Path_19" data-name="Path 19" d="M322.25-445.874a.154.154,0,0,0,.033.172c.106.106.261.016.261-.147C322.544-445.98,322.331-446,322.25-445.874Z" transform="translate(-281.87 515.501)"/>
  <path id="Path_20" data-name="Path 20" d="M432-444.839a.083.083,0,0,0,.074.09c.041,0,.106.082.139.18.123.392.441.8.629.8a2.258,2.258,0,0,1,1.3.76c.278.3.384.384.392.278a.867.867,0,0,0-.245-.408,1.119,1.119,0,0,1-.245-.351.794.794,0,0,0-.2-.31.6.6,0,0,0-.482-.212,1.44,1.44,0,0,1-1.029-.629C432.188-444.872,432-444.986,432-444.839Z" transform="translate(-382.669 514.532)"/>
  <path id="Path_21" data-name="Path 21" d="M387.3-443.239a1.3,1.3,0,0,0-.3.784c0,.09.392.245.613.245.261,0,.343-.31.2-.743C387.662-443.426,387.539-443.492,387.3-443.239Z" transform="translate(-341.344 513.136)"/>
  <path id="Path_22" data-name="Path 22" d="M376.95-441.839a.471.471,0,0,0,.114.6c.212.123.237.1.261-.294.016-.27-.008-.319-.147-.343A.309.309,0,0,0,376.95-441.839Z" transform="translate(-332.053 511.753)"/>
  <path id="Path_23" data-name="Path 23" d="M503.615-441.719c.1.106.221.18.27.147s-.008-.114-.114-.2C503.484-441.989,503.394-441.956,503.615-441.719Z" transform="translate(-448.321 511.788)"/>
  <path id="Path_24" data-name="Path 24" d="M345.176-439.819c-.123.237-.106.253.163.114.139-.065.229-.155.2-.2C345.462-440.023,345.266-439.983,345.176-439.819Z" transform="translate(-302.869 510.002)"/>
  <path id="Path_25" data-name="Path 25" d="M413.194-439.762c-.171.188-.18.5-.016.555a.206.206,0,0,1,.122.163c0,.147.5.155.637.016a.655.655,0,0,0-.049-.743A.514.514,0,0,0,413.194-439.762Z" transform="translate(-365.276 509.937)"/>
  <path id="Path_26" data-name="Path 26" d="M474.209-439.7c.033.172.065.457.082.629.025.31.2.539.433.539.139,0,.139-.261-.016-.457a.773.773,0,0,1-.123-.4c0-.261-.2-.613-.343-.613C474.193-440,474.176-439.886,474.209-439.7Z" transform="translate(-421.414 510.028)"/>
  <path id="Path_27" data-name="Path 27" d="M400.383-433.935c-.106.1-.057.392.082.6a1,1,0,0,1,.114.694c-.025.474-.261,1.1-.408,1.1-.065,0-.106.351-.172,1.421-.008.188.637.784.858.784a.506.506,0,0,0,.31-.2c.155-.221.122-.261-.31-.408-.278-.09-.327-.31-.082-.351a.516.516,0,0,0,.27-.163c.1-.131.114-.122.245.041l.139.18.433-.523a3.589,3.589,0,0,0,.425-.6.946.946,0,0,1,.466-.425c.049,0,.147.131.229.294.082.18.163.27.212.221.106-.106.008-.335-.18-.433-.114-.065-.131-.147-.1-.351.057-.368-.163-.792-.408-.792a1.4,1.4,0,0,1-.5-.163c-.343-.172-.457-.155-.457.065a2.067,2.067,0,0,1-.123.466,2.435,2.435,0,0,0-.122.564,2.358,2.358,0,0,1-.368.947,1.018,1.018,0,0,1-.171-.294.651.651,0,0,1-.049-.588,5.045,5.045,0,0,0,.025-2.009C400.628-434,400.473-434.033,400.383-433.935Z" transform="translate(-353.281 504.51)"/>
  <path id="Path_28" data-name="Path 28" d="M461-433.783a2.669,2.669,0,0,0,.417.629c.286.368.4.58.368.694a1.146,1.146,0,0,0,.033.457l.065.286.025-.245c.008-.139.025-.319.025-.408a.81.81,0,0,1,.074-.27c.1-.147-.278-.76-.629-1.021C461.057-433.906,461-433.922,461-433.783Z" transform="translate(-409.3 504.399)"/>
  <path id="Path_29" data-name="Path 29" d="M503-432.758a.623.623,0,0,0,.221.31c.735.6.76.645.76,1.315,0,.564.016.621.155.621a1.03,1.03,0,0,0,.457-.27c.278-.253.286-.278.155-.392a.557.557,0,0,0-.31-.114c-.147,0-.18-.065-.212-.408a1.023,1.023,0,0,0-.686-.988C503.065-432.913,503-432.921,503-432.758Z" transform="translate(-447.87 503.48)"/>
  <path id="Path_30" data-name="Path 30" d="M553.831-427.844a1.247,1.247,0,0,0-.049.408c0,.139.008.776.008,1.413a4.583,4.583,0,0,0,.09,1.209c.114.074.237-.294.163-.49a8.194,8.194,0,0,1-.033-1.3C554.035-427.722,553.962-428.187,553.831-427.844Z" transform="translate(-494.503 498.967)"/>
  <path id="Path_31" data-name="Path 31" d="M487.209-425.393c-.139.139-.114.18.229.58.449.523.555.874.376,1.274-.131.278-.131.327-.008.555a1.111,1.111,0,0,1,.131.384c0,.09.057.123.188.106s.172-.074.163-.188c-.016-.09-.041-.384-.065-.653a3.758,3.758,0,0,0-.506-1.748C487.454-425.458,487.34-425.524,487.209-425.393Z" transform="translate(-433.296 496.67)"/>
  <path id="Path_32" data-name="Path 32" d="M374.789-420.82c-.351.547-.408.719-.359,1.078a.924.924,0,0,0,.245.547.622.622,0,0,1,.2.531c0,.27.041.376.18.474.245.18.343.057.278-.376-.025-.188-.057-.433-.074-.531a.475.475,0,0,0-.074-.237.357.357,0,0,1-.065-.237.374.374,0,0,0-.172-.294c-.229-.155-.147-.449.229-.841l.286-.294h-.27A.423.423,0,0,0,374.789-420.82Z" transform="translate(-329.786 492.58)"/>
  <path id="Path_33" data-name="Path 33" d="M393.875-420.854a.711.711,0,0,0-.269.245c-.09.139-.074.2.114.449.122.155.253.27.3.253a1.706,1.706,0,0,0,.3-.858C394.325-420.96,394.161-420.993,393.875-420.854Z" transform="translate(-347.362 492.523)"/>
  <path id="Path_34" data-name="Path 34" d="M440.486-419.737a1.4,1.4,0,0,0,.433,1.078,4.324,4.324,0,0,1,.417.555c.057.1.2.3.31.457a1.881,1.881,0,0,1,.294.776l.082.5.31.025c.368.033.547-.09.547-.359,0-.245-.212-.261-.286-.025-.033.106-.1.147-.18.122a.758.758,0,0,0-.2-.049c-.049,0-.057-.049-.008-.131a.625.625,0,0,0-.041-.457.739.739,0,0,1,.025-.678c.122-.343.122-.359-.09-.809a1.3,1.3,0,0,0-.359-.515,1.607,1.607,0,0,1-.384-.286C441.066-419.811,440.559-419.925,440.486-419.737Z" transform="translate(-390.444 491.505)"/>
  <path id="Path_35" data-name="Path 35" d="M484.23-408.614c-.065.327.008.621.155.621.057,0,.163-.131.245-.294.131-.278.131-.31,0-.449C484.426-408.965,484.287-408.924,484.23-408.614Z" transform="translate(-430.611 481.451)"/>
  <path id="Path_36" data-name="Path 36" d="M468.094-405.44c.016.425.065.49.237.286.074-.09.074-.18-.008-.408C468.176-405.963,468.086-405.922,468.094-405.44Z" transform="translate(-415.814 478.653)"/>
  <path id="Path_37" data-name="Path 37" d="M317.226-402.872c.025.082.082.318.139.531a1.353,1.353,0,0,0,.212.482.329.329,0,0,1,.114.237.373.373,0,0,0,.123.245.392.392,0,0,1,.122.253.237.237,0,0,0,.074.188,1.007,1.007,0,0,1,.122.376c.041.286.082.335.229.31.351-.049.351-.253.016-.7a1.779,1.779,0,0,0-.376-.425c-.033,0-.065-.1-.065-.229a.709.709,0,0,0-.122-.376.834.834,0,0,1-.123-.417.844.844,0,0,0-.131-.433C317.414-403.051,317.177-403.076,317.226-402.872Z" transform="translate(-277.263 476.06)"/>
  <path id="Path_38" data-name="Path 38" d="M420.991-400.765a2.8,2.8,0,0,0-.188.67c-.131.751-.147.792-.392.907a.467.467,0,0,0-.245.278c-.033.229.2.319.392.155a.5.5,0,0,1,.278-.123c.114,0,.131.049.09.278-.057.294.073.425.294.286a5.216,5.216,0,0,0,.106-2.222C421.277-400.936,421.154-401.026,420.991-400.765Z" transform="translate(-371.798 474.133)"/>
  <path id="Path_39" data-name="Path 39" d="M440-397.412c0,.727.065.841.4.776.147-.033.253-.016.253.025a.077.077,0,0,1-.082.082c-.114,0-.106.547.016.621.261.163.523-.711.318-1.094a1.234,1.234,0,0,1-.122-.359.771.771,0,0,0-.172-.327c-.286-.253-.368-.31-.49-.31C440.025-398,440-397.886,440-397.412Z" transform="translate(-390.015 471.458)"/>
  <path id="Path_40" data-name="Path 40" d="M361.87-395.9a.9.9,0,0,0-.041.433.652.652,0,0,0,.278.547.986.986,0,0,0,.4.229.227.227,0,0,1,.188.082.5.5,0,0,0,.31.074q.257-.012.1-.049a1.211,1.211,0,0,1-.368-.221,4.264,4.264,0,0,0-.4-.318c-.2-.131-.449-.678-.368-.809.025-.033.025-.065,0-.065S361.9-395.959,361.87-395.9Z" transform="translate(-318.224 469.621)"/>
  <path id="Path_41" data-name="Path 41" d="M473.209-391.619a.223.223,0,0,0,.033.229c.065.065.106.057.147-.049a.223.223,0,0,0-.033-.229C473.291-391.733,473.25-391.725,473.209-391.619Z" transform="translate(-420.496 465.681)"/>
  <path id="Path_42" data-name="Path 42" d="M482.488-389.3c-.106.131-.024.212.221.212.106,0,.188-.049.188-.114C482.9-389.344,482.594-389.418,482.488-389.3Z" transform="translate(-428.991 463.521)"/>
  <path id="Path_43" data-name="Path 43" d="M545.335-381.715a4.6,4.6,0,0,0-.049.874,2.675,2.675,0,0,1-.122,1.029c-.131.221-.163,1.143-.049,1.143s.172-.212.172-.555a1.447,1.447,0,0,1,.122-.539,2.792,2.792,0,0,0,.122-1.078C545.531-381.609,545.473-381.854,545.335-381.715Z" transform="translate(-486.48 456.537)"/>
  <path id="Path_44" data-name="Path 44" d="M547.015-357.045a6.072,6.072,0,0,0-.073.727,4.486,4.486,0,0,1-.123.817,6.8,6.8,0,0,0-.221.817,7.577,7.577,0,0,1-.367,1.1c-.122.27-.253.564-.286.653a4.727,4.727,0,0,0-.4,1.307,1.147,1.147,0,0,0,.286.278c.2.147.27.163.367.09.147-.131.147-.4,0-.457-.229-.09-.212-.294.033-.6a1.091,1.091,0,0,1,.441-.359.374.374,0,0,0,.253-.212.342.342,0,0,1,.188-.2c.123-.041.139-.221.114-1.985C547.2-356.791,547.138-357.412,547.015-357.045Z" transform="translate(-486.935 433.941)"/>
  <path id="Path_45" data-name="Path 45" d="M333.425-353.71a.774.774,0,0,0-.425.621c0,.065.09.147.2.172.2.049.49.319,1.486,1.388a3.207,3.207,0,0,0,.6.539c.041,0,.082-.082.082-.188a1.748,1.748,0,0,0-.555-1.184,3.207,3.207,0,0,1-.539-.8C334.054-353.734,333.939-353.808,333.425-353.71Z" transform="translate(-291.754 430.819)"/>
  <path id="Path_46" data-name="Path 46" d="M436-347.773a.751.751,0,0,0,.155.3c.2.261.441.18.4-.131-.016-.188-.065-.237-.286-.253C436.09-347.871,436-347.846,436-347.773Z" transform="translate(-386.342 425.413)"/>
  <path id="Path_47" data-name="Path 47" d="M332.456-341.869a.4.4,0,0,0,.065.319,1.726,1.726,0,0,1,.147.621c.016.351.057.449.18.466.131.033.139-.008.09-.408a2.937,2.937,0,0,0-.4-1.127C332.521-342,332.48-341.943,332.456-341.869Z" transform="translate(-291.243 420.032)"/>
  <path id="Path_48" data-name="Path 48" d="M566.059-302.535c-.1.09-.065.506.065.817a1.749,1.749,0,0,1,.122.564c0,.335.139.441.212.155a1.03,1.03,0,0,0-.082-.555,2.092,2.092,0,0,1-.131-.588C566.247-302.413,566.141-302.625,566.059-302.535Z" transform="translate(-505.726 383.81)"/>
  <path id="Path_49" data-name="Path 49" d="M351.393-292.552a.1.1,0,0,0,0,.114c.057.1.278.09.278,0S351.459-292.617,351.393-292.552Z" transform="translate(-308.629 374.643)"/>
  <g id="Ellipse_1" data-name="Ellipse 1" class="cls-2">
    <circle class="cls-4" cx="50" cy="50" r="50"/>
    <circle class="cls-5" cx="50" cy="50" r="48.5"/>
  </g>
  <path id="Path_50" data-name="Path 50" class="cls-3" d="M-.4,0C-.207,0-.05.1-.05.228S.072.437-.236.389A1.257,1.257,0,0,1-.751.228C-1.051.1-.594,0-.4,0Z" transform="translate(54.266 51.272)"/>
</svg>
