<svg xmlns="http://www.w3.org/2000/svg" width="241" height="385.808" viewBox="0 0 241 385.808">
  <defs>
    <style>
      .cls-1 {
        fill: #0a5078;
        stroke: #0a5078;
      }

      .cls-12, .cls-2 {
        fill: #00a0c8;
      }

      .cls-13, .cls-3 {
        fill: #1b3237;
      }

      .cls-14, .cls-4 {
        fill: #00143c;
      }

      .cls-11, .cls-5 {
        fill: none;
      }

      .cls-5 {
        stroke: #707070;
      }

      .cls-6 {
        fill: #f0f0f0;
        stroke: #f0f0f0;
      }

      .cls-7 {
        fill: #c80a50;
        stroke: #c80a50;
      }

      .cls-8 {
        fill: #fab400;
        stroke: #fab400;
      }

      .cls-9 {
        fill: rgba(84,9,9,0.41);
        font-size: 20px;
        font-family: SegoeUI, Segoe UI;
      }

      .cls-10, .cls-12, .cls-13, .cls-14 {
        stroke: none;
      }
    </style>
  </defs>
  <g id="Group_5" data-name="Group 5" transform="translate(-110 -149.913)">
    <g id="Rectangle_1" data-name="Rectangle 1" class="cls-1" transform="translate(110 166)">
      <rect class="cls-10" width="241" height="344" rx="16"/>
      <rect class="cls-11" x="0.5" y="0.5" width="240" height="343" rx="15.5"/>
    </g>
    <g id="Path_2" data-name="Path 2" class="cls-2" transform="translate(150 150)">
      <path class="cls-10" d="M 112 263.5 L 48 263.5 C 41.58733367919922 263.5 35.36673355102539 262.2441711425781 29.51099967956543 259.7674255371094 C 23.85479927062988 257.3750305175781 18.77490043640137 253.9500732421875 14.41243362426758 249.5875701904297 C 10.04993343353271 245.22509765625 6.624966621398926 240.1452026367188 4.232566833496094 234.4889984130859 C 1.755833387374878 228.6332702636719 0.5 222.4126739501953 0.5 216 L 0.5 48 C 0.5 43.62839889526367 0.5123333334922791 38.03083419799805 0.5253999829292297 32.10463333129883 C 0.552169144153595 19.96665573120117 0.5823602080345154 6.255698680877686 0.5069528818130493 0.4861891865730286 C 2.528703927993774 0.4370623230934143 6.42098331451416 0.4131341278553009 12.36303329467773 0.4131341278553009 C 18.47893333435059 0.4131341278553009 25.70033264160156 0.4376341104507446 32.68396759033203 0.4613341093063354 C 38.53923416137695 0.4812341332435608 44.06973266601563 0.5000007748603821 48 0.5000007748603821 L 112 0.5000007748603821 C 115.6790313720703 0.5000007748603821 120.8437347412109 0.5115340948104858 126.3116989135742 0.5237674713134766 C 132.8226928710938 0.5383341312408447 140.202392578125 0.554800808429718 146.4795684814453 0.554800808429718 C 152.6195831298828 0.554800808429718 156.8877105712891 0.5391130447387695 159.4908905029297 0.5068644881248474 C 159.3724365234375 7.513769626617432 159.4167785644531 19.97650146484375 159.4597015380859 32.03913497924805 C 159.4804382324219 37.86556625366211 159.5 43.36883544921875 159.5 48 L 159.5 216 C 159.5 222.4126739501953 158.2441711425781 228.6332702636719 155.7674407958984 234.4889984130859 C 153.3750305175781 240.1452026367188 149.9500732421875 245.22509765625 145.5875701904297 249.5875701904297 C 141.22509765625 253.9500732421875 136.1452026367188 257.3750305175781 130.4889984130859 259.7674255371094 C 124.6332702636719 262.2441711425781 118.4126663208008 263.5 112 263.5 Z"/>
      <path class="cls-12" d="M 12.363037109375 0.91314697265625 C 6.876068115234375 0.91314697265625 3.139739990234375 0.93353271484375 1.012908935546875 0.975250244140625 C 1.080734252929688 7.008636474609375 1.051437377929688 20.30072021484375 1.025405883789063 32.10572814941406 C 1.0123291015625 38.03166198730469 1 43.62896728515625 1 48 L 1 216 C 1 222.3453979492188 2.242538452148438 228.5004730224609 4.693069458007813 234.2942047119141 C 7.060226440429688 239.8908386230469 10.44926452636719 244.9172973632813 14.76596069335938 249.2340393066406 C 19.08270263671875 253.5507354736328 24.10916137695313 256.9397583007813 29.70579528808594 259.3069458007813 C 35.49953460693359 261.7574768066406 41.65460205078125 263 48 263 L 112 263 C 118.3453979492188 263 124.5004653930664 261.7574768066406 130.2942047119141 259.3069458007813 C 135.8908386230469 256.9397583007813 140.9172973632813 253.5507354736328 145.2340393066406 249.2340393066406 C 149.5507354736328 244.9172973632813 152.9397735595703 239.8908386230469 155.3069305419922 234.2942047119141 C 157.7574615478516 228.5004730224609 159 222.3453979492188 159 216 L 159 48 C 159 43.36973571777344 158.9804382324219 37.86686706542969 158.9597015380859 32.04093933105469 C 158.9178009033203 20.26622009277344 158.8745727539063 8.109176635742188 158.9826812744141 1.01275634765625 C 156.34375 1.041015625 152.2327880859375 1.0548095703125 146.4795684814453 1.0548095703125 C 140.2018280029297 1.0548095703125 132.8218383789063 1.038299560546875 126.3106002807617 1.023773193359375 C 120.8429336547852 1.01153564453125 115.678466796875 1 112 1 L 48 1 C 44.06890106201172 1 38.5379638671875 0.981231689453125 32.68229675292969 0.961334228515625 C 25.69906616210938 0.9376220703125 18.47810363769531 0.91314697265625 12.363037109375 0.91314697265625 M 12.363037109375 -0.086883544921875 C 23.75762939453125 -0.086883544921875 39.51658630371094 0 48 0 L 112 0 C 120.0760803222656 0 134.9498291015625 0.0548095703125 146.4795684814453 0.0548095703125 C 152.2454986572266 0.0548095703125 157.1735229492188 0.041107177734375 160 0 C 159.8086700439453 10.16343688964844 160 33.60519409179688 160 48 L 160 216 C 160 242.5096740722656 138.5096740722656 264 112 264 L 48 264 C 21.49032592773438 264 0 242.5096740722656 0 216 L 0 48 C 0 34.21507263183594 0.123260498046875 7.968338012695313 0 0 C 2.059600830078125 -0.065155029296875 6.666259765625 -0.086883544921875 12.363037109375 -0.086883544921875 Z"/>
    </g>
    <g id="Path_10" data-name="Path 10" class="cls-2" transform="translate(149.545 482.393)">
      <path class="cls-10" d="M 12.37440776824951 26.96222686767578 C 6.467471599578857 26.96222686767578 2.581312417984009 26.95976448059082 0.5406174063682556 26.95470237731934 C 0.5704707503318787 26.22848510742188 0.547616183757782 25.14743614196777 0.5253273844718933 24.09360694885254 C 0.512307345867157 23.47808647155762 0.5000073909759521 22.89668655395508 0.5000073909759521 22.44588661193848 L 0.5000073909759521 4.920426845550537 C 0.5000073909759521 4.914166927337646 0.5923673510551453 4.270687103271484 3.895187377929688 3.456846952438354 C 6.292767524719238 2.866066932678223 9.73410701751709 2.33454704284668 14.12362766265869 1.877046942710876 C 23.18130683898926 0.9330469965934753 35.22784805297852 0.41314697265625 48.04412841796875 0.41314697265625 L 112.1029510498047 0.41314697265625 C 124.9192504882813 0.41314697265625 136.9657745361328 0.9330469965934753 146.0234527587891 1.877046942710876 C 150.4129943847656 2.33454704284668 153.8543243408203 2.866066932678223 156.2519073486328 3.456846952438354 C 159.5547027587891 4.270687103271484 159.6470947265625 4.914166927337646 159.6470947265625 4.920426845550537 L 159.6470947265625 22.44588661193848 C 159.6470947265625 22.92056655883789 159.6276245117188 23.49054718017578 159.6070251464844 24.09402656555176 C 159.5720062255859 25.11966705322266 159.5360565185547 26.1724681854248 159.5879211425781 26.9523868560791 C 156.98046875 26.94905662536621 152.7237548828125 26.94744682312012 146.6142272949219 26.94744682312012 C 140.3318023681641 26.94744682312012 133.0574340820313 26.94914627075195 126.4288101196289 26.95068740844727 C 120.8811874389648 26.95198631286621 115.785888671875 26.95316696166992 112.1029510498047 26.95316696166992 L 48.04412841796875 26.95316696166992 C 44.1112060546875 26.95316696166992 38.61600875854492 26.95510673522949 32.71620559692383 26.95718765258789 C 25.72554779052734 26.95966720581055 18.49688720703125 26.96222686767578 12.37440776824951 26.96222686767578 Z"/>
      <path class="cls-12" d="M 12.3744010925293 26.46222114562988 C 18.49658966064453 26.46222114562988 25.72498512268066 26.45965957641602 32.71538162231445 26.45720100402832 C 38.61548614501953 26.45509719848633 44.11100387573242 26.45315933227539 48.04413223266602 26.45315933227539 L 112.1029434204102 26.45315933227539 C 115.7858352661133 26.45315933227539 120.8811111450195 26.45197105407715 126.4286727905273 26.45067977905273 C 133.0573425292969 26.44911766052246 140.3317565917969 26.44742965698242 146.6142272949219 26.44742965698242 C 152.3301239013672 26.44742965698242 156.4253845214844 26.44885063171387 159.0667724609375 26.45176315307617 C 159.0506744384766 25.73603439331055 159.0792846679688 24.89795303344727 159.1073150634766 24.07695198059082 C 159.1277770996094 23.47786712646484 159.1470947265625 22.91203498840332 159.1470947265625 22.44588851928711 L 159.1470947265625 5.071269035339355 C 158.8181610107422 4.780660629272461 156.6716461181641 3.407207489013672 144.7209777832031 2.24863862991333 C 135.8377075195313 1.387430310249329 124.2537384033203 0.9131386280059814 112.1029434204102 0.9131386280059814 L 48.04413223266602 0.9131386280059814 C 35.89333724975586 0.9131386280059814 24.30938148498535 1.387430310249329 15.42611026763916 2.24863862991333 C 3.475445508956909 3.407207489013672 1.328930377960205 4.780660629272461 1.000005722045898 5.071269035339355 L 1.000005722045898 22.44588851928711 C 1.000005722045898 22.89140892028809 1.012255668640137 23.47022247314453 1.025214076042175 24.08303451538086 C 1.04556930065155 25.04568672180176 1.059945344924927 25.83798408508301 1.053235650062561 26.45583343505859 C 3.201387166976929 26.46012878417969 6.929237365722656 26.46222114562988 12.3744010925293 26.46222114562988 M 12.37440872192383 27.46222496032715 C 6.672399044036865 27.46222305297852 2.06150484085083 27.45995712280273 5.696614607586525e-06 27.45315933227539 C 0.1234015300869942 26.62191009521484 5.696614607586525e-06 23.88390922546387 5.696614607586525e-06 22.44588851928711 L 5.696614607586525e-06 4.920430183410645 C 5.696614607586525e-06 2.154972076416016 21.51008987426758 -0.08686135709285736 48.04413223266602 -0.08686135709285736 L 112.1029434204102 -0.08686135709285736 C 138.6370086669922 -0.08686135709285736 160.1470947265625 2.154972076416016 160.1470947265625 4.920430183410645 L 160.1470947265625 22.44588851928711 C 160.1470947265625 23.94751358032227 159.9555511474609 26.39293098449707 160.1470947265625 27.45315933227539 C 157.3180084228516 27.44886779785156 152.3854522705078 27.44743728637695 146.6142272949219 27.44743728637695 C 135.0738830566406 27.44743728637695 120.1864471435547 27.45315933227539 112.1029434204102 27.45315933227539 L 48.04413223266602 27.45315933227539 C 39.55292892456055 27.45315933227539 23.77947044372559 27.46222496032715 12.37440872192383 27.46222496032715 Z"/>
    </g>
    <g id="Path_11" data-name="Path 11" class="cls-3" transform="translate(125.545 510.393)">
      <path class="cls-10" d="M 28.28194236755371 24.82867431640625 L 12.12083339691162 24.82867431640625 C 8.94260311126709 24.82867431640625 5.962033271789551 24.35980415344238 3.728173017501831 23.50844383239746 C 1.676623106002808 22.72655487060547 0.5000030994415283 21.70626449584961 0.5000030994415283 20.70918464660645 L 0.5000030994415283 4.540994644165039 C 0.5000030994415283 4.121664524078369 0.5031131505966187 3.583644390106201 0.5064131021499634 3.014024496078491 C 0.5119602680206299 2.055024147033691 0.5176503658294678 1.07128632068634 0.5106722712516785 0.4175244867801666 C 1.071715354919434 0.4145839214324951 1.934617161750793 0.4131444990634918 3.121883153915405 0.4131444990634918 C 4.66627311706543 0.4131444990634918 6.528203010559082 0.4155545234680176 8.253063201904297 0.4177845120429993 C 9.741783142089844 0.4197145104408264 11.12842273712158 0.4215044975280762 12.12083339691162 0.4215044975280762 L 28.28194236755371 0.4215044975280762 C 29.21099281311035 0.4215044975280762 30.49632263183594 0.422604501247406 31.8957633972168 0.4237945079803467 C 33.56819152832031 0.4252144992351532 35.4035530090332 0.4267845153808594 36.98864364624023 0.4267845153808594 C 38.26565551757813 0.4267845153808594 39.22214126586914 0.4257582724094391 39.88726425170898 0.4236600697040558 C 39.875 1.121537446975708 39.88393020629883 2.077852964401245 39.89262390136719 3.009424448013306 C 39.89785385131836 3.569004535675049 39.90278244018555 4.09754467010498 39.90278244018555 4.540994644165039 L 39.90278244018555 20.70918464660645 C 39.90278244018555 21.70626449584961 38.72616195678711 22.72655487060547 36.67460250854492 23.50844383239746 C 34.44075393676758 24.35980415344238 31.46018218994141 24.82867431640625 28.28194236755371 24.82867431640625 Z"/>
      <path class="cls-13" d="M 3.121883392333984 0.9131450653076172 C 2.244686126708984 0.9131450653076172 1.544918060302734 0.9139289855957031 1.013595581054688 0.9155235290527344 C 1.015029907226563 1.524631500244141 1.010673522949219 2.278060913085938 1.006404876708984 3.016914367675781 C 1.00311279296875 3.585784912109375 1.000003814697266 4.123113632202148 1.000003814697266 4.540994644165039 L 1.000003814697266 20.70918464660645 C 1.000003814697266 21.46442413330078 2.113613128662109 22.3580150604248 3.906242370605469 23.04122543334961 C 6.084632873535156 23.87144470214844 9.001962661743164 24.32867431640625 12.1208324432373 24.32867431640625 L 28.28194427490234 24.32867431640625 C 31.40081405639648 24.32867431640625 34.31815338134766 23.87144470214844 36.49654388427734 23.04122543334961 C 38.2891731262207 22.3580150604248 39.40278244018555 21.46442413330078 39.40278244018555 20.70918464660645 L 39.40278244018555 4.540994644165039 C 39.40278244018555 4.099874496459961 39.39786148071289 3.572475433349609 39.39264297485352 3.014095306396484 C 39.38587951660156 2.289447784423828 39.37897491455078 1.549943923950195 39.38200759887695 0.9249382019042969 C 38.76510238647461 0.926177978515625 37.97177886962891 0.9267845153808594 36.98864364624023 0.9267845153808594 C 35.40341186523438 0.9267845153808594 33.56789398193359 0.9252243041992188 31.89532279968262 0.9237937927246094 C 30.49605178833008 0.9226036071777344 29.21088409423828 0.9215049743652344 28.28194427490234 0.9215049743652344 L 12.1208324432373 0.9215049743652344 C 11.12825393676758 0.9215049743652344 9.741382598876953 0.9197139739990234 8.252403259277344 0.9177837371826172 C 6.527774810791016 0.9155540466308594 4.666072845458984 0.9131450653076172 3.121883392333984 0.9131450653076172 M 3.121883392333984 -0.08685493469238281 C 5.999214172363281 -0.08685493469238281 9.978628158569336 -0.07849502563476563 12.1208324432373 -0.07849502563476563 L 28.28194427490234 -0.07849502563476563 C 30.32129287719727 -0.07849502563476563 34.07717895507813 -0.07321929931640625 36.98863983154297 -0.07321929931640625 C 38.44463729858398 -0.07321929931640625 39.68904876708984 -0.0745391845703125 40.40278244018555 -0.07849502563476563 C 40.35445404052734 0.8996353149414063 40.40278244018555 3.155645370483398 40.40278244018555 4.540994644165039 L 40.40278244018555 20.70918464660645 C 40.40278244018555 23.26045417785645 34.97610473632813 25.32867431640625 28.28194427490234 25.32867431640625 L 12.1208324432373 25.32867431640625 C 5.426681518554688 25.32867431640625 3.814697265625e-06 23.26045417785645 3.814697265625e-06 20.70918464660645 L 3.814697265625e-06 4.540994644165039 C 3.814697265625e-06 3.214344024658203 0.03112411499023438 0.6883735656738281 3.814697265625e-06 -0.07849502563476563 C 0.5200881958007813 -0.08476448059082031 1.683349609375 -0.08685493469238281 3.121883392333984 -0.08685493469238281 Z"/>
    </g>
    <g id="Path_12" data-name="Path 12" class="cls-3" transform="translate(294.545 510.393)">
      <path class="cls-10" d="M 28.28194236755371 24.82867431640625 L 12.12083339691162 24.82867431640625 C 8.94260311126709 24.82867431640625 5.962033271789551 24.35980415344238 3.728173017501831 23.50844383239746 C 1.676623106002808 22.72655487060547 0.5000030994415283 21.70626449584961 0.5000030994415283 20.70918464660645 L 0.5000030994415283 4.540994644165039 C 0.5000030994415283 4.121664524078369 0.5031131505966187 3.583644390106201 0.5064131021499634 3.014024496078491 C 0.5119602680206299 2.055024147033691 0.5176503658294678 1.07128632068634 0.5106722712516785 0.4175244867801666 C 1.071715354919434 0.4145839214324951 1.934617161750793 0.4131444990634918 3.121883153915405 0.4131444990634918 C 4.66627311706543 0.4131444990634918 6.528203010559082 0.4155545234680176 8.253063201904297 0.4177845120429993 C 9.741783142089844 0.4197145104408264 11.12842273712158 0.4215044975280762 12.12083339691162 0.4215044975280762 L 28.28194236755371 0.4215044975280762 C 29.21099281311035 0.4215044975280762 30.49632263183594 0.422604501247406 31.8957633972168 0.4237945079803467 C 33.56819152832031 0.4252144992351532 35.4035530090332 0.4267845153808594 36.98864364624023 0.4267845153808594 C 38.26565551757813 0.4267845153808594 39.22214126586914 0.4257582724094391 39.88726425170898 0.4236600697040558 C 39.875 1.121537446975708 39.88393020629883 2.077852964401245 39.89262390136719 3.009424448013306 C 39.89785385131836 3.569004535675049 39.90278244018555 4.09754467010498 39.90278244018555 4.540994644165039 L 39.90278244018555 20.70918464660645 C 39.90278244018555 21.70626449584961 38.72616195678711 22.72655487060547 36.67460250854492 23.50844383239746 C 34.44075393676758 24.35980415344238 31.46018218994141 24.82867431640625 28.28194236755371 24.82867431640625 Z"/>
      <path class="cls-13" d="M 3.121883392333984 0.9131450653076172 C 2.244686126708984 0.9131450653076172 1.544918060302734 0.9139289855957031 1.013595581054688 0.9155235290527344 C 1.015029907226563 1.524631500244141 1.010673522949219 2.278060913085938 1.006404876708984 3.016914367675781 C 1.00311279296875 3.585784912109375 1.000003814697266 4.123113632202148 1.000003814697266 4.540994644165039 L 1.000003814697266 20.70918464660645 C 1.000003814697266 21.46442413330078 2.113613128662109 22.3580150604248 3.906242370605469 23.04122543334961 C 6.084632873535156 23.87144470214844 9.001962661743164 24.32867431640625 12.1208324432373 24.32867431640625 L 28.28194427490234 24.32867431640625 C 31.40081405639648 24.32867431640625 34.31815338134766 23.87144470214844 36.49654388427734 23.04122543334961 C 38.2891731262207 22.3580150604248 39.40278244018555 21.46442413330078 39.40278244018555 20.70918464660645 L 39.40278244018555 4.540994644165039 C 39.40278244018555 4.099874496459961 39.39786148071289 3.572475433349609 39.39264297485352 3.014095306396484 C 39.38587951660156 2.289447784423828 39.37897491455078 1.549943923950195 39.38200759887695 0.9249382019042969 C 38.76510238647461 0.926177978515625 37.97177886962891 0.9267845153808594 36.98864364624023 0.9267845153808594 C 35.40341186523438 0.9267845153808594 33.56789398193359 0.9252243041992188 31.89532279968262 0.9237937927246094 C 30.49605178833008 0.9226036071777344 29.21088409423828 0.9215049743652344 28.28194427490234 0.9215049743652344 L 12.1208324432373 0.9215049743652344 C 11.12825393676758 0.9215049743652344 9.741382598876953 0.9197139739990234 8.252403259277344 0.9177837371826172 C 6.527774810791016 0.9155540466308594 4.666072845458984 0.9131450653076172 3.121883392333984 0.9131450653076172 M 3.121883392333984 -0.08685493469238281 C 5.999214172363281 -0.08685493469238281 9.978628158569336 -0.07849502563476563 12.1208324432373 -0.07849502563476563 L 28.28194427490234 -0.07849502563476563 C 30.32129287719727 -0.07849502563476563 34.07717895507813 -0.07321929931640625 36.98863983154297 -0.07321929931640625 C 38.44463729858398 -0.07321929931640625 39.68904876708984 -0.0745391845703125 40.40278244018555 -0.07849502563476563 C 40.35445404052734 0.8996353149414063 40.40278244018555 3.155645370483398 40.40278244018555 4.540994644165039 L 40.40278244018555 20.70918464660645 C 40.40278244018555 23.26045417785645 34.97610473632813 25.32867431640625 28.28194427490234 25.32867431640625 L 12.1208324432373 25.32867431640625 C 5.426681518554688 25.32867431640625 3.814697265625e-06 23.26045417785645 3.814697265625e-06 20.70918464660645 L 3.814697265625e-06 4.540994644165039 C 3.814697265625e-06 3.214344024658203 0.03112411499023438 0.6883735656738281 3.814697265625e-06 -0.07849502563476563 C 0.5200881958007813 -0.08476448059082031 1.683349609375 -0.08685493469238281 3.121883392333984 -0.08685493469238281 Z"/>
    </g>
    <g id="Group_2" data-name="Group 2">
      <g id="Path_3" data-name="Path 3" class="cls-4" transform="translate(178 490)">
        <path class="cls-10" d="M 7.690830707550049 19.35494804382324 C 7.372941017150879 19.35494804382324 6.989680767059326 19.35305786132813 6.634630680084229 19.35130882263184 C 6.326621055603027 19.34979820251465 6.039731025695801 19.348388671875 5.834400653839111 19.348388671875 L 2.500460863113403 19.348388671875 C 2.309200763702393 19.348388671875 2.044580936431885 19.3475284576416 1.756480932235718 19.34659767150879 C 1.410960912704468 19.34547805786133 1.031790852546692 19.34424781799316 0.7043208479881287 19.34424781799316 C 0.6326647400856018 19.34424781799316 0.56581711769104 19.34430885314941 0.5036453008651733 19.34442901611328 C 0.5055003762245178 18.81211471557617 0.503781795501709 18.11154937744141 0.5021008849143982 17.42794799804688 C 0.5010308623313904 16.99330902099609 0.5000008940696716 16.57321739196777 0.5000008940696716 16.22379875183105 L 0.5000008940696716 3.53773832321167 C 0.5000008940696716 1.844038367271423 1.416100859642029 0.4131483137607574 2.500460863113403 0.4131483137607574 L 5.834400653839111 0.4131483137607574 C 6.918760776519775 0.4131483137607574 7.834860801696777 1.844038367271423 7.834860801696777 3.53773832321167 L 7.834860801696777 16.22379875183105 C 7.834860801696777 16.55373764038086 7.834210872650146 16.9782886505127 7.833540916442871 17.42341804504395 C 7.832513332366943 18.09789848327637 7.8313889503479 18.83660888671875 7.832435607910156 19.35480499267578 C 7.78799295425415 19.35490036010742 7.740771293640137 19.35494804382324 7.690830707550049 19.35494804382324 Z"/>
        <path class="cls-14" d="M 7.332021236419678 18.85432243347168 C 7.332036018371582 18.41221809387207 7.332812786102295 17.90131568908691 7.333540916442871 17.42265892028809 C 7.334210872650146 16.97780799865723 7.334860801696777 16.55352783203125 7.334860801696777 16.22379875183105 L 7.334860801696777 3.53773832321167 C 7.334860801696777 1.991028308868408 6.544100761413574 0.9131482839584351 5.834400653839111 0.9131482839584351 L 2.500460863113403 0.9131482839584351 C 1.79076087474823 0.9131482839584351 1.000000834465027 1.991028308868408 1.000000834465027 3.53773832321167 L 1.000000834465027 16.22379875183105 C 1.000000834465027 16.57286834716797 1.001030921936035 16.99252891540527 1.002100825309753 17.42672920227051 C 1.003293514251709 17.91274833679199 1.004507899284363 18.40728569030762 1.004444003105164 18.84453201293945 C 1.252385497093201 18.84496116638184 1.513665080070496 18.8458080291748 1.758100867271423 18.84659767150879 C 2.045570850372314 18.8475284576416 2.309610843658447 18.848388671875 2.500460863113403 18.848388671875 L 5.834400653839111 18.848388671875 C 6.040360927581787 18.848388671875 6.328140735626221 18.84979820251465 6.637100696563721 18.851318359375 C 6.865378856658936 18.85243988037109 7.105347156524658 18.85362243652344 7.332021236419678 18.85432243347168 M 7.690835952758789 19.85494804382324 C 7.097259044647217 19.85494804382324 6.276327610015869 19.848388671875 5.834400653839111 19.848388671875 L 2.500460863113403 19.848388671875 C 2.079753160476685 19.848388671875 1.30493438243866 19.8442497253418 0.7043172121047974 19.8442497253418 C 0.4039536118507385 19.8442497253418 0.1472388505935669 19.84528541564941 8.776855224823521e-07 19.848388671875 C 0.009970877319574356 19.08092880249023 8.776855224823521e-07 17.31078910827637 8.776855224823521e-07 16.22379875183105 L 8.776855224823521e-07 3.53773832321167 C 8.776855224823521e-07 1.535928249359131 1.1194908618927 -0.08685169368982315 2.500460863113403 -0.08685169368982315 L 5.834400653839111 -0.08685169368982315 C 7.215370655059814 -0.08685169368982315 8.334860801696777 1.535928249359131 8.334860801696777 3.53773832321167 L 8.334860801696777 16.22379875183105 C 8.334860801696777 17.26472854614258 8.32844066619873 19.24668884277344 8.334860801696777 19.848388671875 C 8.227570533752441 19.85330772399902 7.987596988677979 19.85494804382324 7.690835952758789 19.85494804382324 Z"/>
      </g>
      <g id="Path_4" data-name="Path 4" class="cls-4" transform="translate(194 490)">
        <path class="cls-10" d="M 7.690830707550049 19.35494804382324 C 7.372941017150879 19.35494804382324 6.989680767059326 19.35305786132813 6.634630680084229 19.35130882263184 C 6.326621055603027 19.34979820251465 6.039731025695801 19.348388671875 5.834400653839111 19.348388671875 L 2.500460863113403 19.348388671875 C 2.309200763702393 19.348388671875 2.044580936431885 19.3475284576416 1.756480932235718 19.34659767150879 C 1.410960912704468 19.34547805786133 1.031790852546692 19.34424781799316 0.7043208479881287 19.34424781799316 C 0.6326647400856018 19.34424781799316 0.56581711769104 19.34430885314941 0.5036453008651733 19.34442901611328 C 0.5055003762245178 18.81211471557617 0.503781795501709 18.11154937744141 0.5021008849143982 17.42794799804688 C 0.5010308623313904 16.99330902099609 0.5000008940696716 16.57321739196777 0.5000008940696716 16.22379875183105 L 0.5000008940696716 3.53773832321167 C 0.5000008940696716 1.844038367271423 1.416100859642029 0.4131483137607574 2.500460863113403 0.4131483137607574 L 5.834400653839111 0.4131483137607574 C 6.918760776519775 0.4131483137607574 7.834860801696777 1.844038367271423 7.834860801696777 3.53773832321167 L 7.834860801696777 16.22379875183105 C 7.834860801696777 16.55373764038086 7.834210872650146 16.9782886505127 7.833540916442871 17.42341804504395 C 7.832513332366943 18.09789848327637 7.8313889503479 18.83660888671875 7.832435607910156 19.35480499267578 C 7.78799295425415 19.35490036010742 7.740771293640137 19.35494804382324 7.690830707550049 19.35494804382324 Z"/>
        <path class="cls-14" d="M 7.332021236419678 18.85432243347168 C 7.332036018371582 18.41221809387207 7.332812786102295 17.90131568908691 7.333540916442871 17.42265892028809 C 7.334210872650146 16.97780799865723 7.334860801696777 16.55352783203125 7.334860801696777 16.22379875183105 L 7.334860801696777 3.53773832321167 C 7.334860801696777 1.991028308868408 6.544100761413574 0.9131482839584351 5.834400653839111 0.9131482839584351 L 2.500460863113403 0.9131482839584351 C 1.79076087474823 0.9131482839584351 1.000000834465027 1.991028308868408 1.000000834465027 3.53773832321167 L 1.000000834465027 16.22379875183105 C 1.000000834465027 16.57286834716797 1.001030921936035 16.99252891540527 1.002100825309753 17.42672920227051 C 1.003293514251709 17.91274833679199 1.004507899284363 18.40728569030762 1.004444003105164 18.84453201293945 C 1.252385497093201 18.84496116638184 1.513665080070496 18.8458080291748 1.758100867271423 18.84659767150879 C 2.045570850372314 18.8475284576416 2.309610843658447 18.848388671875 2.500460863113403 18.848388671875 L 5.834400653839111 18.848388671875 C 6.040360927581787 18.848388671875 6.328140735626221 18.84979820251465 6.637100696563721 18.851318359375 C 6.865378856658936 18.85243988037109 7.105347156524658 18.85362243652344 7.332021236419678 18.85432243347168 M 7.690835952758789 19.85494804382324 C 7.097259044647217 19.85494804382324 6.276327610015869 19.848388671875 5.834400653839111 19.848388671875 L 2.500460863113403 19.848388671875 C 2.079753160476685 19.848388671875 1.30493438243866 19.8442497253418 0.7043172121047974 19.8442497253418 C 0.4039536118507385 19.8442497253418 0.1472388505935669 19.84528541564941 8.776855224823521e-07 19.848388671875 C 0.009970877319574356 19.08092880249023 8.776855224823521e-07 17.31078910827637 8.776855224823521e-07 16.22379875183105 L 8.776855224823521e-07 3.53773832321167 C 8.776855224823521e-07 1.535928249359131 1.1194908618927 -0.08685169368982315 2.500460863113403 -0.08685169368982315 L 5.834400653839111 -0.08685169368982315 C 7.215370655059814 -0.08685169368982315 8.334860801696777 1.535928249359131 8.334860801696777 3.53773832321167 L 8.334860801696777 16.22379875183105 C 8.334860801696777 17.26472854614258 8.32844066619873 19.24668884277344 8.334860801696777 19.848388671875 C 8.227570533752441 19.85330772399902 7.987596988677979 19.85494804382324 7.690835952758789 19.85494804382324 Z"/>
      </g>
      <g id="Path_5" data-name="Path 5" class="cls-4" transform="translate(210 490)">
        <path class="cls-10" d="M 7.690830707550049 19.35494804382324 C 7.372941017150879 19.35494804382324 6.989680767059326 19.35305786132813 6.634630680084229 19.35130882263184 C 6.326621055603027 19.34979820251465 6.039731025695801 19.348388671875 5.834400653839111 19.348388671875 L 2.500460863113403 19.348388671875 C 2.309200763702393 19.348388671875 2.044580936431885 19.3475284576416 1.756480932235718 19.34659767150879 C 1.410960912704468 19.34547805786133 1.031790852546692 19.34424781799316 0.7043208479881287 19.34424781799316 C 0.6326647400856018 19.34424781799316 0.56581711769104 19.34430885314941 0.5036453008651733 19.34442901611328 C 0.5055003762245178 18.81211471557617 0.503781795501709 18.11154937744141 0.5021008849143982 17.42794799804688 C 0.5010308623313904 16.99330902099609 0.5000008940696716 16.57321739196777 0.5000008940696716 16.22379875183105 L 0.5000008940696716 3.53773832321167 C 0.5000008940696716 1.844038367271423 1.416100859642029 0.4131483137607574 2.500460863113403 0.4131483137607574 L 5.834400653839111 0.4131483137607574 C 6.918760776519775 0.4131483137607574 7.834860801696777 1.844038367271423 7.834860801696777 3.53773832321167 L 7.834860801696777 16.22379875183105 C 7.834860801696777 16.55373764038086 7.834210872650146 16.9782886505127 7.833540916442871 17.42341804504395 C 7.832513332366943 18.09789848327637 7.8313889503479 18.83660888671875 7.832435607910156 19.35480499267578 C 7.78799295425415 19.35490036010742 7.740771293640137 19.35494804382324 7.690830707550049 19.35494804382324 Z"/>
        <path class="cls-14" d="M 7.332021236419678 18.85432243347168 C 7.332036018371582 18.41221809387207 7.332812786102295 17.90131568908691 7.333540916442871 17.42265892028809 C 7.334210872650146 16.97780799865723 7.334860801696777 16.55352783203125 7.334860801696777 16.22379875183105 L 7.334860801696777 3.53773832321167 C 7.334860801696777 1.991028308868408 6.544100761413574 0.9131482839584351 5.834400653839111 0.9131482839584351 L 2.500460863113403 0.9131482839584351 C 1.79076087474823 0.9131482839584351 1.000000834465027 1.991028308868408 1.000000834465027 3.53773832321167 L 1.000000834465027 16.22379875183105 C 1.000000834465027 16.57286834716797 1.001030921936035 16.99252891540527 1.002100825309753 17.42672920227051 C 1.003293514251709 17.91274833679199 1.004507899284363 18.40728569030762 1.004444003105164 18.84453201293945 C 1.252385497093201 18.84496116638184 1.513665080070496 18.8458080291748 1.758100867271423 18.84659767150879 C 2.045570850372314 18.8475284576416 2.309610843658447 18.848388671875 2.500460863113403 18.848388671875 L 5.834400653839111 18.848388671875 C 6.040360927581787 18.848388671875 6.328140735626221 18.84979820251465 6.637100696563721 18.851318359375 C 6.865378856658936 18.85243988037109 7.105347156524658 18.85362243652344 7.332021236419678 18.85432243347168 M 7.690835952758789 19.85494804382324 C 7.097259044647217 19.85494804382324 6.276327610015869 19.848388671875 5.834400653839111 19.848388671875 L 2.500460863113403 19.848388671875 C 2.079753160476685 19.848388671875 1.30493438243866 19.8442497253418 0.7043172121047974 19.8442497253418 C 0.4039536118507385 19.8442497253418 0.1472388505935669 19.84528541564941 8.776855224823521e-07 19.848388671875 C 0.009970877319574356 19.08092880249023 8.776855224823521e-07 17.31078910827637 8.776855224823521e-07 16.22379875183105 L 8.776855224823521e-07 3.53773832321167 C 8.776855224823521e-07 1.535928249359131 1.1194908618927 -0.08685169368982315 2.500460863113403 -0.08685169368982315 L 5.834400653839111 -0.08685169368982315 C 7.215370655059814 -0.08685169368982315 8.334860801696777 1.535928249359131 8.334860801696777 3.53773832321167 L 8.334860801696777 16.22379875183105 C 8.334860801696777 17.26472854614258 8.32844066619873 19.24668884277344 8.334860801696777 19.848388671875 C 8.227570533752441 19.85330772399902 7.987596988677979 19.85494804382324 7.690835952758789 19.85494804382324 Z"/>
      </g>
      <g id="Path_6" data-name="Path 6" class="cls-4" transform="translate(226 490)">
        <path class="cls-10" d="M 7.690830707550049 19.35494804382324 C 7.372941017150879 19.35494804382324 6.989680767059326 19.35305786132813 6.634630680084229 19.35130882263184 C 6.326621055603027 19.34979820251465 6.039731025695801 19.348388671875 5.834400653839111 19.348388671875 L 2.500460863113403 19.348388671875 C 2.309200763702393 19.348388671875 2.044580936431885 19.3475284576416 1.756480932235718 19.34659767150879 C 1.410960912704468 19.34547805786133 1.031790852546692 19.34424781799316 0.7043208479881287 19.34424781799316 C 0.6326647400856018 19.34424781799316 0.56581711769104 19.34430885314941 0.5036453008651733 19.34442901611328 C 0.5055003762245178 18.81211471557617 0.503781795501709 18.11154937744141 0.5021008849143982 17.42794799804688 C 0.5010308623313904 16.99330902099609 0.5000008940696716 16.57321739196777 0.5000008940696716 16.22379875183105 L 0.5000008940696716 3.53773832321167 C 0.5000008940696716 1.844038367271423 1.416100859642029 0.4131483137607574 2.500460863113403 0.4131483137607574 L 5.834400653839111 0.4131483137607574 C 6.918760776519775 0.4131483137607574 7.834860801696777 1.844038367271423 7.834860801696777 3.53773832321167 L 7.834860801696777 16.22379875183105 C 7.834860801696777 16.55373764038086 7.834210872650146 16.9782886505127 7.833540916442871 17.42341804504395 C 7.832513332366943 18.09789848327637 7.8313889503479 18.83660888671875 7.832435607910156 19.35480499267578 C 7.78799295425415 19.35490036010742 7.740771293640137 19.35494804382324 7.690830707550049 19.35494804382324 Z"/>
        <path class="cls-14" d="M 7.332021236419678 18.85432243347168 C 7.332036018371582 18.41221809387207 7.332812786102295 17.90131568908691 7.333540916442871 17.42265892028809 C 7.334210872650146 16.97780799865723 7.334860801696777 16.55352783203125 7.334860801696777 16.22379875183105 L 7.334860801696777 3.53773832321167 C 7.334860801696777 1.991028308868408 6.544100761413574 0.9131482839584351 5.834400653839111 0.9131482839584351 L 2.500460863113403 0.9131482839584351 C 1.79076087474823 0.9131482839584351 1.000000834465027 1.991028308868408 1.000000834465027 3.53773832321167 L 1.000000834465027 16.22379875183105 C 1.000000834465027 16.57286834716797 1.001030921936035 16.99252891540527 1.002100825309753 17.42672920227051 C 1.003293514251709 17.91274833679199 1.004507899284363 18.40728569030762 1.004444003105164 18.84453201293945 C 1.252385497093201 18.84496116638184 1.513665080070496 18.8458080291748 1.758100867271423 18.84659767150879 C 2.045570850372314 18.8475284576416 2.309610843658447 18.848388671875 2.500460863113403 18.848388671875 L 5.834400653839111 18.848388671875 C 6.040360927581787 18.848388671875 6.328140735626221 18.84979820251465 6.637100696563721 18.851318359375 C 6.865378856658936 18.85243988037109 7.105347156524658 18.85362243652344 7.332021236419678 18.85432243347168 M 7.690835952758789 19.85494804382324 C 7.097259044647217 19.85494804382324 6.276327610015869 19.848388671875 5.834400653839111 19.848388671875 L 2.500460863113403 19.848388671875 C 2.079753160476685 19.848388671875 1.30493438243866 19.8442497253418 0.7043172121047974 19.8442497253418 C 0.4039536118507385 19.8442497253418 0.1472388505935669 19.84528541564941 8.776855224823521e-07 19.848388671875 C 0.009970877319574356 19.08092880249023 8.776855224823521e-07 17.31078910827637 8.776855224823521e-07 16.22379875183105 L 8.776855224823521e-07 3.53773832321167 C 8.776855224823521e-07 1.535928249359131 1.1194908618927 -0.08685169368982315 2.500460863113403 -0.08685169368982315 L 5.834400653839111 -0.08685169368982315 C 7.215370655059814 -0.08685169368982315 8.334860801696777 1.535928249359131 8.334860801696777 3.53773832321167 L 8.334860801696777 16.22379875183105 C 8.334860801696777 17.26472854614258 8.32844066619873 19.24668884277344 8.334860801696777 19.848388671875 C 8.227570533752441 19.85330772399902 7.987596988677979 19.85494804382324 7.690835952758789 19.85494804382324 Z"/>
      </g>
      <g id="Path_7" data-name="Path 7" class="cls-4" transform="translate(242 490)">
        <path class="cls-10" d="M 7.690830707550049 19.35494804382324 C 7.372941017150879 19.35494804382324 6.989680767059326 19.35305786132813 6.634630680084229 19.35130882263184 C 6.326621055603027 19.34979820251465 6.039731025695801 19.348388671875 5.834400653839111 19.348388671875 L 2.500460863113403 19.348388671875 C 2.309200763702393 19.348388671875 2.044580936431885 19.3475284576416 1.756480932235718 19.34659767150879 C 1.410960912704468 19.34547805786133 1.031790852546692 19.34424781799316 0.7043208479881287 19.34424781799316 C 0.6326647400856018 19.34424781799316 0.56581711769104 19.34430885314941 0.5036453008651733 19.34442901611328 C 0.5055003762245178 18.81211471557617 0.503781795501709 18.11154937744141 0.5021008849143982 17.42794799804688 C 0.5010308623313904 16.99330902099609 0.5000008940696716 16.57321739196777 0.5000008940696716 16.22379875183105 L 0.5000008940696716 3.53773832321167 C 0.5000008940696716 1.844038367271423 1.416100859642029 0.4131483137607574 2.500460863113403 0.4131483137607574 L 5.834400653839111 0.4131483137607574 C 6.918760776519775 0.4131483137607574 7.834860801696777 1.844038367271423 7.834860801696777 3.53773832321167 L 7.834860801696777 16.22379875183105 C 7.834860801696777 16.55373764038086 7.834210872650146 16.9782886505127 7.833540916442871 17.42341804504395 C 7.832513332366943 18.09789848327637 7.8313889503479 18.83660888671875 7.832435607910156 19.35480499267578 C 7.78799295425415 19.35490036010742 7.740771293640137 19.35494804382324 7.690830707550049 19.35494804382324 Z"/>
        <path class="cls-14" d="M 7.332021236419678 18.85432243347168 C 7.332036018371582 18.41221809387207 7.332812786102295 17.90131568908691 7.333540916442871 17.42265892028809 C 7.334210872650146 16.97780799865723 7.334860801696777 16.55352783203125 7.334860801696777 16.22379875183105 L 7.334860801696777 3.53773832321167 C 7.334860801696777 1.991028308868408 6.544100761413574 0.9131482839584351 5.834400653839111 0.9131482839584351 L 2.500460863113403 0.9131482839584351 C 1.79076087474823 0.9131482839584351 1.000000834465027 1.991028308868408 1.000000834465027 3.53773832321167 L 1.000000834465027 16.22379875183105 C 1.000000834465027 16.57286834716797 1.001030921936035 16.99252891540527 1.002100825309753 17.42672920227051 C 1.003293514251709 17.91274833679199 1.004507899284363 18.40728569030762 1.004444003105164 18.84453201293945 C 1.252385497093201 18.84496116638184 1.513665080070496 18.8458080291748 1.758100867271423 18.84659767150879 C 2.045570850372314 18.8475284576416 2.309610843658447 18.848388671875 2.500460863113403 18.848388671875 L 5.834400653839111 18.848388671875 C 6.040360927581787 18.848388671875 6.328140735626221 18.84979820251465 6.637100696563721 18.851318359375 C 6.865378856658936 18.85243988037109 7.105347156524658 18.85362243652344 7.332021236419678 18.85432243347168 M 7.690835952758789 19.85494804382324 C 7.097259044647217 19.85494804382324 6.276327610015869 19.848388671875 5.834400653839111 19.848388671875 L 2.500460863113403 19.848388671875 C 2.079753160476685 19.848388671875 1.30493438243866 19.8442497253418 0.7043172121047974 19.8442497253418 C 0.4039536118507385 19.8442497253418 0.1472388505935669 19.84528541564941 8.776855224823521e-07 19.848388671875 C 0.009970877319574356 19.08092880249023 8.776855224823521e-07 17.31078910827637 8.776855224823521e-07 16.22379875183105 L 8.776855224823521e-07 3.53773832321167 C 8.776855224823521e-07 1.535928249359131 1.1194908618927 -0.08685169368982315 2.500460863113403 -0.08685169368982315 L 5.834400653839111 -0.08685169368982315 C 7.215370655059814 -0.08685169368982315 8.334860801696777 1.535928249359131 8.334860801696777 3.53773832321167 L 8.334860801696777 16.22379875183105 C 8.334860801696777 17.26472854614258 8.32844066619873 19.24668884277344 8.334860801696777 19.848388671875 C 8.227570533752441 19.85330772399902 7.987596988677979 19.85494804382324 7.690835952758789 19.85494804382324 Z"/>
      </g>
      <g id="Path_8" data-name="Path 8" class="cls-4" transform="translate(258 490)">
        <path class="cls-10" d="M 7.690830707550049 19.35494804382324 C 7.372941017150879 19.35494804382324 6.989680767059326 19.35305786132813 6.634630680084229 19.35130882263184 C 6.326621055603027 19.34979820251465 6.039731025695801 19.348388671875 5.834400653839111 19.348388671875 L 2.500460863113403 19.348388671875 C 2.309200763702393 19.348388671875 2.044580936431885 19.3475284576416 1.756480932235718 19.34659767150879 C 1.410960912704468 19.34547805786133 1.031790852546692 19.34424781799316 0.7043208479881287 19.34424781799316 C 0.6326647400856018 19.34424781799316 0.56581711769104 19.34430885314941 0.5036453008651733 19.34442901611328 C 0.5055003762245178 18.81211471557617 0.503781795501709 18.11154937744141 0.5021008849143982 17.42794799804688 C 0.5010308623313904 16.99330902099609 0.5000008940696716 16.57321739196777 0.5000008940696716 16.22379875183105 L 0.5000008940696716 3.53773832321167 C 0.5000008940696716 1.844038367271423 1.416100859642029 0.4131483137607574 2.500460863113403 0.4131483137607574 L 5.834400653839111 0.4131483137607574 C 6.918760776519775 0.4131483137607574 7.834860801696777 1.844038367271423 7.834860801696777 3.53773832321167 L 7.834860801696777 16.22379875183105 C 7.834860801696777 16.55373764038086 7.834210872650146 16.9782886505127 7.833540916442871 17.42341804504395 C 7.832513332366943 18.09789848327637 7.8313889503479 18.83660888671875 7.832435607910156 19.35480499267578 C 7.78799295425415 19.35490036010742 7.740771293640137 19.35494804382324 7.690830707550049 19.35494804382324 Z"/>
        <path class="cls-14" d="M 7.332021236419678 18.85432243347168 C 7.332036018371582 18.41221809387207 7.332812786102295 17.90131568908691 7.333540916442871 17.42265892028809 C 7.334210872650146 16.97780799865723 7.334860801696777 16.55352783203125 7.334860801696777 16.22379875183105 L 7.334860801696777 3.53773832321167 C 7.334860801696777 1.991028308868408 6.544100761413574 0.9131482839584351 5.834400653839111 0.9131482839584351 L 2.500460863113403 0.9131482839584351 C 1.79076087474823 0.9131482839584351 1.000000834465027 1.991028308868408 1.000000834465027 3.53773832321167 L 1.000000834465027 16.22379875183105 C 1.000000834465027 16.57286834716797 1.001030921936035 16.99252891540527 1.002100825309753 17.42672920227051 C 1.003293514251709 17.91274833679199 1.004507899284363 18.40728569030762 1.004444003105164 18.84453201293945 C 1.252385497093201 18.84496116638184 1.513665080070496 18.8458080291748 1.758100867271423 18.84659767150879 C 2.045570850372314 18.8475284576416 2.309610843658447 18.848388671875 2.500460863113403 18.848388671875 L 5.834400653839111 18.848388671875 C 6.040360927581787 18.848388671875 6.328140735626221 18.84979820251465 6.637100696563721 18.851318359375 C 6.865378856658936 18.85243988037109 7.105347156524658 18.85362243652344 7.332021236419678 18.85432243347168 M 7.690835952758789 19.85494804382324 C 7.097259044647217 19.85494804382324 6.276327610015869 19.848388671875 5.834400653839111 19.848388671875 L 2.500460863113403 19.848388671875 C 2.079753160476685 19.848388671875 1.30493438243866 19.8442497253418 0.7043172121047974 19.8442497253418 C 0.4039536118507385 19.8442497253418 0.1472388505935669 19.84528541564941 8.776855224823521e-07 19.848388671875 C 0.009970877319574356 19.08092880249023 8.776855224823521e-07 17.31078910827637 8.776855224823521e-07 16.22379875183105 L 8.776855224823521e-07 3.53773832321167 C 8.776855224823521e-07 1.535928249359131 1.1194908618927 -0.08685169368982315 2.500460863113403 -0.08685169368982315 L 5.834400653839111 -0.08685169368982315 C 7.215370655059814 -0.08685169368982315 8.334860801696777 1.535928249359131 8.334860801696777 3.53773832321167 L 8.334860801696777 16.22379875183105 C 8.334860801696777 17.26472854614258 8.32844066619873 19.24668884277344 8.334860801696777 19.848388671875 C 8.227570533752441 19.85330772399902 7.987596988677979 19.85494804382324 7.690835952758789 19.85494804382324 Z"/>
      </g>
      <g id="Path_9" data-name="Path 9" class="cls-4" transform="translate(274 490)">
        <path class="cls-10" d="M 7.690830707550049 19.35494804382324 C 7.372941017150879 19.35494804382324 6.989680767059326 19.35305786132813 6.634630680084229 19.35130882263184 C 6.326621055603027 19.34979820251465 6.039731025695801 19.348388671875 5.834400653839111 19.348388671875 L 2.500460863113403 19.348388671875 C 2.309200763702393 19.348388671875 2.044580936431885 19.3475284576416 1.756480932235718 19.34659767150879 C 1.410960912704468 19.34547805786133 1.031790852546692 19.34424781799316 0.7043208479881287 19.34424781799316 C 0.6326647400856018 19.34424781799316 0.56581711769104 19.34430885314941 0.5036453008651733 19.34442901611328 C 0.5055003762245178 18.81211471557617 0.503781795501709 18.11154937744141 0.5021008849143982 17.42794799804688 C 0.5010308623313904 16.99330902099609 0.5000008940696716 16.57321739196777 0.5000008940696716 16.22379875183105 L 0.5000008940696716 3.53773832321167 C 0.5000008940696716 1.844038367271423 1.416100859642029 0.4131483137607574 2.500460863113403 0.4131483137607574 L 5.834400653839111 0.4131483137607574 C 6.918760776519775 0.4131483137607574 7.834860801696777 1.844038367271423 7.834860801696777 3.53773832321167 L 7.834860801696777 16.22379875183105 C 7.834860801696777 16.55373764038086 7.834210872650146 16.9782886505127 7.833540916442871 17.42341804504395 C 7.832513332366943 18.09789848327637 7.8313889503479 18.83660888671875 7.832435607910156 19.35480499267578 C 7.78799295425415 19.35490036010742 7.740771293640137 19.35494804382324 7.690830707550049 19.35494804382324 Z"/>
        <path class="cls-14" d="M 7.332021236419678 18.85432243347168 C 7.332036018371582 18.41221809387207 7.332812786102295 17.90131568908691 7.333540916442871 17.42265892028809 C 7.334210872650146 16.97780799865723 7.334860801696777 16.55352783203125 7.334860801696777 16.22379875183105 L 7.334860801696777 3.53773832321167 C 7.334860801696777 1.991028308868408 6.544100761413574 0.9131482839584351 5.834400653839111 0.9131482839584351 L 2.500460863113403 0.9131482839584351 C 1.79076087474823 0.9131482839584351 1.000000834465027 1.991028308868408 1.000000834465027 3.53773832321167 L 1.000000834465027 16.22379875183105 C 1.000000834465027 16.57286834716797 1.001030921936035 16.99252891540527 1.002100825309753 17.42672920227051 C 1.003293514251709 17.91274833679199 1.004507899284363 18.40728569030762 1.004444003105164 18.84453201293945 C 1.252385497093201 18.84496116638184 1.513665080070496 18.8458080291748 1.758100867271423 18.84659767150879 C 2.045570850372314 18.8475284576416 2.309610843658447 18.848388671875 2.500460863113403 18.848388671875 L 5.834400653839111 18.848388671875 C 6.040360927581787 18.848388671875 6.328140735626221 18.84979820251465 6.637100696563721 18.851318359375 C 6.865378856658936 18.85243988037109 7.105347156524658 18.85362243652344 7.332021236419678 18.85432243347168 M 7.690835952758789 19.85494804382324 C 7.097259044647217 19.85494804382324 6.276327610015869 19.848388671875 5.834400653839111 19.848388671875 L 2.500460863113403 19.848388671875 C 2.079753160476685 19.848388671875 1.30493438243866 19.8442497253418 0.7043172121047974 19.8442497253418 C 0.4039536118507385 19.8442497253418 0.1472388505935669 19.84528541564941 8.776855224823521e-07 19.848388671875 C 0.009970877319574356 19.08092880249023 8.776855224823521e-07 17.31078910827637 8.776855224823521e-07 16.22379875183105 L 8.776855224823521e-07 3.53773832321167 C 8.776855224823521e-07 1.535928249359131 1.1194908618927 -0.08685169368982315 2.500460863113403 -0.08685169368982315 L 5.834400653839111 -0.08685169368982315 C 7.215370655059814 -0.08685169368982315 8.334860801696777 1.535928249359131 8.334860801696777 3.53773832321167 L 8.334860801696777 16.22379875183105 C 8.334860801696777 17.26472854614258 8.32844066619873 19.24668884277344 8.334860801696777 19.848388671875 C 8.227570533752441 19.85330772399902 7.987596988677979 19.85494804382324 7.690835952758789 19.85494804382324 Z"/>
      </g>
    </g>
    <path id="Path_1" data-name="Path 1" class="cls-5" d="M151.86,374.782"/>
    <g id="Group_4" data-name="Group 4">
      <g id="Rectangle_3" data-name="Rectangle 3" class="cls-1" transform="translate(193 282)">
        <rect class="cls-10" width="74" height="8" rx="4"/>
        <rect class="cls-11" x="0.5" y="0.5" width="73" height="7" rx="3.5"/>
      </g>
      <g id="Rectangle_4" data-name="Rectangle 4" class="cls-1" transform="translate(193 314)">
        <rect class="cls-10" width="74" height="8" rx="4"/>
        <rect class="cls-11" x="0.5" y="0.5" width="73" height="7" rx="3.5"/>
      </g>
      <g id="Rectangle_5" data-name="Rectangle 5" class="cls-1" transform="translate(193 346)">
        <rect class="cls-10" width="74" height="8" rx="4"/>
        <rect class="cls-11" x="0.5" y="0.5" width="73" height="7" rx="3.5"/>
      </g>
    </g>
    <g id="Ellipse_1" data-name="Ellipse 1" class="cls-6" transform="translate(206 197)">
      <circle class="cls-10" cx="24.5" cy="24.5" r="24.5"/>
      <circle class="cls-11" cx="24.5" cy="24.5" r="24"/>
    </g>
    <g id="Ellipse_2" data-name="Ellipse 2" class="cls-7" transform="translate(222 213)">
      <circle class="cls-10" cx="8.5" cy="8.5" r="8.5"/>
      <circle class="cls-11" cx="8.5" cy="8.5" r="8"/>
    </g>
    <g id="Group_1" data-name="Group 1">
      <g id="Group_3" data-name="Group 3">
        <g id="Ellipse_3" data-name="Ellipse 3" class="cls-8" transform="translate(174 437)">
          <circle class="cls-10" cx="8.5" cy="8.5" r="8.5"/>
          <circle class="cls-11" cx="8.5" cy="8.5" r="8"/>
        </g>
        <g id="Ellipse_4" data-name="Ellipse 4" class="cls-8" transform="translate(206 437)">
          <circle class="cls-10" cx="8.5" cy="8.5" r="8.5"/>
          <circle class="cls-11" cx="8.5" cy="8.5" r="8"/>
        </g>
        <g id="Ellipse_5" data-name="Ellipse 5" class="cls-8" transform="translate(238 437)">
          <circle class="cls-10" cx="8.5" cy="8.5" r="8.5"/>
          <circle class="cls-11" cx="8.5" cy="8.5" r="8"/>
        </g>
      </g>
      <g id="Ellipse_6" data-name="Ellipse 6" class="cls-7" transform="translate(270 437)">
        <circle class="cls-10" cx="8.5" cy="8.5" r="8.5"/>
        <circle class="cls-11" cx="8.5" cy="8.5" r="8"/>
      </g>
    </g>
    <text id="UPS" class="cls-9" transform="translate(212 397)"><tspan x="0" y="0">UPS</tspan></text>
  </g>
</svg>
