<svg xmlns="http://www.w3.org/2000/svg" width="1228" height="1228" viewBox="0 0 1228 1228">
  <defs>
    <style>
      .cls-1 {
        fill: #fefefe;
      }

      .cls-2, .cls-5 {
        fill: none;
      }

      .cls-2 {
        stroke: #f97603;
        stroke-width: 20px;
      }

      .cls-3 {
        fill: #fff;
      }

      .cls-4 {
        stroke: none;
      }
    </style>
  </defs>
  <g id="Group_1" data-name="Group 1" transform="translate(-236 -236)">
    <circle id="Ellipse_2" data-name="Ellipse 2" class="cls-1" cx="600" cy="600" r="600" transform="translate(250 250)"/>
    <g id="D21uT501" transform="translate(408 1534)">
      <path id="Path_1" data-name="Path 1" d="M-146.1-796.4c-8.4,38.745-12.955,106.558-7,173.6S-123-471.712-89.734-407.989-11.305-292.1-11.305-292.1L4-322.1a49.4,49.4,0,0,0,6.2-8.9c2.3-4.8,24.8-28,27.1-28,.7,0,2.7-1.4,4.5-3a19.955,19.955,0,0,1,3.8-3c.3,0,6.3-5.4,13.2-12,7-6.6,13.1-12,13.5-12,.5,0,4.3-2.6,8.5-5.8,7-5.3,15.1-11,22-15.4,1.5-.9,6.3-3.5,10.7-5.7s9.7-5.1,11.8-6.5a19.565,19.565,0,0,1,4.8-2.6,10.881,10.881,0,0,0,3.7-1.4c3.1-1.5,15.3-7.2,19.7-9.1,1.7-.7,6-2.6,9.7-4.4a62.509,62.509,0,0,1,7.5-3.1,59.07,59.07,0,0,0,7.3-3.1c8-3.8,11.2-5.2,17-7.4,2.5-.9,5.9-2.3,7.5-3,1.7-.7,5.5-2.3,8.5-3.5s9.2-4,13.8-6.1c4.6-2.2,8.8-3.9,9.5-3.9a38.559,38.559,0,0,0,7.2-2.9c3.3-1.6,6.7-3.2,7.5-3.5a20.99,20.99,0,0,0,3-1.5,44.409,44.409,0,0,1,6-2.6c2.5-.9,5.9-2.3,7.5-3,14.8-6.4,25.3-10.5,26.6-10.5,2.5,0,3.6,2,4.3,8a76.844,76.844,0,0,0,4.2,17.7c.8,1.7,1.4,6.2,1.4,10,0,4.5.5,7.6,1.5,8.9a7.032,7.032,0,0,1,1.5,3.5,4.427,4.427,0,0,0,1.4,2.9c.8.6,1.6,2.8,1.8,4.8.2,2.9.8,3.7,2.8,4.2,3.3.8,3.6,4.6.3,4.2-3.1-.4-2.9.5.9,4.1a33.147,33.147,0,0,1,5.6,7.8c1.8,3.8,3.4,5.3,7.5,7.4,4.5,2.2,5.2,2.4,5.5.9.2-.9-1-3-2.6-4.8-4.3-4.5-5.2-6.8-5.2-13,0-3.4-.5-5.8-1.3-6.3-.7-.4-2.3-2.5-3.6-4.6-1.8-3-2.7-3.6-4.3-3.1-2,.6-3.8-.9-3.8-3.2,0-.6,1.8-1.9,4.1-2.9a40.322,40.322,0,0,0,8.5-6.3c3.4-3.6,4.2-5,3.8-6.9a5.941,5.941,0,0,1,1-4.7c.9-1.4,1.9-5,2.2-8.1.8-6.8,3.8-11.5,13.2-21.1a134.455,134.455,0,0,0,9.6-10.7c1.6-2,3.9-4,5.1-4.3,2.8-.7,6.1-4.1,8.3-8.5a14.945,14.945,0,0,1,4.9-5.4c1.8-1.1,3.2-2.7,3.3-3.5,0-1.8,3.1-8.3,4.3-9,.4-.3,1.7,1.4,2.7,3.8,1.8,4,1.8,4.3.2,4.8-3.7,1.2-6.5,2.9-7,4.4a12.8,12.8,0,0,1-2,3.2c-1.9,2.3-.8,4.8,2.2,4.8a2.829,2.829,0,0,0,3-2.2c.4-1.8.8-2,1.8-1s.5,1.9-2.4,4.6l-3.6,3.5,3.8.6c4.3.7,7.4-.5,9-3.5a3.676,3.676,0,0,1,2.4-2c2.2,0,6.6-4,6.6-6,0-2.2,6.1-6,9.6-6,2.9,0,3.1,1.3.4,4-2,2-2,6.2.1,8.4a6.386,6.386,0,0,1,.9,3.5c0,2.3-.1,2.3-1.8.8-2.4-2.2-3.1-2.1-6.6.7l-3,2.3,2.3,2.9,2.3,2.9-2.4.3a28.893,28.893,0,0,0-5.5,1.8c-3.6,1.6-6.9,1.8-7.8.4-1.1-1.8-8.1-1.1-10.9,1.1-1.4,1.1-2.6,2.5-2.6,3,0,1.5,3,1,3.6-.6.9-2.4,2.8-1.8,6.2,2,4,4.3,4.1,7,.3,8.9-1.6.9-3.1,2.2-3.4,3-.9,2.2-8.1,5.6-12,5.6a13.636,13.636,0,0,0-7.4,2.9,64.274,64.274,0,0,1-8.2,5c-4.6,2.4-6.5,5.5-7.5,12.3-.4,2.5-1.4,5.2-2.2,5.9-1,.8-1.3,2.2-.8,4.6.5,2.7.2,3.8-1.5,5.4-1.9,1.8-2.1,3-2.1,14.5,0,11.6.2,12.8,2.4,15.7,3.2,4.4,3.7,6.2,2.1,8.3-1,1.5-1,2.2,0,3.9.7,1.1,1.8,5.4,2.4,9.5.7,4.4,2.1,8.8,3.4,10.7,2.6,3.9,4.1,4.2,3.4.7-.4-2.1-.1-2.5,1.7-2.2,1.7.2,2.2,1.1,2.4,4.3.3,4,1.8,8.4,4.9,14,.9,1.6,2.4,4.4,3.3,6.1s3.5,5.9,5.8,9.4c2.3,3.4,4.2,6.8,4.2,7.5,0,.8,1.1,2.6,2.4,4.2a37.637,37.637,0,0,1,3.9,5.9c.9,1.7,4.4,5.4,7.9,8.3,3.5,2.8,10.1,8.3,14.8,12.2,4.7,3.8,10.5,7.9,13,9.1,5.3,2.5,6.7,4,12.1,13.1a82.972,82.972,0,0,0,9.8,12.7c5.2,5.4,6.2,7,8.5,14.8,1.5,4.8,4,11.8,5.6,15.7a78.519,78.519,0,0,1,3.4,9.5c.5,2.8,2.5,10.7,3.3,13,.8,2.7,3.1-1.8,3.9-7.7.4-3.7.2-6.2-.6-7.8-1.3-2.5-.6-7.5,1-7.5.6,0,1,1.8,1,4,0,4.1,1.6,5.5,2.6,2.2a18.666,18.666,0,0,1,1.5-3.2c.5-.8,1.2-2.2,1.6-3a24.59,24.59,0,0,1,3.5-4.8c1.5-1.8,2.8-4,2.8-4.8,0-.9,1.4-3.6,3-6.1a45.716,45.716,0,0,0,4.4-7.7,54.711,54.711,0,0,1,6-9.5c2.5-3.5,4.6-7.3,4.6-8.4,0-1.2,3.2-5.4,7.8-10.2,9.9-10.4,19.2-21.1,19.2-22.2,0-.4,2.7-4,6.1-7.8,7.8-9.1,11.9-14.9,11.9-17,0-1.8,2.2-12.5,4.2-20.5,1-4,2.8-29.8,2.8-40.6,0-4.7,1.6-6.5,5.1-6.2,2.3.3,2.4-.1,2.7-5.5.3-5.5.2-5.7-2.3-5.7a3.778,3.778,0,0,0-3.6,2.2c-.6,1.3-3.5,4.1-6.4,6.3-3,2.2-5.4,4.5-5.5,5.1,0,1.8-5.6,6.5-10.6,8.9a54.128,54.128,0,0,0-10.8,7.9c-3.2,3.1-6.1,5.6-6.5,5.6a23.177,23.177,0,0,0-4,3c-1.8,1.7-4.4,3-5.6,3-1.3,0-4.4,1.8-7,3.9a37.58,37.58,0,0,1-18.5,8,25.358,25.358,0,0,0-7,2.1c-1.7,1-5.8,1.4-12.5,1.5-6.1,0-10.9.5-12.2,1.3-1.2.6-5.1,1.2-8.7,1.2-6.7,0-8.8,1.4-3.8,2.6a15.056,15.056,0,0,1,5.4,3.5c2.7,2.9,4.8,3.7,4.8,1.9a.945.945,0,0,0-1-1c-.5,0-1-.9-1-2,0-2.5,2.6-2.6,3.2-.2.8,2.9,7,3.5,12.4,1.1,5.3-2.2,10.9-2.6,8.4-.6-2,1.7-6,7.4-6,8.6,0,.6-1.2,1.8-2.7,2.8a42.3,42.3,0,0,0-5.8,4.4c-4,3.6-6,4.1-12.5,2.8-3-.6-7.5-1.3-10-1.7-4.9-.8-6.2-3.2-2.3-4.2,2.8-.7,6.7-5.6,5.9-7.5-.4-1.2-2-1.5-6.1-1.3-6.7.3-8.5-1.2-9.2-7.6-.7-5.5-2.3-7.2-5.3-5.6-1.7.9-3.3.8-7.3-.6-8.2-2.6-13-4.4-16-6a13.385,13.385,0,0,0-4.2-1.4c-2.3,0-10.6-4.6-19-10.5-4.4-3.1-9.3-6.4-10.8-7.3-2.6-1.6-2.8-2-2.4-7.2a34.424,34.424,0,0,1,1.2-7.7c.5-1.6-.2-3-3.4-6.4l-4.1-4.4.1-9.3c.1-5.1.6-9.5,1-9.8.5-.3.9-3.4.9-6.9,0-5.7.3-6.7,3.1-9.7a23.063,23.063,0,0,0,4-5.7c.8-1.9,1.4-2.2,3.7-1.6a41.292,41.292,0,0,0,7.2.9l4.5.1-.3,4.7c-.2,3.7.1,4.9,1.7,6,2.3,1.6,1.9,5.8-.5,5.8-.8,0-1.4.5-1.4,1,0,.6-1.2,1.5-2.6,2-1.9.8-2.5,1.6-2.1,3,.3,1,.1,2-.5,2.2-.5.2-.9,3.1-1,6.4-.1,5.5-.3,6.2-2.9,7.7-3,1.7-3.8,4.2-1.6,4.9,2.3.9,7.7-1.2,9.2-3.6,1.4-2.1,1.4-3.1.2-8.4l-1.4-6.1,2.8-2.7c1.6-1.5,2.9-3.6,2.9-4.5a3.307,3.307,0,0,1,1.3-2.6c.7-.4,1.7-2.1,2.2-3.7.7-2,2.6-3.8,6-5.7,5.2-2.9,9.3-8.5,7.5-10.3-1.4-1.4-1.2-2.6.5-2.6a1.442,1.442,0,0,1,1.5,1.3c0,.8,1.1,2.4,2.5,3.7s2.5,3.1,2.5,4.1c0,1.9,3.5,3.6,10.5,4.8a70.853,70.853,0,0,1,7.2,1.6c1.9.6,2.3.2,2.8-2.9.8-4.1,4.2-6.8,8.9-7,3-.1,3.1.1,3.6,4.3.6,5,2.3,6.3,4,3.1,1.1-2,1.7-2.1,6.4-1.6a22.4,22.4,0,0,0,8-.3l2.7-1.1-2.7-3.5c-2.5-3.3-3.1-3.6-7.8-3.5-12.2.3-31-1.1-33.9-2.5a22.213,22.213,0,0,0-7.9-1.5c-3.2,0-4.8-.4-4.8-1.3.1-1.6,6.4-4.7,9.8-4.7,3.2,0,5.2-1.6,5.2-4.2a2.74,2.74,0,0,1,2.3-2.3c2.7-.7,41.4.4,49.4,1.3.7.1,1.6,2,1.9,4.2l.6,3.9,4.2-.5q4.05-.6,6,.9c2.7,2,1.1,3.7-3.4,3.7-2.1,0-4.2.4-4.5,1-.3.5-2.1,1-3.8,1a10.97,10.97,0,0,0-4.7,1c-1.3.8-1.2,1,.2,1a4.189,4.189,0,0,1,3,2c.7,1.1,1.8,2,2.4,2,2.5,0,7.4,7,7.4,10.5a6.089,6.089,0,0,0,2.6,5.4c3.5,2.8,3.9,2.7,6.3-1.4l2.1-3.6-2-3.7a16.572,16.572,0,0,1-2-5.4c0-2.2,3.8-3.2,8.6-2.3,3.7.7,7.4-1.3,7.4-4,0-1.3,3-2.5,6.4-2.5,2.7,0,9.4,3.4,13.3,6.7,1.8,1.6,5.5,4.4,8.2,6.3,2.8,1.9,5.1,4,5.1,4.6a2.221,2.221,0,0,0,1.6,1.8c1.4.5,1.6,1.6,1.1,6.1-.3,3-.2,5.7.2,5.9a27.488,27.488,0,0,0,5.8,1.2c4.7.6,5.1.5,5.8-1.7.6-1.8.2-2.8-2.1-4.6-7-5.7-9.1-8.1-11.7-13.5a48.746,48.746,0,0,0-6.2-9.5c-2.4-2.6-3.5-4.8-3.5-6.8,0-3.2-4.3-8.7-9.3-12-3.8-2.5-3.4-4.3,1.1-4.7,3-.2,3.8-.7,4-2.6.4-3-3.4-6.1-7.5-6.2-2.3,0-3.8.8-5.6,2.9l-2.4,2.9-14.9.2c-55.1.7-57.6.6-60.2-1.4-2.3-1.8-3.2-1.9-13.6-.9-9.6,1-11.3.9-12.8-.4-3.5-3.2-1.2-3.8,13.7-3.8,10.2,0,14.8.4,15.6,1.2,2.1,2.1,4.4,1.5,6.7-1.7,2.3-3,2.3-3,11.7-3.1a29.993,29.993,0,0,1,5.2.7c2.6.5,3.3.2,4.3-1.7,1.8-3.4,1.8-3.4,4.1-1.4,1.4,1.3,4.4,2.1,9.6,2.6,6.6.7,7.9.5,9-.9,1.2-1.6,1.2-1.6,1.3,0,0,1-.5,1.8-1.1,1.8s-.9,1.2-.7,2.7c.2,2.3.7,2.7,2.8,2.5,3.9-.5,6.1-.4,11.1.3,4.3.7,4.8.5,5.4-1.5.4-1.2,2.2-2.8,4.1-3.6,4.1-1.7,4.3-2.8.8-5.1-2.5-1.6-2.8-1.6-6.5.5-9.4,5.4-15.4-.3-9.5-9.1l2.5-3.6-2.5-1.6c-2.5-1.6-3.2-4.9-1.2-6.1.7-.4,1.8.2,2.6,1.4,1.8,2.8,3.8,2.8,5.2.1,1.7-3.1.5-5.2-2.4-4.5-1.4.3-2.7.3-2.9-.1-1-1.7,1.4-5.5,4.8-7.4,2.8-1.7,3.5-2.7,3.5-5.3a21.085,21.085,0,0,0-2-7.4,46.283,46.283,0,0,1-3.1-9.1c-.6-2.7-1.7-5.5-2.5-6.2-1.6-1.3-1.9-7.9-.4-7.9.5,0,1.3,1.2,1.6,2.7a21.522,21.522,0,0,0,3.1,6c3.2,4.1,6.3,10.3,6.3,12.3a8.624,8.624,0,0,0,1.4,3.6c.9,1.3,1.6,5.2,1.8,10.2.2,6.5-.1,8.4-1.5,9.9a7.225,7.225,0,0,0-1.7,3c0,.6-1,1.8-2.2,2.6l-2.3,1.6h2.8c1.5.1,4.6-1.1,6.8-2.5,3.4-2.1,4-2.9,3.5-4.9-.3-1.3-.2-2.7.4-3,1.5-.9,5.7,2.6,7.1,5.9a25.67,25.67,0,0,0,4.1,6,19.788,19.788,0,0,1,3.9,7.1c2.7,10.5,5.8,16.5,8.5,16.5,1.9,0,6.2,6.3,8.2,12.4,2.1,6.2,6.3,11.3,9.6,11.8,2.5.4,4.3,3.8,5.8,11.2,1.1,4.9,1,5.7-.6,7.5-1.4,1.6-1.7,3-1.2,6.8.3,2.6.7,5.9.8,7.3.4,3.3,3.3,3.8,4.9.8a8.23,8.23,0,0,1,2.5-3.1c3.4-2,4.8-17.3,2.1-22.4-1.7-3.3-3.7-11.2-3.7-14.8,0-4.2,3.7-4.4,5.5-.2a8.716,8.716,0,0,0,3.3,3.3c4,2,4.5,3,5.3,11.1.4,4.3,1.8,12.5,2.9,18.3,1.2,5.8,2.4,13.2,2.7,16.5.2,3.2,1,7.1,1.8,8.5a39.933,39.933,0,0,1,2.1,9l.8,6.5.9-5c.6-3.6.4-7.2-.6-13-.9-4.4-2.3-13.4-3.1-20-.9-6.6-2.1-14.9-2.7-18.5s-1.4-9-1.9-12.1a64.852,64.852,0,0,0-1.9-9.1c-2-6.2-1.8-15.8.4-20.6,1.8-3.9,2.3-4.2,5-3.9a40.5,40.5,0,0,1,6,1.5c5,1.8,19.4,5.5,27.5,7.1a25.31,25.31,0,0,1,5.5,1.8c1.1.5,3.5,1.7,5.3,2.6a16.61,16.61,0,0,0,5.1,1.7,7.454,7.454,0,0,1,3.6,1.4,16.478,16.478,0,0,0,4.5,1.9,47.084,47.084,0,0,1,5.5,1.6c4,1.5,26.2,9,30,10.1,1.7.5,5.3,1.6,8,2.4,2.8.8,7.5,2.4,10.5,3.6s6.6,2.5,8,3,5,1.8,8,3,6.9,2.6,8.5,3c1.7.5,4.8,1.5,7,2.4,5.8,2.2,19.4,7.2,23.5,8.7,12.5,4.4,15,5.4,31.3,12.8A53.851,53.851,0,0,0,775-428c1.1,0,10.5,4.9,17,8.9,1.9,1.1,4.2,2.4,5,2.8,1.3.6,7.9,5,17.5,11.7,13.3,9.3,40,33.9,42.9,39.4a15.759,15.759,0,0,0,5.1,5.2c1.9,1.2,3.5,2.5,3.5,3,0,.4,2,3.2,4.5,6.2s4.5,6,4.5,6.6c0,.7,2.7,3.9,6,7.2,6.1,6.2,14.554,20.369,14.554,20.369l8.08,14.813S963.647-369.25,999.1-465.5s36.095-102.752,40.828-216.7-30.177-207.421-82.249-303.279S834.013-1139.325,774.25-1180.153s-140.184-80.818-225.923-93.426S419.612-1288.372,325.5-1271.4s-172.6,59.522-228.966,98.736S-3.6-1089.688-58.572-1011.259-137.7-835.145-146.1-796.4ZM400-1080.1l13.5.9,8.4,5.6c4.6,3.1,9.6,5.9,11,6.3a14.065,14.065,0,0,1,5.3,3.1c3.1,2.8,8.9,5.2,12.8,5.1,2.7,0,10.1-1.9,14-3.6a60.248,60.248,0,0,1,8.3-2.4c5-1.1,6.9-1,14.5.6,12.4,2.5,21.5,3.3,39.4,3.4,9.9.1,15.9.5,16.3,1.2a11.962,11.962,0,0,0,2.8,2,32.143,32.143,0,0,1,3.7,1.8c3,1.7,9.1,4.1,10.7,4.1.9,0,5.4,1.9,10.2,4.2,4.7,2.3,10.1,4.5,12.1,4.9,13.2,2.7,13.9,3.1,24.8,12.8,5.7,5.1,11.9,9.9,13.6,10.7,9.2,4.3,16.6,10.1,16.6,13.2,0,.6,2.3,3,5.2,5.3,16,13.5,27.8,25.6,27.8,28.8,0,1.6,3.5,3.1,7,3.1,7.3,0,14,6.2,14,12.9,0,1.9,1.2,4.7,3,7.3,1.7,2.2,3,4.9,3,5.9s1.4,3.3,3.1,5a27.312,27.312,0,0,1,5,7.5,23.785,23.785,0,0,0,4.4,6.5c2,1.9,2.5,3.4,2.5,7.4.1,8.6,3.1,18.7,6.8,22.9,1.9,2.1,3.2,4.8,3.2,6.3,0,1.4,1.2,4.7,2.6,7.1,2.6,4.4,2.7,4.9,2.1,16.2-.4,10.3-.3,11.9,1.4,14.1,2,2.6,2.6,10.3.9,11.4s-1,3.9,2,7.9c1.7,2.2,3,4.8,3,5.8,0,3.1-1.9,5.8-4.1,5.8a11.767,11.767,0,0,0-4,1c-1.7.9-1.9,2.2-1.9,10.5,0,6.3.5,10.8,1.6,13.4,1.2,3,1.3,4.4.5,6a6.148,6.148,0,0,0-.9,2.8c.4,1.4-3.8,23.7-5.3,28.7a32.546,32.546,0,0,0-.9,7.7c0,6.2-3.3,14.6-7.1,18.1-1.6,1.5-2.9,3.1-2.9,3.7s-2,4.5-4.5,8.7a72.922,72.922,0,0,0-4.5,8.1,22.156,22.156,0,0,1-3,4.3c-1.6,2.1-3,4.3-3,5,0,1.4-5.2,9.1-7.4,10.9a4.928,4.928,0,0,0-1.6,3.2c0,1.7-.6,3.3-4.5,12.4-.7,1.6-1.6,3.7-1.9,4.5-.9,2-2.3,4.3-7.4,11.8-2.3,3.5-4.2,6.6-4.2,7a46.473,46.473,0,0,1-4.6,6.2l-8.8,11c-13.2,16.5-27.6,29-33.5,29-3.7,0-5.9,2.9-6.6,8.5-.4,3-1.3,6-2.1,6.6a3.783,3.783,0,0,0-1.4,2.5c0,1.7-4,8.3-7.2,11.6-2.5,2.7-9.8,6.8-12.2,6.8a2.683,2.683,0,0,0-2,1.5c-.7,1.9-2.6,1.9-2.6,0a1.538,1.538,0,0,1,1.5-1.5c.8,0,1.5-.4,1.5-.8,0-.5,2-3,4.5-5.6,2.5-2.7,4.5-5.5,4.5-6.3a10.992,10.992,0,0,1,1.4-4.1c.7-1.5,3.7-7.4,6.5-13.2,2.9-5.8,6.1-11.9,7.1-13.5,5.8-9.3,7.8-16.3,9-30.8.9-12.1.4-15.1-3.7-20.6-3.2-4.2-9.6-10.1-11.1-10.1a4.29,4.29,0,0,1-2.2-1.5,4.571,4.571,0,0,0-3-1.5c-.9,0-3.6-1.4-5.8-3-2.3-1.7-4.7-3-5.2-3-2.7,0-20-20.4-20-23.6a14.49,14.49,0,0,0-2.2-5.2c-1.6-2.6-2.3-5.8-2.8-12.3-.5-6.2-1.2-9.4-2.3-10.7-1-1.1-1.7-3.5-1.7-5.8a18.329,18.329,0,0,0-1.5-6.8,13.257,13.257,0,0,1-1.5-4.7,2.9,2.9,0,0,0-.9-2.3c-.5-.3-2.6-3.9-4.6-7.8a86.707,86.707,0,0,0-6-10.4c-3.4-4.5-32.9-23.8-39.5-25.9-12.9-4-14.9-4.5-17.2-4.5a29.79,29.79,0,0,1-6.9-1.4,131.8,131.8,0,0,0-14.4-3c-5.5-.9-12.2-2.1-15-2.6-2.7-.6-9.9-1.5-15.9-2-6-.6-11.7-1.5-12.7-2a13.681,13.681,0,0,0-5.6-1,28.44,28.44,0,0,1-7.2-1,15.794,15.794,0,0,0-7.5,0c-5.6,1.2-15.4,3.1-19.1,3.7a26.571,26.571,0,0,0-6.5,2,265.985,265.985,0,0,1-31.5,11.8c-9.1,2.6-9.9,3.2-19.5,13.1-9.4,9.7-10.7,12-18,30.4-2.6,6.4-6.5,12-8.5,12-1.7,0-12.3,13.9-14.8,19.3A20.084,20.084,0,0,0,287-718c0,7.8-16.1,36-22.4,39.3a31.163,31.163,0,0,1-5.9,2.3,6.311,6.311,0,0,0-3.3,1.5,2.99,2.99,0,0,1-2.4.9,2.5,2.5,0,0,0-2.3,1.4,4.2,4.2,0,0,1-2.9,1.8,26.89,26.89,0,0,0-4,1.3c-1.4.5-1.8.2-1.8-1.4,0-2.4,4-4.4,6.6-3.4,1.2.4,1.5.2,1.2-.8-.2-.8-1.9-1.5-3.7-1.7-2.6-.3-3.4.1-3.8,1.7-.3,1.2-.9,2.1-1.3,2.1-1.2,0-2,7.3-.9,8.6,1.5,1.9-.7,5.4-3.4,5.4-1.3,0-3.8,1.3-5.7,3a13.424,13.424,0,0,1-6,3c-2.6,0-8,4.2-8,6.1,0,.7-1.4.8-3.9.4-2.2-.4-4.2-.2-4.5.3-.3.6.9,3.2,2.8,5.8,1.8,2.7,4,6.3,4.9,8.1,1.6,3,1.6,3.4-.1,6.2-1.7,3.1-4.7,4.1-5.4,1.9a1.047,1.047,0,0,0-1.6-.4c-1.7,1-1.5,2.6.3,2.6.8,0,1.7,1.4,2.1,3.6.5,2.7,2.5,5.5,7.8,10.8,7.4,7.4,16.6,18.7,16.6,20.5s4.2,8.1,6.1,9.2c2.5,1.3,2.4,2.9-.2,2.9s-6.7-2.2-13.9-7.5c-3-2.3-6.8-4.9-8.5-6-3.4-2.1-14-13.3-19.3-20.3a42.729,42.729,0,0,0-4.5-5.3c-.8-.6-2.5-3.2-4.6-7.4-.6-1.1-2.6-4.7-4.5-8-5.8-9.9-7.4-13.6-9.2-21.5-1-4.1-2.9-9.3-4.3-11.5a80.6,80.6,0,0,1-4.5-8c-1-2.2-2.6-5.4-3.4-7-.8-1.7-4.3-5.9-7.7-9.5s-6.8-7.6-7.5-9a44.353,44.353,0,0,0-4-6c-3.4-4.5-6-12.5-6-18.9a63.3,63.3,0,0,0-1.6-11.8c-1.6-7.1-1.5-18.3.4-29.4,1.4-8.2,9.6-19.8,18.7-26.3,9.7-7,15.5-14.6,11-14.6-3.2,0-16.5,9.1-16.5,11.4-.1,2.1-3.8,5.6-5.9,5.6-2.7,0-3.5-3.4-2.7-10.4.6-4.5,1.5-6.3,6.2-11.9,5.2-6.2,5.8-6.7,9.6-6.7,2.9,0,5.5,1,9.6,3.7,3.1,2.1,5.9,4.1,6,4.6a10.173,10.173,0,0,0,3.2,2.2c2.5,1.3,3.3,1.2,8.1-.4,2.9-1.1,6.3-3.1,7.4-4.5s2.9-2.6,3.9-2.6c2.7,0,7.6-3.9,7.6-6.1,0-2.7-2.3-3.3-6.2-1.6a32.011,32.011,0,0,1-13.3,2.9c-6.5.2-15.7-1.3-18.2-2.9-2.4-1.6-7.5-1.4-12.8.5a49.843,49.843,0,0,1-5.6,1.7c-5.8,1.1-14.8,14.2-15.1,22.1-.2,6.1,2.4,12,5.8,12.8,3.1.8,3.1,3.3-.1,4.8-1.9.9-2.9.7-5-.6a9.888,9.888,0,0,1-3.2-3.4,36.827,36.827,0,0,0-3.5-5.6c-2.7-3.7-2.8-4.4-2.8-15.7,0-6.5-.5-13-1-14.5-1.3-3.3.5-22.2,2.6-27.7.9-2.4,1.4-7.6,1.4-14.5.1-5.9.5-13.9,1-17.7.6-3.9,1.3-9.3,1.6-12,.7-6,4.8-17.1,8-21.5a39.734,39.734,0,0,0,2.9-6.5c1-2.8,4.8-9.4,8.4-14.7,3.6-5.4,7.4-11.5,8.4-13.5a22.633,22.633,0,0,1,11.9-11.5c5.3-2.3,7.3-4.8,8.4-10.4.9-5.4,3.5-10.2,8.3-15.3,2.3-2.4,4.1-5.2,4.1-6.2,0-3.2,3.2-10.3,6.6-14.5,4-4.9,10.5-8.2,18.8-9.5,9.2-1.4,10.5-1.8,12.5-3.8,1.7-1.7,17.7-14.1,26-20.3,3.3-2.4,5.7-3.3,19.6-7.4a136.346,136.346,0,0,0,19-7.4c3.3-1.6,7.9-3.5,10.3-4.4,2.3-.9,6.1-2.3,8.5-3.2,2.3-.9,5.7-2.2,7.5-3a17.455,17.455,0,0,1,5.7-1.4c2.2,0,7.7-2,11.5-4.1a64.414,64.414,0,0,1,17.5-6.3,125.545,125.545,0,0,0,15-4.6c5.3-2.2,8.2-2.8,12-2.5C384.3-1081.2,392.6-1080.6,400-1080.1Zm16,276a114.114,114.114,0,0,0,14.8,1.1c8.8,0,10.8.3,12.9,2,3.3,2.5,5,2.5,5.8,0,1.1-3.5,4-4.3,11.8-3,30.9,4.8,48.9,10.3,51.8,15.7,1.1,2,1,2.5-.7,3.7-1.9,1.4-1.9,1.5.2,4.3,2.5,3.3,14.4,13.3,16,13.3,1.8,0,6.2,3.9,7.8,6.8,3.8,7,4.6,9.5,3.5,10.8-1.3,1.6-.5,16.3,1,19.2,1.4,2.7,1.4,9.5,0,10.9a15.112,15.112,0,0,0-2.3,3.5c-1.1,2.2-1.7,2.3-10.1,2.1-4.8-.1-9.3-.7-9.9-1.3a6.556,6.556,0,0,0-3.7-1,5.3,5.3,0,0,1-3.8-1.4c-1.7-2-16.1-2-16.1,0,0,1.1,1.7,1.4,6.8,1.3,4.5-.1,7.9.4,10,1.5a13.569,13.569,0,0,0,4.5,1.6,4.371,4.371,0,0,1,2.7,1.5,4.805,4.805,0,0,0,3.1,1.5,1.723,1.723,0,0,1,1.9,1.5c0,2-12.2,2.1-18,0-3.7-1.3-4.5-1.3-7.2.1a8.486,8.486,0,0,1-6.2.9,76.882,76.882,0,0,0-9.6-1c-7.2-.3-11.8-1.2-13.8-2.8-1.3-1-6.8-2.3-14.2-3.3-3.1-.4-4,0-7.4,3.5-3.5,3.7-4.4,4.1-8.7,4.1-3.8,0-5.1.4-6.3,2.2a8.472,8.472,0,0,0-1.6,4.2c0,3,4,8.6,6.1,8.6,2.9,0,3.4,2.6,1.4,7-1.4,3.1-1.8,6.7-1.8,17.7,0,12.9.2,14.4,3.1,23.2,3.5,10.5,3.9,15.7,1.7,22.1-1.1,3.1-1.5,8.7-1.5,21.2,0,18.5.5,20.9,6.1,28,4.2,5.2,4.6,13,1,17.8-1.8,2.6-2.1,3.9-1.6,7.2.7,3.8.5,4.2-3.5,7.9l-4.2,3.9h-9.3c-8.1,0-9.8-.3-14-2.6a34.237,34.237,0,0,1-8.3-7.5c-2-2.7-4.3-4.9-5.2-5a13.786,13.786,0,0,0-8.7,1.7c-1.3.8-2.4,1-2.8.4-1-1.6,1.7-4.7,5.2-5.9,4.7-1.7,14,.3,14.9,3.3,1.7,5.8,12.4,13,18.5,12.4,3.1-.3,3.4-.6,3.2-3.3-.3-4.1-4.2-7-12.8-9.6a58.712,58.712,0,0,1-8.5-3,18.67,18.67,0,0,0-3.2-1.5c-1.9-.7-2.3-1.7-3.3-8-.6-4.1.1-6.6,5-17.9,3-6.8,4.6-14.2,3.6-16.6a45.758,45.758,0,0,1-1.6-6.2A13.207,13.207,0,0,0,407-612c-3.2-3.3-3.7-6.1-1.9-10.7a60.331,60.331,0,0,0,1.9-9.8c.4-3.9,1.6-10.4,2.5-14.5,1-4.1,1.8-8.5,1.7-9.8-.9-12.4-.7-14.1,1.8-16.7a29.083,29.083,0,0,1,7.3-5.1c4.4-2.3,4.7-2.7,4.7-6.2,0-2.9-.8-4.8-3.5-8l-3.6-4.1-3.4,1.6c-4.2,2-5.6,1.1-8.4-5.2-2.3-5.1-4-6.5-4.8-3.6-.3,1.1-2.7,3.4-5.4,5.2-4,2.6-5.2,2.9-6.4,1.9a5.617,5.617,0,0,1-1.3-4.1c.2-3-2.6-6.9-4.9-6.9a18.766,18.766,0,0,0-5.5,2.1c-3.9,2-4.2,2-8.5.4-4.6-1.8-5.4-1.7-28.3,1.5-7.4,1-10.4.3-12.9-3.1-1.2-1.6-2.7-2.9-3.3-2.9-2.2,0-4.8-3.4-4.8-6.3,0-3.5,2.8-8.5,5.2-9.3,2.8-.8,6.3-6.3,4.9-7.7-1.8-1.8-1.3-10.4.8-14.5,2-3.9,6.5-7.2,9.9-7.2a4.824,4.824,0,0,0,3.2-1.5c.7-.9,2.9-1.5,5.2-1.5,4.3,0,13.8-2.8,13.8-4,0-1.5-2.8-1.8-4.7-.5-1.3.9-5.9,1.5-13.9,1.7l-11.9.3-.3-5.6c-.2-4.1.1-5.9,1.3-6.9a4.313,4.313,0,0,0,1.5-2.4c0-1.2,11.4-11.7,17-15.6,5-3.6,22.8-9.6,38-13A58.527,58.527,0,0,1,416-804.1Zm107.7,23.8a6.1,6.1,0,0,0,1.7,2.5c.7.5.7.8-.2.8-1.7,0-6.2-3-6.2-4.1C519-782.8,523.1-782,523.7-780.3Zm9.9,6c2.5,3.3,1.7,4.6-1.6,2.6-3.1-1.8-3.5-2.5-2.3-3.6C530.8-776.5,532.2-776.1,533.6-774.3ZM545-755.1c0,1.6.5,3.1,1.1,3.3s1.5,2.4,1.9,4.8a122.885,122.885,0,0,0,3.5,12.5c1.5,4.4,4,11.8,5.6,16.5a44.943,44.943,0,0,1,2.9,16.5,91,91,0,0,0,1.5,14.5,63.5,63.5,0,0,1,1.5,11c0,2.5.7,5.4,1.5,6.4a7.545,7.545,0,0,1,1.5,3.4c0,.7,1.2,2.9,2.6,4.7,3.6,4.8,6.4,10.5,6.4,13.2a10.137,10.137,0,0,0,1.6,4.8c1.8,2.8,1.5,6-.6,6-1,0-2-2.2-3.2-6.6a43.376,43.376,0,0,0-4.2-10.7c-1.4-2.3-2.6-4.8-2.6-5.6a2.2,2.2,0,0,0-.8-1.8c-1.7-.7-5.2-9-5.2-12.3a28.593,28.593,0,0,0-1.4-7.7c-.8-2.4-1.6-8.4-1.9-13.3-.6-8.8-.9-10.2-4.1-19.8-.9-2.6-2.2-6.6-3-9-2.5-7.2-4.6-18-4.6-23,0-3.5-.4-4.7-1.5-4.7-1.5,0-2.1-4-.8-5.3C544.1-758.8,545-757.9,545-755.1ZM310-733.6c0,1.5-2.9,3-3.9,2-.3-.3.3-1.2,1.3-2C309.8-735.3,310-735.3,310-733.6Zm-5,6.3c0,1-1.3,4.5-2.9,7.8-4.6,9.9-5.3,11.7-6.1,18-1.3,9.2-3.1,17.8-4.1,19.5a18.667,18.667,0,0,0-1.5,3.2,3.063,3.063,0,0,1-3,1.8c-3.1,0-3-1.1.1-4,2.1-2,2.5-3.2,2.5-8.4,0-12.2,5.6-30.6,11.4-37.4C303.7-729.4,305-729.6,305-727.3Zm160.7,22.8c.9,2.5-.4,2.9-1.7.6-.7-1.5-.7-2.1,0-2.1C464.6-706,465.3-705.3,465.7-704.5Zm-17.2,1.4c.7,1.2-1.2,2.4-2.5,1.6-1.1-.7-.4-2.5,1-2.5A2.2,2.2,0,0,1,448.5-703.1Zm87.8,1.9c2.5,2.6,3.6,6.2,2,6.2-1,0-8.3-7.2-8.3-8.2C530-705,533.8-703.8,536.3-701.2Zm-158.9,2.8a2.339,2.339,0,0,1,1.6,1.9c0,1.9-4.9,5.5-7.5,5.5-3.8,0-3.7-2.6.3-5.4,2-1.4,3.8-2.6,3.9-2.6S376.5-698.7,377.4-698.4ZM362-690.5c0,.7,1,1.9,2.2,2.7,3.8,2.5,1.7,4.4-5.9,5.2-11.2,1.1-28.3,1-29.6-.3-2-2,1.2-3.1,9.5-3.1,8.2,0,12.1-1,15.3-4C356.8-693,362-693.3,362-690.5Zm-42,0c0,.8-.4,1.5-.8,1.5-.5,0-3.4,2.5-6.6,5.6-3.2,3-6.1,5.2-6.5,4.8-.3-.4,0-.9.7-1.1.6-.3,1.2-.9,1.2-1.3,0-1.4,9.3-10.8,10.8-10.9C319.4-692,320-691.3,320-690.5Zm58.6,16.3c4.7,3.4,5.9,4.9,6.9,8.2a8.228,8.228,0,0,0,2.4,3.7c1.2.9,1.3,1.5.5,2.3-.9.9-2,.2-4.4-2.9-1.8-2.2-4.2-4.4-5.4-4.7-5.6-1.8-9.7-7.4-6.3-8.7C374.3-677.2,374.6-677.1,378.6-674.2Zm-12.2,4.5c5.2,4.9,5.9,8.2,2.5,11.3-1.7,1.5-9.1,4.2-12.1,4.4-1.6,0-.7-1.9,2.3-4.8,4.1-4,3.4-6.2-2.1-6.2-5.1,0-5.2-1.8-.2-5.9a27.6,27.6,0,0,1,4.3-3.1A32.625,32.625,0,0,1,366.4-669.7Zm152.1,2.1c1.9,1.4,1.9,1.5.1,3.5A6.249,6.249,0,0,1,515-662a4.571,4.571,0,0,0-3,1.5c-1.6,1.9-5,2-5,.1a2.648,2.648,0,0,1,2-2.1c1.1-.3,2-1.1,2-1.6,0-1.1,3.7-4.9,4.8-4.9A6.263,6.263,0,0,1,518.5-667.6Zm-48.388,4.7c2,3.9,5.855,3.948,3.555,3.948-1.9,0-10.668-2.448-10.668-3.848.1-2.4,4.2-6.327,5.4-6.327C469.1-669.127,468.519-665.082,470.112-662.9ZM335.4-659.3c3.3,4.7,3.1,6.2-.6,4.1-4.3-2.4-5.8-4.1-5.8-6.5C329-665.4,331.9-664.3,335.4-659.3ZM611-660c0,.5,1.3,2.4,2.9,4.2,2.9,3.4,4.6,9.3,3.5,12.2-1,2.6-2.3,1.8-3-1.9a10.91,10.91,0,0,0-3.5-5.9c-2.8-2.4-3.4-4-3.1-7.9C608-661,611-661.8,611-660Zm-330,1.8c0,1.3-1.2,2.2-2.2,1.6s-.1-2.4,1.3-2.4A.882.882,0,0,1,281-658.2Zm114.3.7c.1.5-.6,1.1-1.5,1.3-1.1.2-1.8-.3-1.8-1.3C392-659.2,395-659.3,395.3-657.5Zm74.1,2.9a31.659,31.659,0,0,0,6.7,1.6c.9,0,4.857,1,9.581,1.648s3.31.123,9.317.952a30.7,30.7,0,0,0,8.7,0c2.329.029.3-.1,12.7-.1,8.7,0,12.9-.4,13.7-1.3.7-.6,3.3-1.2,5.8-1.2,3.7,0,5.3.6,8,3,3.1,2.7,4,3,10.6,3h7.3l2.1,4.3a22.615,22.615,0,0,1,2.1,8.6c0,4.4-2.1,14.5-4.6,22.1a16.972,16.972,0,0,0-.5,9.5c1.5,7.8-.4,13.2-6.9,20.3a132.286,132.286,0,0,0-8.8,10.6c-1.9,2.7-4.3,4.8-6,5.3a52.741,52.741,0,0,0-8.4,3.5c-3.1,1.5-7.3,2.8-9.2,2.8s-3.7.3-3.9.7c-.3.5.4,3.3,1.4,6.3a35.792,35.792,0,0,1,1.8,8.3,16.933,16.933,0,0,0,1.8,6,28.093,28.093,0,0,1,1.9,8.7c.3,7.6,1.5,11,6.2,17.2,6.8,8.9,7.1,11.1,3,20.7l-1.9,4.5-2.3-2.5a30.545,30.545,0,0,1-4.2-6.9,53.063,53.063,0,0,0-4.5-8.5,148.865,148.865,0,0,1-10-20.4,25.506,25.506,0,0,0-3.5-6c-3.8-4.5-7.4-12.2-7.4-15.7a10.6,10.6,0,0,0-2.8-6.6,30.894,30.894,0,0,1-4.7-8.2,50.423,50.423,0,0,0-4.5-9c-1.5-2.3-4.3-6.6-6.3-9.6a85.049,85.049,0,0,0-7.5-9.5c-3.5-3.5-4.6-4.1-9.8-4.5-5.5-.5-5.9-.7-8.9-5-2.7-3.9-6.5-14.8-6.5-18.7,0-2.1,3.1-4.3,5.9-4.3,3.9,0,10.4,5,13.5,10.3a13.352,13.352,0,0,0,6.9,6.2c2.3.9,5.4,2.3,6.9,3.1,3,1.6,5.8,1.8,5.8.4,0-1.3-9.1-14.3-15.2-21.5a67.146,67.146,0,0,1-5.9-8c-1-2.1-2.4-4.3-8-12.7-4.9-7.3-5.3-9.3-2.2-11.8,2.3-1.8,2.8-1.8,5.2-.6A44.572,44.572,0,0,0,469.4-654.6Zm-78.9,4.2c2.6,2.4,2.7,2.9,2.2,8.2a33.214,33.214,0,0,1-5.4,14.5c-.6.7-2.7,5.2-4.7,10.2-2.1,4.9-4.2,9.4-4.7,9.9-1.6,1.8-.9,3.8,2.6,7.8,3.2,3.4,3.5,4.3,2.9,7.6a40.429,40.429,0,0,1-4.5,12.2c-.5.8-1.2,2.2-1.6,3a6.893,6.893,0,0,1-1.3,2c-1.8,1.5-4.9,8.1-5.5,12-.4,2.5-1.2,5.1-1.8,5.8-.7.9-.6,2.5.3,5.2,1.5,4.5.4,9.9-3.3,15.9-2.1,3.5-15.6,17.5-19.3,20.1-1.2.9-3.6,4.6-5.2,8.3-5.2,11.4-11.3,14.3-12,5.7-1.1-12.7-1-13.3,4.8-18.8l5.3-5.1-.6-6.8c-.6-7.3.3-6.1-14-19a18.01,18.01,0,0,1-5.1-8.6,31.914,31.914,0,0,0-3.6-8,9.255,9.255,0,0,1-2-3.8,4.943,4.943,0,0,0-1.4-2.8c-1.6-2-3.2-8.5-4.1-17.2-.6-5.9-1.2-7.2-4.9-11.5-5.2-6.1-7.4-10.9-8.2-17.7-.6-5.2-.5-5.4,3.2-9,3.6-3.4,3.8-3.8,2.7-6.6-.9-2.4-.8-3.4.4-5.1,2-2.8,5.725.725,8.3,1.6s.8,1.15,4,.8.025,1.2,4.8-.3,1.1-1.6,10.2.3c10.3,2.1,23.9,2.1,26.6.1a7.284,7.284,0,0,1,3.7-1.5c2.6,0,7-2.5,10.9-6a15.84,15.84,0,0,1,5.8-3.6c1.4-.3,3.6-1,5-1.4C385.3-653.5,387.6-653.1,390.5-650.4Zm-35.1,2.3c.9,1.5-1.6,2.9-6.6,3.6-4.7.7-15.1-1.6-16.4-3.6-.3-.5,4.7-.9,11-.9S355.1-648.6,355.4-648.1Zm247.7,1.2c1.2,2.4.5,23.3-1.3,36.4-1.8,13.3-5.4,24.9-9.2,30a44.313,44.313,0,0,0-4.4,7.2c-1.8,3.5-2.7,4.2-6.2,4.8-4.6.8-5,2.2-1.5,5.3,2.1,1.8,2.4,2.6,1.5,4.2-3.7,6.9-9.3-.6-7.2-9.7.5-2.5,2-4.1,5.7-6.5,2.7-1.8,5.5-4.3,6.1-5.6a22.351,22.351,0,0,1,3.8-5.1c2.6-2.7,2.6-2.7,5.2-22.2.5-3.5.2-5.3-1-7-2.1-3-1.2-12.3,1.6-16.3,1.3-1.8,2.2-5,2.5-9a61.657,61.657,0,0,1,.8-7.4C600.1-649.6,601.8-649.2,603.1-646.9Zm-328.3,7c-.1,1.3-.7,2.3-1.3,2.2-1.3-.3-1.8-3-1.1-5C273.4-645.1,275.3-642.8,274.8-639.9Zm302.7,5c.9,1.3-.3,5.9-1.4,5.9-.5,0-1.1-.9-1.4-2.1C573.7-634.7,575.9-637.6,577.5-634.9ZM242-632.3a6.387,6.387,0,0,1-1,3.3c-.8,1.2-1,1.2-1.6-.3-.7-2,.1-4.7,1.6-4.7C241.5-634,242-633.2,242-632.3Zm0,9.5c0,1-.5,1.8-1,1.8-1.5,0-2.3-2.7-1.6-4.7.6-1.5.8-1.5,1.6-.3A6.329,6.329,0,0,1,242-622.8Zm332.9,4.5c.1,2.3-.3,4.5-.9,4.8-.6.4-1-2-.9-6.7C573.2-628,574.7-626.4,574.9-618.3Zm-330,15.8c.1,7.5.6,11.8,1.6,13.5,1.7,2.9,2,9,.5,9-.6,0-1.3-.8-1.6-1.8-.4-.9-1.2-3.1-2-4.9-1.5-3.3-2-25.6-.7-30.3l.7-2.5.7,3C244.5-614.9,244.8-608.6,244.9-602.5ZM569-584a21.439,21.439,0,0,1-1.4,7.2c-4.7,10.9-4.9,12.1-4.8,18.9.1,3.8-.2,6.9-.7,6.9a37.626,37.626,0,0,1-3.8-.6l-3-.6,2.3-2.5c2-2.1,2.4-3.7,2.4-8.4,0-3.2.4-6,.9-6.4.5-.3,1.3-2,1.7-3.8a37.223,37.223,0,0,1,2-6.2,43.605,43.605,0,0,0,1.9-5.8C567.3-589.4,569-588.6,569-584ZM261.6-568.4c1.2,1.8,1.4,2.8.6,3.6-1.2,1.2-4.4-1.4-5.5-4.5C255.7-572.1,259.7-571.4,261.6-568.4Zm205.6-.9c2.3,2.7,5.7,10.3,6.7,15,1.2,5.6-.5,7.3-5.2,5.3-5.2-2.2-14.5-2.5-16.7-.5-1.2,1-2,1.3-2.5.6-.3-.6.4-2,1.7-3.1,8.1-7.1,8.5-7.6,9.2-12.3.4-2.7,1.4-5.1,2.4-5.7C465.1-571.3,465.5-571.3,467.2-569.3Zm-73.7,5.5c-.2,5.8-2.3,9.9-5.4,10.9-.7.3-1.5,2.6-1.9,5.3-1,6.7-2.7,6.9-3.1.4-.8-14.6-.6-17.7,1.7-20.1a7.381,7.381,0,0,1,5.6-2.3h3.3ZM266-554.1c0,3.4-.9,4.4-2.6,3-.9-.8-1-1.8-.2-4C264.4-558.6,266-558,266-554.1Zm27,14.4a5.306,5.306,0,0,0,.9,3.2c.5.6,1.1,5.6,1.4,11.2.4,8.1.2,10.5-.9,11.4-.8.7-1.8.9-2.2.5-2.8-2.8-3.4-28.6-.6-28.6C292.4-542,293-541,293-539.7Zm264.4,5.4c-1.8,2.9-3.4,2.7-3.4-.5,0-3.7,1-4.6,2.9-2.7C558.1-536.4,558.2-535.5,557.4-534.3ZM460-531.5c0,1.9-3.5,5.5-4.9,5.1-2.8-.9-6.1,2.8-6.1,6.8,0,4.5,1.5,5.4,4.7,2.5l2.5-2.4,2.4,3c1.3,1.6,2.4,3.5,2.4,4.1a4.313,4.313,0,0,0,1.5,2.4,4.3,4.3,0,0,1-1,7.2c-1.7.8-2.8.8-3.7,0-.9-.7-2.8-.8-6.2,0-4.7,1-4.8,1-8.1-2.6-3.6-3.9-5.1-4.4-8.1-2.1a7.921,7.921,0,0,1-4.2,1.5c-1.9,0-2.3-.5-2-2.2.4-2.9,4.2-4.8,9.9-4.8,5.6,0,6.9-1.3,6.9-6.7,0-3.9.4-4.5,5.3-8.2C455.8-531.4,460-533.1,460-531.5Zm-45.7,6.9c2.1,1.6,2,6.7,0,7.3-1.1.4-4.3-5.5-4.3-7.8C410-526.4,412.2-526.1,414.3-524.6Zm130.1,11.8c-.8,2.8-1.4,3.3-3.9,3.3-4.3,0-4.8-4.4-.9-7.4,2.4-1.9,2.9-2,4.2-.7C545-516.4,545.1-515.3,544.4-512.8ZM417.2-508c-.6,5.6-2.1,6.6-4.7,3.3-2.1-2.5-2.1-2.9-.7-5.1a3.83,3.83,0,0,1,3.6-2C417.2-511.5,417.4-510.9,417.2-508Zm-120.4,4.7c2.8,1,6.2,4.5,6.2,6.5,0,2.6-2.9,2.2-4-.6a5.891,5.891,0,0,0-2.9-3.1c-1.7-.5-2.1-1.4-2-4.8.2-3.1.3-3.5.6-1.4C295-505.1,295.9-503.6,296.8-503.3Zm19.5-5a3.48,3.48,0,0,1-.2,2.6c-.6,1.5-.9,1.6-2.5.4-1.1-.8-1.6-1.9-1.2-2.5C313.2-509.1,315.7-509.4,316.3-508.3Zm224.9,9.5c.5,3.2-1.3,9.1-3.1,10.2-1.9,1.2-2.3-3.5-.5-5.5a9.026,9.026,0,0,0,1.7-4.9C539.3-503,540.7-502.8,541.2-498.8ZM317-493.9c0,3.1-2.4,4.9-4.1,3.2-1.2-1.2,1.8-7.6,3.2-6.8C316.6-497.1,317-495.5,317-493.9Zm1.5,12.3c2.5,1.8,1.5,9-2.2,15.7-2.4,4.4-2.5,5.2-1.3,7.4s1.1,2.8-.3,4.2c-4.1,4.2-4.5-3.2-1.2-22.7C314.7-483.6,315.2-484.1,318.5-481.6ZM373-466c0,.5-1,1-2.2,1-1.9,0-2-.2-.8-1C371.9-467.3,373-467.3,373-466Zm-5,2.8c0,1.3-1.2,2.2-2.2,1.6s-.1-2.4,1.3-2.4A.882.882,0,0,1,368-463.2ZM487-361.1c0,2.3-3.5,3.4-5.1,1.5-.9-1.1-.6-1.6,1.2-2.3C486.6-363.3,487-363.2,487-361.1Zm-11.6,10c2,2.2,1.4,4.1-1.3,4.1a4.206,4.206,0,0,1-4.1-4.2C470-353.6,473.2-353.5,475.4-351.1ZM413-335a3.7,3.7,0,0,0,1.8,2.9c1.6,1,1.6,1.2-.2,2.6-2.6,2-4.2,1.9-6.6-.5-2.3-2.3-1.9-4.1,1.3-5.6C412.5-337.3,413-337.2,413-335Zm-9,1.5c0,1.6-3.5,2.1-4.4.6-.8-1.2.4-2.1,2.6-2.1A1.687,1.687,0,0,1,404-333.5Zm63,1c0,2.9-4,9.1-7.1,10.9-3.1,1.9-3.2,1.9-4.6,0-1.2-1.6-1.1-2,.4-3.1a6.234,6.234,0,0,1,3.2-1.3c2.3,0,5.1-3.1,5.1-5.7,0-1.4.6-2.3,1.5-2.3A1.538,1.538,0,0,1,467-332.5Zm-41.5,4.4a1.191,1.191,0,0,1-.5,1.6c-1.5.9-4.3-.3-3.5-1.5A2.6,2.6,0,0,1,425.5-328.1Zm26.3,30c.2,4.9-.1,6.8-1.4,8.2A5.384,5.384,0,0,1,448-288c-.4,0-1.1-3-1.5-6.6-.6-5.5-.4-6.9,1.1-8.5C450.4-306.2,451.5-304.8,451.8-298.1Zm8.7-.6c0,6.5-1.9,6.4-2.3-.2-.2-3.9,0-5.2,1-4.9C459.9-303.5,460.4-301.5,460.5-298.7Zm-20.1,3.3c.4,2.9.2,4.5-.8,5.3-1.7,1.5-2.6-.5-2.6-5.8C437-302.7,439.3-302.3,440.4-295.4Zm-9.4,1.5c0,2.8-.4,3.9-1.5,3.9s-1.5-1.1-1.5-3.8c0-2.1.3-4.2.6-4.5C430-299.6,431-297.7,431-293.9Zm48,23.4c0,.9-.9,1.5-2.5,1.5-2.4,0-3.2-1-1.8-2.3C475.9-272.6,479-272,479-270.5Zm-6.2,2.7c-.6,1.6-3.3,2.2-5.6,1.3-1.4-.5-1.4-.7-.2-1.5C469.2-269.4,473.2-269.2,472.8-267.8Zm-11.1,2.1c1.4,1.5-1.4,2.7-6.3,2.7-5.5,0-6.8-1-3.6-3C453.4-267,460.6-266.8,461.7-265.7Z"/>
      <path id="Path_2" data-name="Path 2" d="M181.7-758.7a19.943,19.943,0,0,0-2.2,5.7,40.818,40.818,0,0,1-3.6,8.8c-4.3,8.2-5.1,24.3-1,21.8a3,3,0,0,0,1.1-2.3,6.191,6.191,0,0,1,1.6-3.4c1-1.1,1.8-4.1,1.9-7.6a44.155,44.155,0,0,1,2.6-11.3C185.9-756.6,185.7-764.8,181.7-758.7Z"/>
      <path id="Path_3" data-name="Path 3" d="M239.6-740.3c-.3.3-.6,3.6-.6,7.2a42.158,42.158,0,0,1-1.5,10.9c-1.5,4.3-1.2,14.2.5,14.2s2.9-6.3,3.5-18.6C242.1-738.7,241.6-742.3,239.6-740.3Z"/>
      <path id="Path_4" data-name="Path 4" d="M147.5-732.4a6.949,6.949,0,0,0-1,5.8c.3,1.7.7,5.3.9,8.1a24.388,24.388,0,0,0,4.9,13.9,52.683,52.683,0,0,1,5.6,9.2,5.957,5.957,0,0,0,5.2,3.4c.5,0,.9-1.4.9-3,0-2.9-2.9-7-5-7-2.3,0-4.6-8.6-4.8-18.1C154-734.2,151.6-738.6,147.5-732.4Z"/>
      <path id="Path_5" data-name="Path 5" d="M569.6-728.3c-1,1-.7,4.3.3,4.3.5,0,1.3,1,1.7,2.2A7.061,7.061,0,0,0,573-719c1.5,1,15,19.3,15,20.3,0,1.5,18.1,18.7,19.1,18.1,1.3-.8,1.1-3-.3-4.6-5-5.3-13.8-15.7-13.8-16.4-.1-1.5-6.3-10.1-10.6-14.6-2.2-2.4-5.2-5.9-6.8-8C572.9-727.9,570.7-729.4,569.6-728.3Z"/>
      <path id="Path_6" data-name="Path 6" d="M265.1-717.8c-3,6.8-11.1,32.3-11.1,35a5.757,5.757,0,0,1-1.2,3.6c-.9.9-.8,1.2.8,1.2,2.6,0,8.7-5.5,10.8-9.7a22.982,22.982,0,0,0,1.6-8.5c.1-2.9.7-6.4,1.5-7.8,1.7-2.9,2.1-18,.5-18C267.4-722,266.1-720.1,265.1-717.8Z"/>
      <path id="Path_7" data-name="Path 7" d="M239.5-688.9c-1,3.8-.2,11.2,1.3,11.7.9.3,1.2-1.2,1.2-5.5C242-689.4,240.5-693,239.5-688.9Z"/>
      <path id="Path_8" data-name="Path 8" d="M629.4-651.6c-.3.8.3,2.6,1.3,4,1.9,2.6,3.3,3.3,3.3,1.6a.945.945,0,0,0-1-1c-.5,0-1-1.1-1-2.4C632-652.3,630.2-653.8,629.4-651.6Z"/>
      <path id="Path_9" data-name="Path 9" d="M416.6-779.1c-1.5,1.7-1.5,1.9-.1,2.5a63.144,63.144,0,0,0,10.3.6c4.9.1,10.4.7,12.7,1.5a32.09,32.09,0,0,0,9.1,1.5c5.9,0,29.1,3.8,31.6,5.1a8.7,8.7,0,0,0,3.6.9,4.3,4.3,0,0,1,3.1,1.4c.7.8,2.8,1.6,4.9,1.9a62.389,62.389,0,0,1,6.2,1.2c2.3.6,2.3.5.5-.6a8.891,8.891,0,0,1-2.8-2.6c-.4-.7-2.3-1.3-4.2-1.3s-3.7-.5-4-1.1a11.962,11.962,0,0,0-2.8-2,32.145,32.145,0,0,1-3.7-1.8c-3.9-2.3-20.7-5.7-32.9-6.8a24.851,24.851,0,0,1-7.2-1.4c-1-.5-6.5-.9-12.2-.9C419.8-781,418.1-780.7,416.6-779.1Z"/>
      <path id="Path_10" data-name="Path 10" d="M403.5-755.4c-3.8,1.4-8.4,2.9-10.2,3.5-1.8.5-3.5,1.4-3.8,1.9-.4.6-3.7,1-7.4,1-6.2,0-7,.3-9.7,3-1.6,1.6-3.9,3-5.1,3-3.2,0-5.3,1-5.3,2.6s7.7,1,15.4-1.2a46.224,46.224,0,0,1,10.8-1.4c3.3,0,6.8-.5,7.9-1.1,5.5-2.9,13.2-3.9,30.1-3.7,9.5,0,21.1-.2,25.8-.6,7-.6,9.7-.3,15.3,1.3,3.8,1.1,7.4,2.4,8,2.9,2,1.6,12.3,4.2,16.5,4.2a23.278,23.278,0,0,1,7.5,1.5c4.5,1.9,11,2,10.5.2-.3-.6-1.9-1.3-3.7-1.5a18.891,18.891,0,0,1-6.6-2.6c-2.3-1.6-5.4-2.5-10.4-2.9-3.9-.3-8.7-1.3-10.8-2.3-2.1-.9-5.7-2.5-8-3.6-5-2.3-14.1-3.7-23.8-3.8a40.511,40.511,0,0,1-11-1.5c-2.5-.9-7.9-1.4-14.5-1.4C412.3-757.9,409.3-757.5,403.5-755.4Z"/>
      <path id="Path_11" data-name="Path 11" d="M521.4-742.5c-1.4,1.9-3.2,3.5-3.8,3.5a6.373,6.373,0,0,0-3.1,1.4c-1.8,1.3-1.8,1.4.1,3.4,2.7,2.9,6.6,4.2,12.5,4.2,4.5,0,5-.3,6-2.8a13.585,13.585,0,0,0,.5-6.1C532.4-746.6,526-748.5,521.4-742.5Z"/>
      <path id="Path_12" data-name="Path 12" d="M509.2-495.4c.4,2.1,2.2,2.3,2.6.1a1.271,1.271,0,0,0-1.3-1.7A1.2,1.2,0,0,0,509.2-495.4Z"/>
      <path id="Path_13" data-name="Path 13" d="M362.6-491.4c-.8,2.2-.7,6.4.2,6.4s5.6-5,5.1-5.4a22.1,22.1,0,0,0-2.6-1.4C363.6-492.7,363.1-492.7,362.6-491.4Z"/>
      <path id="Path_14" data-name="Path 14" d="M510-486.3a9.858,9.858,0,0,0,2,3.3c1.7,2.2,1.9,2.3,2.5.7a3.378,3.378,0,0,0-.5-3.2C512.7-487.1,510-487.6,510-486.3Z"/>
      <path id="Path_15" data-name="Path 15" d="M519.6-459.6c-1.1,4.5,6,13.6,10.6,13.6a6.736,6.736,0,0,1,3.8,2,6.725,6.725,0,0,0,3.5,2c.8,0,1.5-.9,1.5-2,0-1.5-.7-2-2.8-2-2.2,0-3.9-1.2-7.1-5-2.4-2.8-4.6-6.3-5-7.8C523.1-462.4,520.4-462.8,519.6-459.6Z"/>
      <path id="Path_16" data-name="Path 16" d="M330-460.1c-2.3,1.5.1,3.2,3.3,2.3,1.4-.4,2.7-1.2,2.7-1.7C336.1-460.9,331.9-461.2,330-460.1Z"/>
      <path id="Path_17" data-name="Path 17" d="M445-453.1c-1.4,2.6.7,7.1,3.2,7.1,2.7,0,3.2-2.3,1.3-5.9C447.7-455.5,446.5-455.8,445-453.1Z"/>
      <path id="Path_18" data-name="Path 18" d="M490.6-449.4c-1.1,2.9,3.3,6,4.9,3.4.7-1.2-1.6-5-3.1-5A2.221,2.221,0,0,0,490.6-449.4Z"/>
      <path id="Path_19" data-name="Path 19" d="M322.4-444.9a1.884,1.884,0,0,0,.4,2.1c1.3,1.3,3.2.2,3.2-1.8C326-446.2,323.4-446.5,322.4-444.9Z"/>
      <path id="Path_20" data-name="Path 20" d="M432-444.1a1.018,1.018,0,0,0,.9,1.1c.5,0,1.3,1,1.7,2.2,1.5,4.8,5.4,9.8,7.7,9.8,4.2.1,11.2,4.1,15.9,9.3,3.4,3.7,4.7,4.7,4.8,3.4,0-1-1.3-3.2-3-5-1.6-1.8-3-3.7-3-4.3s-1.1-2.3-2.5-3.8a7.4,7.4,0,0,0-5.9-2.6c-4.1,0-10.4-3.8-12.6-7.7C434.3-444.5,432-445.9,432-444.1Z"/>
      <path id="Path_21" data-name="Path 21" d="M390.7-441.6A15.881,15.881,0,0,0,387-432c0,1.1,4.8,3,7.5,3,3.2,0,4.2-3.8,2.5-9.1C395.1-443.9,393.6-444.7,390.7-441.6Z"/>
      <path id="Path_22" data-name="Path 22" d="M377.7-441.4c-1.6,1.6-.7,6.3,1.4,7.4,2.6,1.5,2.9,1.2,3.2-3.6.2-3.3-.1-3.9-1.8-4.2A3.78,3.78,0,0,0,377.7-441.4Z"/>
      <path id="Path_23" data-name="Path 23" d="M505-439.5c1.2,1.3,2.7,2.2,3.3,1.8.5-.3-.1-1.4-1.4-2.4C503.4-442.8,502.3-442.4,505-439.5Z"/>
      <path id="Path_24" data-name="Path 24" d="M346-438.1c-1.5,2.9-1.3,3.1,2,1.4,1.7-.8,2.8-1.9,2.5-2.4C349.5-440.6,347.1-440.1,346-438.1Z"/>
      <path id="Path_25" data-name="Path 25" d="M414.7-438.2c-2.1,2.3-2.2,6.1-.2,6.8a2.528,2.528,0,0,1,1.5,2c0,1.8,6.1,1.9,7.8.2,1.8-1.8,1.4-7.3-.6-9.1C420.8-440.5,416.7-440.4,414.7-438.2Z"/>
      <path id="Path_26" data-name="Path 26" d="M474.4-436.3c.4,2.1.8,5.6,1,7.7.3,3.8,2.5,6.6,5.3,6.6,1.7,0,1.7-3.2-.2-5.6a9.461,9.461,0,0,1-1.5-4.9c0-3.2-2.4-7.5-4.2-7.5C474.2-440,474-438.6,474.4-436.3Z"/>
      <path id="Path_27" data-name="Path 27" d="M404.7-433.3c-1.3,1.2-.7,4.8,1,7.3,1.3,1.9,1.7,4,1.4,8.5-.3,5.8-3.2,13.5-5,13.5-.8,0-1.3,4.3-2.1,17.4-.1,2.3,7.8,9.6,10.5,9.6a6.2,6.2,0,0,0,3.8-2.5c1.9-2.7,1.5-3.2-3.8-5-3.4-1.1-4-3.8-1-4.3a6.309,6.309,0,0,0,3.3-2c1.2-1.6,1.4-1.5,3,.5l1.7,2.2,5.3-6.4c2.8-3.5,5.2-6.8,5.2-7.3,0-1.2,4.4-5.2,5.7-5.2.6,0,1.8,1.6,2.8,3.6,1,2.2,2,3.3,2.6,2.7,1.3-1.3.1-4.1-2.2-5.3-1.4-.8-1.6-1.8-1.2-4.3.7-4.5-2-9.7-5-9.7a17.124,17.124,0,0,1-6.1-2c-4.2-2.1-5.6-1.9-5.6.8a25.335,25.335,0,0,1-1.5,5.7,29.786,29.786,0,0,0-1.5,6.9c0,2.6-3.6,11.6-4.5,11.6a12.452,12.452,0,0,1-2.1-3.6c-1.4-2.8-1.5-4.2-.6-7.2,1.7-5.9,1.9-22.6.3-24.6C407.7-434.1,405.8-434.5,404.7-433.3Z"/>
      <path id="Path_28" data-name="Path 28" d="M461-432.8c0,.7,2.3,4.2,5.1,7.7,3.5,4.5,4.9,7.1,4.5,8.5a14.045,14.045,0,0,0,.4,5.6l.8,3.5.3-3c.1-1.7.3-3.9.3-5a9.911,9.911,0,0,1,.9-3.3c1.2-1.8-3.4-9.3-7.7-12.5C461.7-434.3,461-434.5,461-432.8Z"/>
      <path id="Path_29" data-name="Path 29" d="M503-431.5c0,.8,1.2,2.5,2.7,3.8,9,7.3,9.3,7.9,9.3,16.1,0,6.9.2,7.6,1.9,7.6,1.1,0,3.6-1.5,5.6-3.3,3.4-3.1,3.5-3.4,1.9-4.8a6.82,6.82,0,0,0-3.8-1.4c-1.8,0-2.2-.8-2.6-5-.7-6.6-2.5-9.2-8.4-12.1C503.8-433.4,503-433.5,503-431.5Z"/>
      <path id="Path_30" data-name="Path 30" d="M554.4-426.6a15.244,15.244,0,0,0-.6,5c0,1.7.1,9.5.1,17.3.1,8.5.5,14.4,1.1,14.8,1.4.9,2.9-3.6,2-6-.4-1.1-.6-8.3-.4-15.9C556.9-425.1,556-430.8,554.4-426.6Z"/>
      <path id="Path_31" data-name="Path 31" d="M488.1-424.7c-1.7,1.7-1.4,2.2,2.8,7.1,5.5,6.4,6.8,10.7,4.6,15.6-1.6,3.4-1.6,4-.1,6.8a13.6,13.6,0,0,1,1.6,4.7c0,1.1.7,1.5,2.3,1.3,1.5-.2,2.1-.9,2-2.3-.2-1.1-.5-4.7-.8-8-.6-8.6-3-16.8-6.2-21.4S489.7-426.3,488.1-424.7Z"/>
      <path id="Path_32" data-name="Path 32" d="M379-418.8c-4.3,6.7-5,8.8-4.4,13.2a11.32,11.32,0,0,0,3,6.7c1.8,1.7,2.4,3.3,2.4,6.5,0,3.3.5,4.6,2.2,5.8,3,2.2,4.2.7,3.4-4.6-.3-2.3-.7-5.3-.9-6.5a5.81,5.81,0,0,0-.9-2.9,4.369,4.369,0,0,1-.8-2.9,4.575,4.575,0,0,0-2.1-3.6c-2.8-1.9-1.8-5.5,2.8-10.3l3.5-3.6h-3.3C381.5-421,380.1-420.4,379-418.8Z"/>
      <path id="Path_33" data-name="Path 33" d="M397.5-419.9a8.713,8.713,0,0,0-3.3,3c-1.1,1.7-.9,2.5,1.4,5.5,1.5,1.9,3.1,3.3,3.7,3.1,1.1-.3,3.7-7.4,3.7-10.5C403-421.2,401-421.6,397.5-419.9Z"/>
      <path id="Path_34" data-name="Path 34" d="M440.7-418.7c-1,2.8,1.3,8.6,5.3,13.2a52.981,52.981,0,0,1,5.1,6.8c.7,1.2,2.4,3.7,3.8,5.6a23.027,23.027,0,0,1,3.6,9.5l1,6.1,3.8.3c4.5.4,6.7-1.1,6.7-4.4,0-3-2.6-3.2-3.5-.3-.4,1.3-1.2,1.8-2.2,1.5a9.274,9.274,0,0,0-2.4-.6c-.6,0-.7-.6-.1-1.6s.4-3.1-.5-5.6c-1.2-3.5-1.2-4.6.3-8.3,1.5-4.2,1.5-4.4-1.1-9.9-1.5-3.2-3.5-6-4.4-6.3a19.711,19.711,0,0,1-4.7-3.5C447.8-419.6,441.6-421,440.7-418.7Z"/>
      <path id="Path_35" data-name="Path 35" d="M484.5-405.6c-.8,4,.1,7.6,1.9,7.6.7,0,2-1.6,3-3.6,1.6-3.4,1.6-3.8,0-5.5C486.9-409.9,485.2-409.4,484.5-405.6Z"/>
      <path id="Path_36" data-name="Path 36" d="M468.1-401c.2,5.2.8,6,2.9,3.5.9-1.1.9-2.2-.1-5C469.1-407.4,468-406.9,468.1-401Z"/>
      <path id="Path_37" data-name="Path 37" d="M317.3-401.3c.3,1,1,3.9,1.7,6.5s1.9,5.3,2.6,5.9A4.033,4.033,0,0,1,323-386a4.571,4.571,0,0,0,1.5,3,4.8,4.8,0,0,1,1.5,3.1,2.9,2.9,0,0,0,.9,2.3c.4.3,1.1,2.4,1.5,4.6.5,3.5,1,4.1,2.8,3.8,4.3-.6,4.3-3.1.2-8.6-2.1-2.9-4.2-5.2-4.6-5.2s-.8-1.2-.8-2.8a8.684,8.684,0,0,0-1.5-4.6,10.208,10.208,0,0,1-1.5-5.1,10.335,10.335,0,0,0-1.6-5.3C319.6-403.5,316.7-403.8,317.3-401.3Z"/>
      <path id="Path_38" data-name="Path 38" d="M430.3-399.1a34.338,34.338,0,0,0-2.3,8.2c-1.6,9.2-1.8,9.7-4.8,11.1a5.718,5.718,0,0,0-3,3.4c-.4,2.8,2.5,3.9,4.8,1.9a6.093,6.093,0,0,1,3.4-1.5c1.4,0,1.6.6,1.1,3.4-.7,3.6.9,5.2,3.6,3.5,1.9-1.1,2.7-17.5,1.3-27.2C433.8-401.2,432.3-402.3,430.3-399.1Z"/>
      <path id="Path_39" data-name="Path 39" d="M440-390.8c0,8.9.8,10.3,4.9,9.5,1.8-.4,3.1-.2,3.1.3a.945.945,0,0,1-1,1c-1.4,0-1.3,6.7.2,7.6,3.2,2,6.4-8.7,3.9-13.4a15.086,15.086,0,0,1-1.5-4.4,9.438,9.438,0,0,0-2.1-4c-3.5-3.1-4.5-3.8-6-3.8C440.3-398,440-396.6,440-390.8Z"/>
      <path id="Path_40" data-name="Path 40" d="M362.4-394.8c-.5.7-.7,3.1-.5,5.3a7.984,7.984,0,0,0,3.4,6.7c1.8,1.5,4,2.8,4.9,2.8a2.783,2.783,0,0,1,2.3,1c.3.5,2.1.9,3.8.9q3.15-.15,1.2-.6a14.829,14.829,0,0,1-4.5-2.7,52.118,52.118,0,0,0-4.9-3.9c-2.4-1.6-5.5-8.3-4.5-9.9.3-.4.3-.8,0-.8S362.8-395.5,362.4-394.8Z"/>
      <path id="Path_41" data-name="Path 41" d="M473.4-390.6a2.734,2.734,0,0,0,.4,2.8c.8.8,1.3.7,1.8-.6a2.734,2.734,0,0,0-.4-2.8C474.4-392,473.9-391.9,473.4-390.6Z"/>
      <path id="Path_42" data-name="Path 42" d="M483-388.6c-1.3,1.6-.3,2.6,2.7,2.6,1.3,0,2.3-.6,2.3-1.4C488-389.2,484.3-390.1,483-388.6Z"/>
      <path id="Path_43" data-name="Path 43" d="M548.6-381.3c-.3.3-.6,5.2-.6,10.7-.1,6.9-.5,10.9-1.5,12.6-1.6,2.7-2,14-.6,14,1.3,0,2.1-2.6,2.1-6.8a17.73,17.73,0,0,1,1.5-6.6c1-2,1.5-5.9,1.5-13.2C551-380,550.3-383,548.6-381.3Z"/>
      <path id="Path_44" data-name="Path 44" d="M563.6-355.9a74.32,74.32,0,0,0-.9,8.9,54.9,54.9,0,0,1-1.5,10,83.178,83.178,0,0,0-2.7,10,92.85,92.85,0,0,1-4.5,13.5c-1.5,3.3-3.1,6.9-3.5,8-3.7,9.9-5.3,15-4.9,16a14.053,14.053,0,0,0,3.5,3.4c2.4,1.8,3.3,2,4.5,1.1,1.8-1.6,1.8-4.9,0-5.6-2.8-1.1-2.6-3.6.4-7.4,1.6-2.1,4.1-4.1,5.4-4.4a4.573,4.573,0,0,0,3.1-2.6,4.185,4.185,0,0,1,2.3-2.4c1.5-.5,1.7-2.7,1.4-24.3C565.9-352.8,565.1-360.4,563.6-355.9Z"/>
      <path id="Path_45" data-name="Path 45" d="M338.2-353.3c-2.2.4-5.2,4.8-5.2,7.6,0,.8,1.1,1.8,2.5,2.1,2.4.6,6,3.9,18.2,17,3.5,3.6,6.7,6.6,7.3,6.6.5,0,1-1,1-2.3,0-4.9-2.3-9.7-6.8-14.5a39.25,39.25,0,0,1-6.6-9.8C345.9-353.6,344.5-354.5,338.2-353.3Z"/>
      <path id="Path_46" data-name="Path 46" d="M436-346.8a9.193,9.193,0,0,0,1.9,3.7c2.4,3.2,5.4,2.2,4.9-1.6-.2-2.3-.8-2.9-3.5-3.1C437.1-348,436-347.7,436-346.8Z"/>
      <path id="Path_47" data-name="Path 47" d="M332.6-340.4c-.4.9,0,2.7.8,3.9.8,1.3,1.6,4.7,1.8,7.6.2,4.3.7,5.5,2.2,5.7,1.6.4,1.7-.1,1.1-5-.6-4.6-3.9-13.8-4.9-13.8C333.4-342,332.9-341.3,332.6-340.4Z"/>
      <path id="Path_48" data-name="Path 48" d="M566.7-302.3c-1.2,1.1-.8,6.2.8,10a21.4,21.4,0,0,1,1.5,6.9c0,4.1,1.7,5.4,2.6,1.9.4-1.5,0-4.4-1-6.8a25.6,25.6,0,0,1-1.6-7.2C569-300.8,567.7-303.4,566.7-302.3Z"/>
      <path id="Path_49" data-name="Path 49" d="M351.6-292.3a1.2,1.2,0,0,0,0,1.4c.7,1.2,3.4,1.1,3.4,0S352.4-293.1,351.6-292.3Z"/>
    </g>
    <g id="Ellipse_1" data-name="Ellipse 1" class="cls-2" transform="translate(236 236)">
      <circle class="cls-4" cx="614" cy="614" r="614"/>
      <circle class="cls-5" cx="614" cy="614" r="604"/>
    </g>
    <path id="Path_50" data-name="Path 50" class="cls-3" d="M4.657,0c2.37,0,4.292,1.249,4.292,2.791S10.44,5.349,6.671,4.764,4.039,4.346.366,2.791,2.287,0,4.657,0Z" transform="translate(890.856 864.356)"/>
  </g>
</svg>
